G04 #@! TF.GenerationSoftware,KiCad,Pcbnew,8.0.6-8.0.6-0~ubuntu22.04.1*
G04 #@! TF.CreationDate,2024-11-13T10:01:41+01:00*
G04 #@! TF.ProjectId,INA228_hat,494e4132-3238-45f6-9861-742e6b696361,rev?*
G04 #@! TF.SameCoordinates,Original*
G04 #@! TF.FileFunction,Legend,Bot*
G04 #@! TF.FilePolarity,Positive*
%FSLAX46Y46*%
G04 Gerber Fmt 4.6, Leading zero omitted, Abs format (unit mm)*
G04 Created by KiCad (PCBNEW 8.0.6-8.0.6-0~ubuntu22.04.1) date 2024-11-13 10:01:41*
%MOMM*%
%LPD*%
G01*
G04 APERTURE LIST*
%ADD10C,0.120000*%
%ADD11C,0.000000*%
G04 APERTURE END LIST*
D10*
X107040000Y-44900000D02*
X107040000Y-47500000D01*
X107040000Y-44900000D02*
X157960000Y-44900000D01*
X107040000Y-47500000D02*
X109640000Y-47500000D01*
X107040000Y-48770000D02*
X107040000Y-50100000D01*
X107040000Y-50100000D02*
X108370000Y-50100000D01*
X109640000Y-47500000D02*
X109640000Y-50100000D01*
X109640000Y-50100000D02*
X157960000Y-50100000D01*
X157960000Y-44900000D02*
X157960000Y-50100000D01*
D11*
G36*
X121413134Y-67226023D02*
G01*
X121549715Y-67316145D01*
X121581557Y-67401741D01*
X121573611Y-67413099D01*
X121452526Y-67460150D01*
X121310497Y-67405389D01*
X121225636Y-67276338D01*
X121217454Y-67206535D01*
X121261377Y-67169410D01*
X121413134Y-67226023D01*
G37*
G36*
X124463621Y-60953421D02*
G01*
X124459139Y-61138775D01*
X124413151Y-61280586D01*
X124343107Y-61353177D01*
X124304405Y-61322586D01*
X124271795Y-61188634D01*
X124276538Y-61021391D01*
X124322384Y-60902421D01*
X124406111Y-60867574D01*
X124463621Y-60953421D01*
G37*
G36*
X133625729Y-67984012D02*
G01*
X133756904Y-68054930D01*
X133781168Y-68165784D01*
X133676254Y-68258103D01*
X133576731Y-68260340D01*
X133427472Y-68180931D01*
X133357693Y-68053812D01*
X133410367Y-68004804D01*
X133570067Y-67979264D01*
X133625729Y-67984012D01*
G37*
G36*
X125281261Y-58722195D02*
G01*
X125467287Y-58750381D01*
X125542308Y-58804682D01*
X125518882Y-58847735D01*
X125388606Y-58884595D01*
X125203601Y-58870244D01*
X125032609Y-58804682D01*
X124990877Y-58769021D01*
X125030552Y-58732470D01*
X125223746Y-58721033D01*
X125281261Y-58722195D01*
G37*
G36*
X132333805Y-67863228D02*
G01*
X132452802Y-67964553D01*
X132508194Y-68074615D01*
X132492931Y-68109546D01*
X132378103Y-68149164D01*
X132375898Y-68149144D01*
X132250130Y-68086136D01*
X132175654Y-67955159D01*
X132198322Y-67836070D01*
X132221970Y-67825118D01*
X132333805Y-67863228D01*
G37*
G36*
X133612542Y-69213703D02*
G01*
X133629692Y-69283644D01*
X133747090Y-69395424D01*
X133832113Y-69449104D01*
X133768327Y-69518882D01*
X133596280Y-69581182D01*
X133425732Y-69546222D01*
X133333655Y-69422406D01*
X133364657Y-69240497D01*
X133469145Y-69112574D01*
X133569150Y-69097599D01*
X133612542Y-69213703D01*
G37*
G36*
X122738964Y-69151174D02*
G01*
X122763627Y-69266255D01*
X122878315Y-69408004D01*
X122946302Y-69468579D01*
X122958251Y-69582125D01*
X122923767Y-69626633D01*
X122784211Y-69672270D01*
X122563479Y-69590322D01*
X122437186Y-69486185D01*
X122420043Y-69321544D01*
X122569064Y-69126087D01*
X122673543Y-69036411D01*
X122729795Y-69029983D01*
X122738964Y-69151174D01*
G37*
G36*
X130809198Y-71536755D02*
G01*
X130827171Y-71633368D01*
X130935687Y-71801230D01*
X130998705Y-71873390D01*
X131015623Y-71981531D01*
X130979238Y-72029255D01*
X130893018Y-72047848D01*
X130728657Y-71974266D01*
X130590050Y-71862365D01*
X130508259Y-71673948D01*
X130563284Y-71493915D01*
X130659077Y-71405027D01*
X130767271Y-71397385D01*
X130809198Y-71536755D01*
G37*
G36*
X124561763Y-57034855D02*
G01*
X124607860Y-57147440D01*
X124643882Y-57247721D01*
X124777760Y-57380249D01*
X124883977Y-57460839D01*
X124947659Y-57550869D01*
X124937421Y-57580124D01*
X124833020Y-57614292D01*
X124675611Y-57589780D01*
X124539900Y-57513445D01*
X124480812Y-57418440D01*
X124441897Y-57245260D01*
X124455106Y-57088808D01*
X124522910Y-57020735D01*
X124561763Y-57034855D01*
G37*
G36*
X128292695Y-56638687D02*
G01*
X128421874Y-56770423D01*
X128507378Y-56901518D01*
X128595999Y-57231183D01*
X128548938Y-57565962D01*
X128502521Y-57633579D01*
X128347679Y-57700334D01*
X128326798Y-57697850D01*
X128219122Y-57598606D01*
X128140326Y-57393749D01*
X128099804Y-57137276D01*
X128106948Y-56883185D01*
X128171151Y-56685473D01*
X128211475Y-56636120D01*
X128292695Y-56638687D01*
G37*
G36*
X130130713Y-71505258D02*
G01*
X130330693Y-71662930D01*
X130371000Y-71852859D01*
X130243858Y-72071404D01*
X130197595Y-72114859D01*
X129958894Y-72214122D01*
X129686703Y-72194367D01*
X129450000Y-72056856D01*
X129397067Y-72000073D01*
X129291800Y-71802330D01*
X129351611Y-71638170D01*
X129578539Y-71498742D01*
X129771413Y-71429557D01*
X129938308Y-71425365D01*
X130130713Y-71505258D01*
G37*
G36*
X134487142Y-69863348D02*
G01*
X134538945Y-69992547D01*
X134592969Y-70204548D01*
X134637148Y-70439467D01*
X134659418Y-70637418D01*
X134647714Y-70738518D01*
X134619225Y-70760183D01*
X134462475Y-70772934D01*
X134308941Y-70675427D01*
X134307356Y-70673429D01*
X134278914Y-70542385D01*
X134292788Y-70332067D01*
X134336981Y-70104743D01*
X134399496Y-69922684D01*
X134468334Y-69848160D01*
X134487142Y-69863348D01*
G37*
G36*
X121953236Y-67703235D02*
G01*
X121951172Y-67762880D01*
X121840618Y-67752689D01*
X121761920Y-67732631D01*
X121722129Y-67785610D01*
X121746446Y-67965006D01*
X121760908Y-68047687D01*
X121755556Y-68193881D01*
X121672301Y-68234113D01*
X121668296Y-68234076D01*
X121530126Y-68163402D01*
X121482936Y-67988589D01*
X121539433Y-67755423D01*
X121561463Y-67713807D01*
X121698384Y-67589630D01*
X121848812Y-67583604D01*
X121953236Y-67703235D01*
G37*
G36*
X128165184Y-58216757D02*
G01*
X128094253Y-58373487D01*
X128080388Y-58397453D01*
X127878000Y-58606459D01*
X127577046Y-58783280D01*
X127241305Y-58889344D01*
X127015848Y-58919165D01*
X126819848Y-58918099D01*
X126755217Y-58880624D01*
X126834791Y-58817931D01*
X127071405Y-58741211D01*
X127241636Y-58688991D01*
X127582106Y-58541141D01*
X127857191Y-58370631D01*
X128010032Y-58253474D01*
X128140634Y-58176795D01*
X128165184Y-58216757D01*
G37*
G36*
X142853236Y-70544127D02*
G01*
X142870806Y-70654760D01*
X142810812Y-70851537D01*
X142679565Y-71110132D01*
X142483371Y-71406221D01*
X142339982Y-71590351D01*
X142207329Y-71737562D01*
X142141636Y-71779483D01*
X142137450Y-71756273D01*
X142175449Y-71614623D01*
X142264222Y-71389030D01*
X142382405Y-71125716D01*
X142508636Y-70870908D01*
X142621555Y-70670828D01*
X142699797Y-70571703D01*
X142751795Y-70543963D01*
X142853236Y-70544127D01*
G37*
G36*
X132566799Y-68450964D02*
G01*
X132697938Y-68509152D01*
X132746614Y-68671449D01*
X132793165Y-68820880D01*
X132946299Y-68941819D01*
X133041228Y-68989108D01*
X133063902Y-69077894D01*
X133029917Y-69110041D01*
X132859710Y-69158991D01*
X132626525Y-69162808D01*
X132401959Y-69124300D01*
X132257608Y-69046274D01*
X132197189Y-68904558D01*
X132183494Y-68685237D01*
X132201057Y-68582435D01*
X132279726Y-68472157D01*
X132465719Y-68446488D01*
X132566799Y-68450964D01*
G37*
G36*
X132747310Y-69893857D02*
G01*
X132763044Y-70060535D01*
X132784135Y-70200211D01*
X132847994Y-70272909D01*
X132886240Y-70309957D01*
X132921502Y-70461373D01*
X132931729Y-70669122D01*
X132914960Y-70867042D01*
X132869231Y-70988975D01*
X132818295Y-70973632D01*
X132778819Y-70835102D01*
X132704640Y-70641915D01*
X132545207Y-70453690D01*
X132374263Y-70259811D01*
X132358948Y-70080202D01*
X132502610Y-69936099D01*
X132672246Y-69860205D01*
X132747310Y-69893857D01*
G37*
G36*
X130759112Y-70562901D02*
G01*
X130786959Y-70718896D01*
X130795185Y-70837490D01*
X130872910Y-70888796D01*
X130921141Y-70892364D01*
X130979097Y-70987904D01*
X130970406Y-71038962D01*
X130872910Y-71151097D01*
X130838455Y-71163595D01*
X130666603Y-71200651D01*
X130649794Y-71200191D01*
X130505730Y-71131481D01*
X130363693Y-70997672D01*
X130299499Y-70867558D01*
X130300788Y-70852629D01*
X130381504Y-70715501D01*
X130534899Y-70585533D01*
X130686839Y-70527759D01*
X130759112Y-70562901D01*
G37*
G36*
X130986216Y-69615110D02*
G01*
X131083913Y-69713556D01*
X131232898Y-69678822D01*
X131341795Y-69632574D01*
X131533238Y-69593311D01*
X131599406Y-69609414D01*
X131582577Y-69686732D01*
X131453873Y-69854678D01*
X131414878Y-69903216D01*
X131284972Y-70104797D01*
X131231121Y-70258190D01*
X131225111Y-70312435D01*
X131177634Y-70322189D01*
X131061221Y-70199786D01*
X130949120Y-69994043D01*
X130896731Y-69732562D01*
X130901576Y-69600801D01*
X130926812Y-69538744D01*
X130986216Y-69615110D01*
G37*
G36*
X116670990Y-70220762D02*
G01*
X116880918Y-70393383D01*
X117011191Y-70504821D01*
X117330922Y-70750069D01*
X117645466Y-70962729D01*
X117829038Y-71079384D01*
X118000524Y-71198259D01*
X118066723Y-71258737D01*
X118066134Y-71262185D01*
X117984351Y-71270537D01*
X117799701Y-71230585D01*
X117562716Y-71155858D01*
X117323929Y-71059884D01*
X117226079Y-71007127D01*
X116988208Y-70828897D01*
X116766030Y-70607749D01*
X116601763Y-70388907D01*
X116537626Y-70217594D01*
X116560547Y-70174412D01*
X116670990Y-70220762D01*
G37*
G36*
X127086504Y-57254867D02*
G01*
X127144365Y-57347764D01*
X127070695Y-57457036D01*
X127051566Y-57470653D01*
X126995165Y-57522347D01*
X127089922Y-57499683D01*
X127212509Y-57488803D01*
X127293494Y-57563793D01*
X127287981Y-57697679D01*
X127201192Y-57844153D01*
X127038351Y-57956908D01*
X127021035Y-57963893D01*
X126844182Y-58023131D01*
X126734114Y-57998432D01*
X126607279Y-57873657D01*
X126540827Y-57777838D01*
X126497670Y-57550236D01*
X126583085Y-57346263D01*
X126781594Y-57223634D01*
X126934888Y-57208845D01*
X127086504Y-57254867D01*
G37*
G36*
X138807750Y-84353830D02*
G01*
X139017092Y-84565719D01*
X139211021Y-84762087D01*
X139376236Y-84911909D01*
X139463945Y-84969230D01*
X139525391Y-84999403D01*
X139664846Y-85123953D01*
X139819492Y-85297204D01*
X139939305Y-85466793D01*
X139950417Y-85490020D01*
X139920651Y-85543254D01*
X139774683Y-85514037D01*
X139534818Y-85409530D01*
X139223362Y-85236897D01*
X139222042Y-85236103D01*
X138931797Y-85016326D01*
X138710042Y-84762955D01*
X138583548Y-84514522D01*
X138579085Y-84309558D01*
X138609549Y-84258738D01*
X138680778Y-84256694D01*
X138807750Y-84353830D01*
G37*
G36*
X128490961Y-62924607D02*
G01*
X128425089Y-63127161D01*
X128296775Y-63397810D01*
X128128074Y-63692051D01*
X127941039Y-63965384D01*
X127821519Y-64119813D01*
X127719539Y-64216673D01*
X127625156Y-64219287D01*
X127483522Y-64149761D01*
X127390916Y-64094775D01*
X127362436Y-64020735D01*
X127459798Y-63894911D01*
X127581250Y-63789870D01*
X127719085Y-63731772D01*
X127719247Y-63731772D01*
X127818498Y-63664610D01*
X127971108Y-63489159D01*
X128144108Y-63243311D01*
X128156781Y-63223681D01*
X128313849Y-63001679D01*
X128433775Y-62869331D01*
X128491482Y-62854691D01*
X128490961Y-62924607D01*
G37*
G36*
X121528763Y-86763355D02*
G01*
X121673480Y-86893118D01*
X121873848Y-87093258D01*
X121986963Y-87207854D01*
X122205439Y-87398883D01*
X122386109Y-87494006D01*
X122574684Y-87521127D01*
X122866388Y-87524528D01*
X122632776Y-87651264D01*
X122628376Y-87653666D01*
X122466341Y-87766228D01*
X122399164Y-87860238D01*
X122396881Y-87877860D01*
X122307433Y-87935112D01*
X122123847Y-87920011D01*
X121895647Y-87835035D01*
X121795019Y-87763275D01*
X121676128Y-87577242D01*
X121580684Y-87262876D01*
X121535820Y-87065929D01*
X121488236Y-86844103D01*
X121468315Y-86732221D01*
X121468598Y-86729701D01*
X121528763Y-86763355D01*
G37*
G36*
X134541728Y-87764653D02*
G01*
X134462040Y-87900000D01*
X134407662Y-87985115D01*
X134400575Y-88079225D01*
X134403112Y-88082447D01*
X134379216Y-88178224D01*
X134269936Y-88332022D01*
X134062050Y-88481687D01*
X133797363Y-88537590D01*
X133560683Y-88472110D01*
X133552031Y-88465605D01*
X133452587Y-88342280D01*
X133332106Y-88145183D01*
X133230528Y-87944980D01*
X133187793Y-87812340D01*
X133195405Y-87804771D01*
X133295267Y-87836954D01*
X133473907Y-87935546D01*
X133636744Y-88029598D01*
X133844081Y-88098934D01*
X134019053Y-88052098D01*
X134222894Y-87884955D01*
X134388024Y-87757121D01*
X134506373Y-87716355D01*
X134541728Y-87764653D01*
G37*
G36*
X130851673Y-83419495D02*
G01*
X130847462Y-83423535D01*
X130696686Y-83503652D01*
X130416321Y-83602750D01*
X130041865Y-83710555D01*
X129608817Y-83816794D01*
X129152676Y-83911193D01*
X128993800Y-83936540D01*
X128629814Y-83974354D01*
X128221210Y-83997497D01*
X127803649Y-84006146D01*
X127412793Y-84000478D01*
X127084305Y-83980668D01*
X126853846Y-83946893D01*
X126757078Y-83899331D01*
X126798633Y-83860739D01*
X126998363Y-83818368D01*
X127363790Y-83780747D01*
X127896990Y-83747599D01*
X128158839Y-83733322D01*
X128773212Y-83687166D01*
X129345826Y-83620940D01*
X129945061Y-83525796D01*
X130639298Y-83392892D01*
X130700504Y-83381302D01*
X130853147Y-83370644D01*
X130851673Y-83419495D01*
G37*
G36*
X133188816Y-66503322D02*
G01*
X133409450Y-66649106D01*
X133563041Y-66807491D01*
X133600162Y-66904928D01*
X133517744Y-66905123D01*
X133329007Y-66785635D01*
X133178448Y-66684167D01*
X133042018Y-66661263D01*
X132992993Y-66782274D01*
X133028462Y-67049759D01*
X133044557Y-67128932D01*
X133070542Y-67348402D01*
X133057005Y-67475006D01*
X133053321Y-67518089D01*
X133150706Y-67554515D01*
X133166019Y-67554661D01*
X133246415Y-67581615D01*
X133187793Y-67681939D01*
X133163735Y-67709285D01*
X133009676Y-67799967D01*
X132841607Y-67740493D01*
X132639942Y-67525259D01*
X132584719Y-67447683D01*
X132444823Y-67129322D01*
X132461338Y-66851935D01*
X132628919Y-66633764D01*
X132942226Y-66493052D01*
X132985762Y-66483884D01*
X133188816Y-66503322D01*
G37*
G36*
X123447871Y-71306856D02*
G01*
X123284880Y-71411913D01*
X123039358Y-71462207D01*
X122764854Y-71420493D01*
X122570505Y-71300160D01*
X122530240Y-71207358D01*
X122951338Y-71207358D01*
X122968698Y-71230315D01*
X123088790Y-71292307D01*
X123117354Y-71285762D01*
X123121238Y-71207358D01*
X123103878Y-71184400D01*
X123066069Y-71164883D01*
X123248663Y-71164883D01*
X123291137Y-71207358D01*
X123333612Y-71164883D01*
X123291137Y-71122408D01*
X123248663Y-71164883D01*
X123066069Y-71164883D01*
X122983786Y-71122408D01*
X122955221Y-71128953D01*
X122951338Y-71207358D01*
X122530240Y-71207358D01*
X122498300Y-71133743D01*
X122561370Y-70954152D01*
X122772847Y-70794294D01*
X122919028Y-70735266D01*
X123086488Y-70729700D01*
X123302745Y-70813510D01*
X123357344Y-70840632D01*
X123542925Y-70975521D01*
X123570285Y-71121357D01*
X123541561Y-71164883D01*
X123447871Y-71306856D01*
G37*
G36*
X127893114Y-57657460D02*
G01*
X127753971Y-57884448D01*
X127538098Y-58104126D01*
X127290984Y-58263853D01*
X127217746Y-58291010D01*
X126956902Y-58340347D01*
X126647806Y-58355671D01*
X126344482Y-58338909D01*
X126100956Y-58291985D01*
X125971255Y-58216825D01*
X125953677Y-58172313D01*
X125949079Y-57967856D01*
X126178699Y-57967856D01*
X126278566Y-58103485D01*
X126411781Y-58168730D01*
X126705782Y-58193449D01*
X127030455Y-58116868D01*
X127332718Y-57954760D01*
X127559490Y-57722894D01*
X127575534Y-57698182D01*
X127641566Y-57562819D01*
X127611092Y-57451615D01*
X127469541Y-57295308D01*
X127444117Y-57270926D01*
X127156075Y-57103709D01*
X126846801Y-57079030D01*
X126555817Y-57183583D01*
X126322645Y-57404062D01*
X126186809Y-57727161D01*
X126182341Y-57750508D01*
X126178699Y-57967856D01*
X125949079Y-57967856D01*
X125949072Y-57967532D01*
X126000135Y-57700465D01*
X126090947Y-57437214D01*
X126205587Y-57243878D01*
X126226160Y-57221680D01*
X126511205Y-57018570D01*
X126857269Y-56901314D01*
X127186392Y-56897448D01*
X127431930Y-56995346D01*
X127670196Y-57163318D01*
X127849880Y-57357646D01*
X127920903Y-57534872D01*
X127914568Y-57562819D01*
X127893114Y-57657460D01*
G37*
G36*
X128675634Y-60013622D02*
G01*
X128838362Y-60095919D01*
X128879585Y-60146861D01*
X128933443Y-60276475D01*
X128927402Y-60373915D01*
X128857309Y-60377463D01*
X128848276Y-60374690D01*
X128736486Y-60424067D01*
X128549625Y-60566576D01*
X128322902Y-60775962D01*
X128295048Y-60803482D01*
X127730787Y-61268814D01*
X127080225Y-61633720D01*
X126306856Y-61918895D01*
X126020160Y-61992266D01*
X125353796Y-62092952D01*
X124655055Y-62119585D01*
X123985395Y-62071545D01*
X123406273Y-61948211D01*
X123114746Y-61853517D01*
X122857889Y-61753932D01*
X122719379Y-61665446D01*
X122673147Y-61569799D01*
X122693123Y-61448732D01*
X122697018Y-61437011D01*
X122803587Y-61291487D01*
X122935216Y-61294298D01*
X123038749Y-61445882D01*
X123102646Y-61568073D01*
X123297407Y-61718621D01*
X123618661Y-61820674D01*
X124079448Y-61877761D01*
X124692810Y-61893410D01*
X124715295Y-61893264D01*
X125422906Y-61862562D01*
X126021144Y-61774430D01*
X126562708Y-61617652D01*
X127100294Y-61381012D01*
X127177365Y-61340202D01*
X127511644Y-61127106D01*
X127827976Y-60875182D01*
X128093998Y-60615259D01*
X128277345Y-60378165D01*
X128345652Y-60194730D01*
X128345659Y-60191609D01*
X128388183Y-60036403D01*
X128541037Y-59993980D01*
X128675634Y-60013622D01*
G37*
G36*
X126018067Y-57299167D02*
G01*
X125922657Y-57475259D01*
X125766503Y-57886924D01*
X125750084Y-58216146D01*
X125874147Y-58456922D01*
X125998252Y-58594782D01*
X126052007Y-58682982D01*
X126016424Y-58701351D01*
X125882676Y-58677678D01*
X125712000Y-58615644D01*
X125571818Y-58535900D01*
X125558240Y-58521944D01*
X125489522Y-58362255D01*
X125429123Y-58091168D01*
X125385884Y-57757646D01*
X125368647Y-57410654D01*
X125333976Y-57238124D01*
X125457358Y-57238124D01*
X125459567Y-57246601D01*
X125542308Y-57275585D01*
X125565592Y-57272128D01*
X125627258Y-57185622D01*
X125620588Y-57154896D01*
X125542308Y-57148160D01*
X125516886Y-57165596D01*
X125457358Y-57238124D01*
X125333976Y-57238124D01*
X125329421Y-57215460D01*
X125221393Y-57055963D01*
X125144782Y-56990534D01*
X125154842Y-56929453D01*
X125308696Y-56859285D01*
X125471163Y-56764425D01*
X125542308Y-56654132D01*
X125542308Y-56653961D01*
X125578589Y-56523027D01*
X125673363Y-56291772D01*
X125806164Y-56010151D01*
X125832150Y-55959117D01*
X126100494Y-55539906D01*
X126401054Y-55263060D01*
X126563416Y-55158924D01*
X126719369Y-55092989D01*
X126874740Y-55105470D01*
X127108998Y-55187935D01*
X127361959Y-55312229D01*
X127665930Y-55530741D01*
X127905410Y-55777341D01*
X128032607Y-56009518D01*
X128036443Y-56024015D01*
X128060933Y-56125342D01*
X128037942Y-56155930D01*
X127932223Y-56114892D01*
X127708529Y-56001337D01*
X127362532Y-55864375D01*
X127044805Y-55847158D01*
X126693010Y-55951767D01*
X126609156Y-55991143D01*
X126340026Y-56196786D01*
X126185543Y-56454603D01*
X126172274Y-56725137D01*
X126175058Y-56736999D01*
X126161115Y-56982464D01*
X126069353Y-57185622D01*
X126018067Y-57299167D01*
G37*
G36*
X125078099Y-63506746D02*
G01*
X125032609Y-63561873D01*
X124994378Y-63589545D01*
X124992731Y-63632918D01*
X125143810Y-63645522D01*
X125298148Y-63669932D01*
X125329933Y-63731772D01*
X125359934Y-63794998D01*
X125516057Y-63828291D01*
X125667737Y-63837555D01*
X125683900Y-63853882D01*
X125542308Y-63891038D01*
X125510412Y-63902858D01*
X125550913Y-63931780D01*
X125737072Y-63960424D01*
X126052007Y-63985656D01*
X126538731Y-64014938D01*
X126774081Y-64029097D01*
X125882107Y-64179215D01*
X125650685Y-64220256D01*
X125203409Y-64309281D01*
X124791152Y-64402419D01*
X124480435Y-64485150D01*
X124235657Y-64554224D01*
X124018187Y-64602820D01*
X123912335Y-64609388D01*
X123843634Y-64535773D01*
X123712191Y-64344158D01*
X123549675Y-64079952D01*
X123526979Y-64040490D01*
X125132585Y-64040490D01*
X125202509Y-64071572D01*
X125247481Y-64065441D01*
X125259142Y-64014938D01*
X125246691Y-64004772D01*
X125145875Y-64014938D01*
X125132585Y-64040490D01*
X123526979Y-64040490D01*
X123380645Y-63786062D01*
X123243324Y-63530791D01*
X124283087Y-63530791D01*
X124353010Y-63561873D01*
X124397983Y-63555742D01*
X124409644Y-63505239D01*
X124397193Y-63495073D01*
X124296377Y-63505239D01*
X124283087Y-63530791D01*
X123243324Y-63530791D01*
X123229661Y-63505393D01*
X123121281Y-63280853D01*
X123080064Y-63155348D01*
X123096954Y-62982554D01*
X123169750Y-62871124D01*
X123294026Y-62918568D01*
X123463355Y-63125388D01*
X123497905Y-63177720D01*
X123632368Y-63370252D01*
X123737912Y-63453840D01*
X123872801Y-63453136D01*
X124095296Y-63392795D01*
X124313833Y-63351668D01*
X124472762Y-63392795D01*
X124481998Y-63400706D01*
X124632989Y-63455210D01*
X124858462Y-63478224D01*
X124978989Y-63481805D01*
X125072111Y-63505239D01*
X125078099Y-63506746D01*
G37*
G36*
X132275762Y-55684113D02*
G01*
X132144374Y-55959677D01*
X131906602Y-56140044D01*
X131532377Y-56255957D01*
X131393539Y-56291290D01*
X131023174Y-56427357D01*
X130694884Y-56596348D01*
X130304508Y-56843917D01*
X130521540Y-57420788D01*
X130832841Y-58211016D01*
X131199387Y-59048127D01*
X131627198Y-59932490D01*
X132044798Y-60762974D01*
X133614456Y-61595730D01*
X134198059Y-61905351D01*
X135158789Y-62415050D01*
X135184114Y-62428486D01*
X135550863Y-62266604D01*
X135872566Y-62170752D01*
X136310191Y-62173716D01*
X136720087Y-62314932D01*
X136842956Y-62406316D01*
X137072592Y-62577109D01*
X137338043Y-62942953D01*
X137432789Y-63231021D01*
X137486779Y-63395175D01*
X137488801Y-63407235D01*
X137533033Y-63570389D01*
X137623757Y-63697145D01*
X137797166Y-63822777D01*
X138089450Y-63982558D01*
X138251118Y-64072845D01*
X138744421Y-64448408D01*
X139173957Y-64950452D01*
X139558527Y-65599672D01*
X139686559Y-65812092D01*
X139925223Y-66140233D01*
X140226216Y-66509580D01*
X140556895Y-66878329D01*
X141186080Y-67570492D01*
X141764090Y-68274043D01*
X142223654Y-68921494D01*
X142578350Y-69530659D01*
X142591325Y-69555663D01*
X142783278Y-69885860D01*
X142970085Y-70143139D01*
X143121574Y-70285573D01*
X143171281Y-70319560D01*
X143262846Y-70419983D01*
X143358713Y-70586956D01*
X143469910Y-70844555D01*
X143607470Y-71216855D01*
X143782423Y-71727933D01*
X143841287Y-71904807D01*
X144128186Y-72821959D01*
X144346459Y-73641778D01*
X144504192Y-74409704D01*
X144609470Y-75171176D01*
X144670379Y-75971636D01*
X144695005Y-76856521D01*
X144698616Y-77180893D01*
X144707874Y-77683688D01*
X144722705Y-78062433D01*
X144746006Y-78347172D01*
X144780675Y-78567949D01*
X144829610Y-78754807D01*
X144895706Y-78937792D01*
X144977386Y-79147302D01*
X145051954Y-79346874D01*
X145056319Y-79360404D01*
X145080727Y-79436068D01*
X145053649Y-79473208D01*
X144931919Y-79598882D01*
X144745439Y-79775867D01*
X144410108Y-80084615D01*
X144498684Y-80764214D01*
X144530504Y-81114275D01*
X144545462Y-81727407D01*
X144544360Y-81765159D01*
X144525230Y-82420802D01*
X144471644Y-83144016D01*
X144386538Y-83846607D01*
X144372882Y-83936872D01*
X144315554Y-84240115D01*
X144238110Y-84451164D01*
X144110317Y-84632377D01*
X143901942Y-84846109D01*
X143701912Y-85023361D01*
X143469206Y-85193163D01*
X143296823Y-85278839D01*
X143088104Y-85369654D01*
X142872074Y-85521967D01*
X142650665Y-85699427D01*
X142331354Y-85857072D01*
X141976711Y-85903679D01*
X141747162Y-85934455D01*
X141412434Y-86116053D01*
X141385949Y-86137684D01*
X141127556Y-86280951D01*
X140826521Y-86319113D01*
X140453212Y-86251360D01*
X139977996Y-86076884D01*
X139969259Y-86073160D01*
X139334862Y-85763333D01*
X138859710Y-85438866D01*
X138533310Y-85088532D01*
X138345165Y-84701102D01*
X138284783Y-84265349D01*
X138280341Y-84133393D01*
X138221478Y-83887334D01*
X138070980Y-83693641D01*
X138058019Y-83681066D01*
X137886467Y-83449965D01*
X137763740Y-83180920D01*
X137750463Y-83133531D01*
X138043280Y-83133531D01*
X138063559Y-83247227D01*
X138092558Y-83245911D01*
X138108177Y-83135730D01*
X138094573Y-83052229D01*
X138056853Y-83084406D01*
X138043280Y-83133531D01*
X137750463Y-83133531D01*
X137739527Y-83094496D01*
X137718559Y-82942892D01*
X137732579Y-82872148D01*
X138030197Y-82872148D01*
X138221202Y-83007478D01*
X138275578Y-83044833D01*
X138459092Y-83130082D01*
X138587799Y-83076934D01*
X138709532Y-82872131D01*
X138715010Y-82860768D01*
X138860079Y-82650021D01*
X139028094Y-82512915D01*
X139143022Y-82426821D01*
X139221916Y-82231420D01*
X139222634Y-82189945D01*
X139236211Y-82098052D01*
X139292764Y-82121997D01*
X139426625Y-82267899D01*
X139613875Y-82539825D01*
X139820212Y-83024887D01*
X139973345Y-83630741D01*
X140065449Y-84332107D01*
X140083819Y-84578087D01*
X140103309Y-84895951D01*
X140111570Y-85119425D01*
X140106838Y-85211075D01*
X140076725Y-85208842D01*
X140001107Y-85101722D01*
X139909923Y-84905949D01*
X139821769Y-84668496D01*
X139755239Y-84436338D01*
X139728930Y-84256449D01*
X139723013Y-84122850D01*
X139670497Y-83985906D01*
X139537793Y-83934503D01*
X139508867Y-83928807D01*
X139369733Y-83840813D01*
X139308556Y-83704801D01*
X139336108Y-83579861D01*
X139463159Y-83525083D01*
X139567275Y-83509904D01*
X139689439Y-83435305D01*
X139704802Y-83403627D01*
X139709626Y-83210302D01*
X139625527Y-83010658D01*
X139485103Y-82891458D01*
X139382587Y-82870402D01*
X139120604Y-82922064D01*
X138887580Y-83113440D01*
X138873953Y-83135730D01*
X138698501Y-83422719D01*
X138568349Y-83828091D01*
X138512109Y-84307746D01*
X138497157Y-84840897D01*
X139007528Y-85183540D01*
X139010110Y-85185271D01*
X139356239Y-85393818D01*
X139772326Y-85611446D01*
X140168871Y-85791315D01*
X140819845Y-86056447D01*
X141271931Y-85846993D01*
X141452655Y-85757809D01*
X141758935Y-85586526D01*
X141995053Y-85430809D01*
X142043933Y-85395210D01*
X142253819Y-85273310D01*
X142413730Y-85224080D01*
X142537089Y-85194360D01*
X142716723Y-85083489D01*
X142752725Y-85051780D01*
X142848310Y-84995068D01*
X142874657Y-85062252D01*
X142895110Y-85118134D01*
X142964828Y-85031156D01*
X143029687Y-84950342D01*
X143119722Y-84922305D01*
X143191912Y-84893537D01*
X143282580Y-84754192D01*
X143306215Y-84706659D01*
X143417717Y-84569921D01*
X143512507Y-84562764D01*
X143555074Y-84693144D01*
X143558088Y-84731886D01*
X143594074Y-84751077D01*
X143679627Y-84618852D01*
X143805555Y-84455727D01*
X143962310Y-84353658D01*
X144012280Y-84334424D01*
X144085617Y-84265277D01*
X144141683Y-84133240D01*
X144184066Y-83916911D01*
X144216353Y-83594890D01*
X144242133Y-83145773D01*
X144264992Y-82548160D01*
X144273451Y-82286270D01*
X144282802Y-81945625D01*
X144284364Y-81765159D01*
X144277755Y-81738730D01*
X144262590Y-81860195D01*
X144238487Y-82123411D01*
X144230238Y-82218337D01*
X144174379Y-82826084D01*
X144125610Y-83281215D01*
X144081486Y-83598702D01*
X144039564Y-83793514D01*
X143997400Y-83880620D01*
X143952550Y-83874991D01*
X143926876Y-83835785D01*
X143904825Y-83648247D01*
X143946173Y-83321415D01*
X143987029Y-82873114D01*
X143926178Y-82448748D01*
X143893343Y-82305479D01*
X143859208Y-82086918D01*
X143864159Y-81971454D01*
X143873072Y-81924424D01*
X143815835Y-81794833D01*
X143770178Y-81697445D01*
X143761169Y-81501230D01*
X143764646Y-81385798D01*
X143711681Y-81316388D01*
X143685638Y-81311741D01*
X143674613Y-81238693D01*
X143684851Y-81202709D01*
X143615914Y-81125083D01*
X143606963Y-81121872D01*
X143557833Y-81059138D01*
X143632525Y-80926691D01*
X143665686Y-80882400D01*
X143705030Y-80817452D01*
X143636773Y-80870401D01*
X143520443Y-80954108D01*
X143429227Y-80960430D01*
X143436003Y-80849164D01*
X143443427Y-80828921D01*
X143452206Y-80753106D01*
X143387794Y-80731326D01*
X143220913Y-80763635D01*
X142922285Y-80850083D01*
X142565902Y-80928735D01*
X142115721Y-80972960D01*
X141643531Y-80975330D01*
X141187315Y-80939028D01*
X140785056Y-80867236D01*
X140474738Y-80763137D01*
X140294344Y-80629912D01*
X140292490Y-80627271D01*
X140220843Y-80545926D01*
X140126446Y-80516512D01*
X139962411Y-80537218D01*
X139681850Y-80606230D01*
X139333283Y-80703645D01*
X139091138Y-80802496D01*
X138934738Y-80932066D01*
X138823089Y-81126940D01*
X138715194Y-81421702D01*
X138626063Y-81663878D01*
X138455402Y-82065056D01*
X138283360Y-82412830D01*
X138030197Y-82872148D01*
X137732579Y-82872148D01*
X137748708Y-82790758D01*
X137843524Y-82590609D01*
X138016558Y-82294960D01*
X138020793Y-82287925D01*
X138212920Y-81942767D01*
X138385794Y-81588390D01*
X138502455Y-81300440D01*
X138515222Y-81263853D01*
X138751335Y-80856916D01*
X139123400Y-80526856D01*
X139608212Y-80294776D01*
X139708275Y-80261079D01*
X139856823Y-80192994D01*
X139884774Y-80111749D01*
X139821975Y-79972317D01*
X139800709Y-79918231D01*
X139743721Y-79707383D01*
X139676027Y-79397569D01*
X139608089Y-79034656D01*
X139530719Y-78665226D01*
X139318970Y-77937703D01*
X139016430Y-77123811D01*
X138863426Y-76745540D01*
X138656781Y-76219732D01*
X138502082Y-75796952D01*
X138389178Y-75444321D01*
X138307919Y-75128959D01*
X138248152Y-74817989D01*
X138199728Y-74478530D01*
X138124422Y-74056642D01*
X137936545Y-73530016D01*
X137644511Y-73106666D01*
X137232071Y-72757692D01*
X137121770Y-72684492D01*
X136880322Y-72539388D01*
X136747100Y-72497205D01*
X136703234Y-72556347D01*
X136729854Y-72715217D01*
X136738737Y-72773170D01*
X136744842Y-72813000D01*
X136764106Y-73073525D01*
X136779797Y-73446265D01*
X136790596Y-73897367D01*
X136795184Y-74392976D01*
X136795195Y-74435451D01*
X136795295Y-74817597D01*
X136790452Y-75251403D01*
X136775713Y-75585868D01*
X136746470Y-75860930D01*
X136702759Y-76091973D01*
X136698113Y-76116528D01*
X136626035Y-76392604D01*
X136525626Y-76729097D01*
X136450346Y-76979957D01*
X136321501Y-77427459D01*
X136207704Y-77843548D01*
X136127095Y-78162952D01*
X136001099Y-78704833D01*
X136329710Y-79437199D01*
X136509887Y-79868422D01*
X136768068Y-80641584D01*
X136970594Y-81492120D01*
X137129280Y-82464771D01*
X137147743Y-82603366D01*
X137182220Y-82881695D01*
X137193146Y-82969897D01*
X137212763Y-83210728D01*
X137206031Y-83358467D01*
X137172384Y-83445723D01*
X137111258Y-83505107D01*
X137030721Y-83564972D01*
X136827357Y-83714704D01*
X136585786Y-83891501D01*
X136441918Y-83998617D01*
X136302169Y-84127143D01*
X136222269Y-84269636D01*
X136176994Y-84477828D01*
X136141120Y-84803450D01*
X136122648Y-84969230D01*
X136099346Y-85178354D01*
X136004803Y-85764327D01*
X135874059Y-86280412D01*
X135692626Y-86790795D01*
X135533362Y-87312709D01*
X135481438Y-87877859D01*
X135445835Y-88353708D01*
X135332828Y-88891277D01*
X135159003Y-89380040D01*
X134941424Y-89760505D01*
X134725012Y-90044235D01*
X134933326Y-90239935D01*
X134944626Y-90250649D01*
X135090930Y-90431469D01*
X135124339Y-90613629D01*
X135098208Y-90682800D01*
X135040731Y-90834945D01*
X134835986Y-91133233D01*
X134731356Y-91274000D01*
X134614341Y-91464081D01*
X134583762Y-91601820D01*
X134622413Y-91735757D01*
X134682164Y-91823694D01*
X134869641Y-92000967D01*
X135115088Y-92170096D01*
X135630111Y-92524653D01*
X136093080Y-92967234D01*
X136457243Y-93454089D01*
X136716862Y-93964931D01*
X136866200Y-94479472D01*
X136899519Y-94977423D01*
X136881834Y-95069626D01*
X136811082Y-95438497D01*
X136595150Y-95842406D01*
X136245987Y-96168862D01*
X136235808Y-96175686D01*
X136062179Y-96277496D01*
X135893041Y-96328487D01*
X135670784Y-96337937D01*
X135337798Y-96315123D01*
X135086060Y-96287567D01*
X134177273Y-96087778D01*
X133345598Y-95737001D01*
X132588561Y-95234263D01*
X132486200Y-95146604D01*
X132344846Y-94978650D01*
X132251068Y-94761656D01*
X132173643Y-94435517D01*
X132149183Y-94314124D01*
X132086562Y-94061093D01*
X132006278Y-93904531D01*
X131872437Y-93792172D01*
X131649148Y-93671750D01*
X131423705Y-93539331D01*
X131063847Y-93201997D01*
X130838174Y-92767579D01*
X130833569Y-92742319D01*
X131162976Y-92742319D01*
X131173450Y-92825474D01*
X131261547Y-92990838D01*
X131395190Y-93186104D01*
X131539777Y-93361008D01*
X131660704Y-93465288D01*
X131703401Y-93486469D01*
X131895197Y-93543044D01*
X132032201Y-93529072D01*
X132063509Y-93446879D01*
X131968265Y-93356573D01*
X131780342Y-93279031D01*
X131771504Y-93276577D01*
X131550416Y-93154921D01*
X131363803Y-92961214D01*
X131338587Y-92924155D01*
X131225965Y-92782457D01*
X131162976Y-92742319D01*
X130833569Y-92742319D01*
X130786767Y-92485583D01*
X131082197Y-92485583D01*
X131092364Y-92586399D01*
X131117915Y-92599689D01*
X131148997Y-92529766D01*
X131142866Y-92484793D01*
X131092364Y-92473132D01*
X131082197Y-92485583D01*
X130786767Y-92485583D01*
X130739076Y-92223970D01*
X130733495Y-92134158D01*
X130731434Y-92062542D01*
X130979097Y-92062542D01*
X130979458Y-92101233D01*
X130993481Y-92285083D01*
X131021572Y-92359866D01*
X131049811Y-92304374D01*
X131055319Y-92241509D01*
X131971396Y-92241509D01*
X132010374Y-92423878D01*
X132068128Y-92529766D01*
X132167746Y-92712411D01*
X132624316Y-93391348D01*
X132671197Y-93446879D01*
X133179900Y-94049447D01*
X133747449Y-94541350D01*
X134328869Y-94868960D01*
X134396695Y-94899689D01*
X134552483Y-94997860D01*
X134592107Y-95073985D01*
X134589750Y-95093289D01*
X134675002Y-95169407D01*
X134864770Y-95247766D01*
X135144875Y-95333950D01*
X135321807Y-95393241D01*
X135389784Y-95431776D01*
X135376377Y-95465961D01*
X135309158Y-95512201D01*
X135274182Y-95552295D01*
X135353271Y-95576920D01*
X135587626Y-95570731D01*
X135775497Y-95562785D01*
X135948064Y-95580652D01*
X135973042Y-95643333D01*
X135862347Y-95758993D01*
X135753812Y-95808277D01*
X135471664Y-95826934D01*
X135068428Y-95778004D01*
X134563959Y-95664333D01*
X133978110Y-95488769D01*
X133833839Y-95440274D01*
X133406651Y-95282155D01*
X133107419Y-95135666D01*
X132906768Y-94979591D01*
X132775323Y-94792711D01*
X132683710Y-94553808D01*
X132656435Y-94468391D01*
X132554479Y-94206422D01*
X132456160Y-94019435D01*
X132433376Y-93987252D01*
X132364922Y-93903652D01*
X132346787Y-93925927D01*
X132379340Y-94072761D01*
X132462951Y-94362839D01*
X132618544Y-94720335D01*
X132951413Y-95133569D01*
X132961241Y-95143031D01*
X133219808Y-95372895D01*
X133475596Y-95549703D01*
X133771078Y-95694384D01*
X134148724Y-95827866D01*
X134651009Y-95971080D01*
X134860290Y-96026842D01*
X135158162Y-96104948D01*
X135362860Y-96156936D01*
X135438964Y-96173699D01*
X135440020Y-96172702D01*
X135527619Y-96146402D01*
X135712923Y-96100127D01*
X135959771Y-96020264D01*
X136273895Y-95812109D01*
X136473834Y-95499248D01*
X136565991Y-95069626D01*
X136556766Y-94511187D01*
X136555379Y-94496426D01*
X136433603Y-93863650D01*
X136197940Y-93352900D01*
X135842599Y-92955211D01*
X135361788Y-92661617D01*
X135144388Y-92543873D01*
X134816092Y-92316346D01*
X134525753Y-92065595D01*
X134329135Y-91882193D01*
X134175540Y-91770695D01*
X134125939Y-91778547D01*
X134189926Y-91901302D01*
X134377091Y-92134513D01*
X134442366Y-92214097D01*
X134591997Y-92471999D01*
X134608762Y-92573588D01*
X134627779Y-92688817D01*
X134541637Y-92830398D01*
X134451494Y-92835343D01*
X134302618Y-92751622D01*
X134164459Y-92666670D01*
X134053007Y-92717930D01*
X133988801Y-92749096D01*
X133909816Y-92675399D01*
X133810619Y-92458618D01*
X133806663Y-92448628D01*
X133698139Y-92241134D01*
X133610443Y-92199105D01*
X133551415Y-92318718D01*
X133544626Y-92402341D01*
X133528893Y-92596144D01*
X133524737Y-92679777D01*
X133453967Y-92875924D01*
X133299714Y-92924786D01*
X133067231Y-92823775D01*
X132922793Y-92689895D01*
X132847994Y-92444134D01*
X132847982Y-92439947D01*
X132838956Y-92402341D01*
X133187793Y-92402341D01*
X133193719Y-92448973D01*
X133272743Y-92572240D01*
X133331270Y-92549970D01*
X133357693Y-92402341D01*
X133335370Y-92262910D01*
X133272743Y-92232441D01*
X133241650Y-92259848D01*
X133187793Y-92402341D01*
X132838956Y-92402341D01*
X132800408Y-92241737D01*
X132643676Y-92136256D01*
X132352584Y-92106317D01*
X132275241Y-92107988D01*
X132057467Y-92143486D01*
X131971396Y-92241509D01*
X131055319Y-92241509D01*
X131064047Y-92141907D01*
X131069705Y-92078430D01*
X133957593Y-92078430D01*
X134003520Y-92195286D01*
X134160660Y-92389936D01*
X134186099Y-92416685D01*
X134346475Y-92557378D01*
X134460527Y-92614715D01*
X134480795Y-92573588D01*
X134423561Y-92451823D01*
X134312722Y-92295651D01*
X134182432Y-92152384D01*
X134066844Y-92069338D01*
X134027999Y-92056856D01*
X133957593Y-92078430D01*
X131069705Y-92078430D01*
X131076193Y-92005639D01*
X131136355Y-91800266D01*
X131224245Y-91659401D01*
X131314257Y-91634925D01*
X131356800Y-91639964D01*
X131434754Y-91552355D01*
X131447430Y-91511766D01*
X131437779Y-91478578D01*
X132903788Y-91478578D01*
X132939552Y-91511766D01*
X132982718Y-91551822D01*
X133024027Y-91581189D01*
X133265007Y-91668823D01*
X133511929Y-91602969D01*
X133786254Y-91379010D01*
X134079230Y-91145333D01*
X134437473Y-90987298D01*
X134636042Y-90929207D01*
X134849809Y-90818887D01*
X134912796Y-90682800D01*
X134837079Y-90506418D01*
X134725811Y-90385594D01*
X134605886Y-90327776D01*
X134553892Y-90338211D01*
X134610703Y-90377331D01*
X134665250Y-90421135D01*
X134716890Y-90572597D01*
X134715292Y-90609039D01*
X134645938Y-90769231D01*
X134456370Y-90879706D01*
X134122241Y-90956170D01*
X133955985Y-90990976D01*
X133612562Y-91093315D01*
X133280043Y-91222305D01*
X133090809Y-91310752D01*
X133032067Y-91338208D01*
X132912534Y-91415911D01*
X132903788Y-91478578D01*
X131437779Y-91478578D01*
X131424454Y-91432753D01*
X131314743Y-91462142D01*
X131148997Y-91595317D01*
X131040295Y-91760013D01*
X130979097Y-92062542D01*
X130731434Y-92062542D01*
X130725895Y-91870058D01*
X130755433Y-91701902D01*
X130841274Y-91571172D01*
X131002582Y-91419350D01*
X131300527Y-91155570D01*
X131098360Y-90802032D01*
X130980557Y-90575243D01*
X131233947Y-90575243D01*
X131235022Y-90584840D01*
X131295330Y-90696241D01*
X131423095Y-90858753D01*
X131583453Y-91035739D01*
X131741536Y-91190560D01*
X131862481Y-91286579D01*
X131911421Y-91287157D01*
X131892429Y-91218931D01*
X131786121Y-91085618D01*
X131777237Y-91076350D01*
X132035242Y-91076350D01*
X132107119Y-91151284D01*
X132240778Y-91246528D01*
X132318761Y-91287157D01*
X132367136Y-91312360D01*
X132423244Y-91310752D01*
X132423123Y-91309492D01*
X132355331Y-91240657D01*
X132200411Y-91129052D01*
X132176711Y-91113847D01*
X132054281Y-91051662D01*
X132035242Y-91076350D01*
X131777237Y-91076350D01*
X131717479Y-91014011D01*
X131656026Y-90884080D01*
X131635450Y-90827751D01*
X131536993Y-90714254D01*
X131402945Y-90609231D01*
X131284774Y-90550342D01*
X131233947Y-90575243D01*
X130980557Y-90575243D01*
X130972775Y-90560262D01*
X130910885Y-90340767D01*
X131153410Y-90340767D01*
X131206580Y-90367524D01*
X131317193Y-90280648D01*
X131368555Y-90199708D01*
X131334312Y-90151170D01*
X131303541Y-90155652D01*
X131187979Y-90241772D01*
X131153410Y-90340767D01*
X130910885Y-90340767D01*
X130907868Y-90330067D01*
X130954975Y-90158147D01*
X131114927Y-90004514D01*
X131335707Y-89843687D01*
X131119327Y-89524834D01*
X130937505Y-89167166D01*
X130828044Y-88645253D01*
X130842637Y-88375567D01*
X131151175Y-88375567D01*
X131175496Y-88655655D01*
X131254786Y-88997934D01*
X131381081Y-89364207D01*
X131546413Y-89716276D01*
X131590479Y-89796160D01*
X131774800Y-90111819D01*
X131835685Y-90199708D01*
X131950411Y-90365317D01*
X132161803Y-90615818D01*
X132453466Y-90922484D01*
X132484452Y-90953667D01*
X132673496Y-91106347D01*
X132858159Y-91155918D01*
X133085986Y-91103832D01*
X133404521Y-90951541D01*
X133571404Y-90872458D01*
X133824065Y-90786403D01*
X134000693Y-90767734D01*
X134067433Y-90774315D01*
X134160455Y-90733818D01*
X134240213Y-90596639D01*
X134332684Y-90328400D01*
X134382662Y-90184708D01*
X134521750Y-89842983D01*
X134701629Y-89445145D01*
X134895988Y-89050868D01*
X135014513Y-88815897D01*
X135196061Y-88408526D01*
X135288609Y-88102487D01*
X135298421Y-87872451D01*
X135231763Y-87693088D01*
X135149207Y-87617166D01*
X135030038Y-87674492D01*
X135010189Y-87680305D01*
X135025496Y-87591880D01*
X135104300Y-87393970D01*
X135236568Y-87113814D01*
X135267604Y-87050341D01*
X135490482Y-86513788D01*
X135665178Y-85950611D01*
X135776662Y-85417021D01*
X135809908Y-84969230D01*
X135807362Y-84911516D01*
X135789107Y-84794624D01*
X135762412Y-84821957D01*
X135735924Y-84898352D01*
X135680980Y-84904513D01*
X135568746Y-84781147D01*
X135414196Y-84590286D01*
X134821917Y-84781042D01*
X134111096Y-85027414D01*
X133492185Y-85288834D01*
X132998181Y-85562362D01*
X132606248Y-85862956D01*
X132412336Y-86075423D01*
X132293548Y-86205577D01*
X132037247Y-86605182D01*
X131911672Y-86846136D01*
X131887318Y-86918966D01*
X131857435Y-87008332D01*
X131871267Y-87145093D01*
X131945158Y-87318449D01*
X131994369Y-87441021D01*
X132026820Y-87571409D01*
X132057616Y-87695150D01*
X132081456Y-87940023D01*
X132062785Y-88124471D01*
X131998495Y-88197324D01*
X131959416Y-88182948D01*
X131913545Y-88069899D01*
X131909678Y-88000201D01*
X131870772Y-87927647D01*
X131803501Y-87986528D01*
X131724618Y-88155058D01*
X131650878Y-88411453D01*
X131624264Y-88541115D01*
X131589385Y-88918236D01*
X131637831Y-89282064D01*
X131667333Y-89418733D01*
X131702234Y-89618894D01*
X131705147Y-89708286D01*
X131703615Y-89708828D01*
X131656095Y-89636625D01*
X131564087Y-89448187D01*
X131445953Y-89180876D01*
X131347470Y-88930161D01*
X131261997Y-88608479D01*
X131263844Y-88366401D01*
X131269547Y-88336638D01*
X131279677Y-88175884D01*
X131222313Y-88162039D01*
X131189788Y-88195869D01*
X131151175Y-88375567D01*
X130842637Y-88375567D01*
X130858504Y-88082331D01*
X130943991Y-87798394D01*
X131245891Y-87798394D01*
X131255381Y-87960067D01*
X131262437Y-87974211D01*
X131306444Y-87944470D01*
X131356709Y-87787738D01*
X131359706Y-87774099D01*
X131386445Y-87571409D01*
X131371744Y-87463350D01*
X131329164Y-87475011D01*
X131272262Y-87631481D01*
X131245891Y-87798394D01*
X130943991Y-87798394D01*
X131030351Y-87511559D01*
X131081102Y-87388400D01*
X131109675Y-87258804D01*
X131080611Y-87128647D01*
X130980908Y-86951538D01*
X130797562Y-86681087D01*
X130615664Y-86417489D01*
X130920384Y-86417489D01*
X130957305Y-86504242D01*
X131064047Y-86668227D01*
X131092520Y-86707502D01*
X131216014Y-86860925D01*
X131287991Y-86923077D01*
X131292660Y-86918966D01*
X131255739Y-86832213D01*
X131148997Y-86668227D01*
X131120524Y-86628953D01*
X130997030Y-86475529D01*
X130925053Y-86413378D01*
X130920384Y-86417489D01*
X130615664Y-86417489D01*
X130433915Y-86154106D01*
X129920720Y-86220029D01*
X129691944Y-86241360D01*
X129282497Y-86261281D01*
X128784790Y-86272218D01*
X128235688Y-86274607D01*
X127672056Y-86268885D01*
X127130759Y-86255490D01*
X126648662Y-86234859D01*
X126262632Y-86207429D01*
X126009532Y-86173637D01*
X125809165Y-86134589D01*
X125628649Y-86126782D01*
X125493992Y-86186264D01*
X125336220Y-86328945D01*
X125272186Y-86394016D01*
X125170995Y-86524548D01*
X125114648Y-86676638D01*
X125089366Y-86899721D01*
X125082890Y-87177926D01*
X125081370Y-87243233D01*
X125070563Y-87598806D01*
X125059691Y-87679906D01*
X125036356Y-87853967D01*
X124965084Y-88055788D01*
X124842971Y-88263197D01*
X124769998Y-88382503D01*
X124687050Y-88570168D01*
X124694309Y-88665475D01*
X124732252Y-88700797D01*
X124775872Y-88871649D01*
X124730749Y-89100588D01*
X124604830Y-89328704D01*
X124519717Y-89445255D01*
X124475903Y-89565847D01*
X124479816Y-89598994D01*
X124494361Y-89722204D01*
X124571928Y-89976654D01*
X124595527Y-90051319D01*
X124618094Y-90160703D01*
X124677584Y-90449047D01*
X124638491Y-90761190D01*
X124614994Y-90797397D01*
X124464948Y-91028602D01*
X124143654Y-91292139D01*
X124052731Y-91356075D01*
X123807503Y-91558448D01*
X123653925Y-91762222D01*
X123543946Y-92026211D01*
X123526964Y-92075390D01*
X123256883Y-92587467D01*
X122851853Y-92999469D01*
X122315623Y-93309176D01*
X121651941Y-93514366D01*
X120864558Y-93612821D01*
X120470137Y-93621746D01*
X119797524Y-93565125D01*
X119252712Y-93408820D01*
X118827977Y-93151081D01*
X118711959Y-93048640D01*
X118614004Y-92918085D01*
X118588426Y-92755635D01*
X118613058Y-92493451D01*
X118617123Y-92462041D01*
X118620296Y-92446864D01*
X119086121Y-92446864D01*
X119086121Y-92964068D01*
X119449739Y-93124914D01*
X119747464Y-93228176D01*
X120310568Y-93322801D01*
X120926308Y-93329320D01*
X121538059Y-93248660D01*
X122089198Y-93081747D01*
X122333329Y-92953427D01*
X122732197Y-92644138D01*
X123080509Y-92260762D01*
X123321426Y-91859668D01*
X123391402Y-91716398D01*
X123551013Y-91469706D01*
X123705092Y-91312877D01*
X123728533Y-91296619D01*
X123921631Y-91120025D01*
X124103172Y-90897915D01*
X124165400Y-90797397D01*
X124150841Y-90779005D01*
X124033933Y-90873460D01*
X123807016Y-91085618D01*
X123790366Y-91101690D01*
X123526298Y-91384562D01*
X123294006Y-91679439D01*
X123142069Y-91924998D01*
X123073337Y-92048917D01*
X122762125Y-92399760D01*
X122318319Y-92694688D01*
X121767859Y-92915014D01*
X121735329Y-92924115D01*
X121471684Y-92974602D01*
X121140518Y-93011061D01*
X120781224Y-93032679D01*
X120433198Y-93038645D01*
X120135834Y-93028148D01*
X119928526Y-93000375D01*
X119850669Y-92954515D01*
X119858457Y-92936314D01*
X119974532Y-92888669D01*
X120185455Y-92869565D01*
X120250964Y-92868171D01*
X120459271Y-92842794D01*
X120565958Y-92795593D01*
X120608128Y-92767459D01*
X120782869Y-92717986D01*
X121035819Y-92680867D01*
X121134373Y-92667401D01*
X121425699Y-92595818D01*
X121729396Y-92487251D01*
X122001167Y-92361257D01*
X122196713Y-92237393D01*
X122271739Y-92135216D01*
X122274819Y-92123073D01*
X122360568Y-92012179D01*
X122540157Y-91834818D01*
X122781438Y-91623277D01*
X123115897Y-91335852D01*
X123357779Y-91106435D01*
X123473261Y-90964396D01*
X123456631Y-90915719D01*
X123448002Y-90912277D01*
X123478070Y-90835541D01*
X123594891Y-90689646D01*
X123636281Y-90642757D01*
X123709901Y-90540336D01*
X123680213Y-90533682D01*
X123599569Y-90558440D01*
X123613834Y-90462430D01*
X123617417Y-90452715D01*
X123618298Y-90369507D01*
X123519758Y-90330661D01*
X123286853Y-90321070D01*
X123148513Y-90322255D01*
X122988030Y-90341064D01*
X122937924Y-90402984D01*
X122958929Y-90533445D01*
X122984358Y-90676041D01*
X122969437Y-90934285D01*
X122874731Y-91106648D01*
X122715252Y-91154846D01*
X122600208Y-91111018D01*
X122516806Y-90981258D01*
X122454215Y-90724582D01*
X122425474Y-90588888D01*
X122365525Y-90396589D01*
X122311613Y-90321070D01*
X122298541Y-90325385D01*
X122279153Y-90351917D01*
X122223831Y-90427623D01*
X122142719Y-90623230D01*
X122101557Y-90734161D01*
X122003387Y-90876153D01*
X121868719Y-90899317D01*
X121861265Y-90898150D01*
X121651740Y-90797920D01*
X121572739Y-90605182D01*
X121587545Y-90545659D01*
X121905246Y-90545659D01*
X121918105Y-90606703D01*
X121947089Y-90657274D01*
X121998162Y-90547734D01*
X122056460Y-90351917D01*
X122045211Y-90257919D01*
X121966448Y-90295057D01*
X121922843Y-90366383D01*
X121905246Y-90545659D01*
X121587545Y-90545659D01*
X121636486Y-90348905D01*
X121636921Y-90348034D01*
X121730608Y-90160178D01*
X121766605Y-90087458D01*
X124269361Y-90087458D01*
X124291779Y-90247802D01*
X124353010Y-90321070D01*
X124414244Y-90290182D01*
X124428326Y-90160703D01*
X124353010Y-89981271D01*
X124325987Y-89943635D01*
X124282046Y-89939150D01*
X124269361Y-90087458D01*
X121766605Y-90087458D01*
X121787631Y-90044983D01*
X121795487Y-90021861D01*
X121735663Y-89980454D01*
X121534721Y-90018980D01*
X121198799Y-90135783D01*
X120734037Y-90329208D01*
X120628613Y-90376467D01*
X120038053Y-90694430D01*
X119601747Y-91043458D01*
X119306472Y-91440545D01*
X119139005Y-91902682D01*
X119086121Y-92446864D01*
X118620296Y-92446864D01*
X118750539Y-91823832D01*
X118975086Y-91296199D01*
X119307953Y-90838193D01*
X119570255Y-90587233D01*
X120039613Y-90255464D01*
X120553057Y-89998516D01*
X121046431Y-89852754D01*
X121396847Y-89793551D01*
X121090982Y-89480318D01*
X121038745Y-89424865D01*
X120886186Y-89206974D01*
X121209867Y-89206974D01*
X121262180Y-89308900D01*
X121419300Y-89468667D01*
X121633663Y-89638809D01*
X121856661Y-89781205D01*
X122039685Y-89857735D01*
X122240387Y-89898376D01*
X122450332Y-89928536D01*
X122616585Y-89924569D01*
X122812072Y-89889471D01*
X122816212Y-89888582D01*
X123056628Y-89804127D01*
X123236821Y-89687163D01*
X123314940Y-89598994D01*
X123288767Y-89572365D01*
X123121238Y-89606039D01*
X122906308Y-89662729D01*
X122696489Y-89728393D01*
X122538225Y-89729879D01*
X122264807Y-89642713D01*
X121868228Y-89459962D01*
X121733192Y-89393900D01*
X121465113Y-89274100D01*
X121279342Y-89207438D01*
X121209867Y-89206974D01*
X120886186Y-89206974D01*
X120839240Y-89139923D01*
X120813715Y-89002932D01*
X121052709Y-89002932D01*
X121062256Y-89010343D01*
X121153233Y-88990189D01*
X121161628Y-88980826D01*
X121209867Y-88845774D01*
X121194869Y-88810627D01*
X121109343Y-88858517D01*
X121064433Y-88915657D01*
X121052709Y-89002932D01*
X120813715Y-89002932D01*
X120794470Y-88899649D01*
X120906380Y-88712137D01*
X120940477Y-88678670D01*
X120970829Y-88586549D01*
X120930558Y-88435542D01*
X120811866Y-88181895D01*
X120710702Y-87941703D01*
X120589345Y-87555110D01*
X120506755Y-87175141D01*
X120470497Y-86908653D01*
X120468481Y-86851954D01*
X120830762Y-86851954D01*
X120837321Y-87192836D01*
X120866046Y-87536128D01*
X120925944Y-87809621D01*
X121026091Y-88069899D01*
X121175442Y-88347759D01*
X121463809Y-88738467D01*
X121573262Y-88845774D01*
X121793354Y-89061550D01*
X122120349Y-89269084D01*
X122198541Y-89299693D01*
X122591585Y-89374773D01*
X122971110Y-89334210D01*
X123292530Y-89188314D01*
X123511259Y-88947398D01*
X123544157Y-88883058D01*
X123560967Y-88801586D01*
X123470920Y-88818901D01*
X123396651Y-88834483D01*
X123333612Y-88790852D01*
X123333699Y-88788292D01*
X123338783Y-88778784D01*
X124035770Y-88778784D01*
X124088159Y-88756284D01*
X124223502Y-88607684D01*
X124435208Y-88338267D01*
X124591651Y-88108302D01*
X124723666Y-87856805D01*
X124771053Y-87679906D01*
X124753911Y-87562678D01*
X124715979Y-87602675D01*
X124691373Y-87655596D01*
X124584866Y-87841367D01*
X124437934Y-88069899D01*
X124373439Y-88166840D01*
X124217076Y-88413195D01*
X124107744Y-88600836D01*
X124072926Y-88669897D01*
X124035770Y-88778784D01*
X123338783Y-88778784D01*
X123396186Y-88671429D01*
X123542533Y-88497980D01*
X123725380Y-88315371D01*
X123897370Y-88171028D01*
X124011142Y-88112374D01*
X124047877Y-88102662D01*
X124049816Y-88017927D01*
X124035509Y-87964789D01*
X124102537Y-87854820D01*
X124134785Y-87830433D01*
X124216559Y-87704748D01*
X124231159Y-87576491D01*
X124165192Y-87517725D01*
X124130601Y-87494800D01*
X124183111Y-87390301D01*
X124240941Y-87299105D01*
X124190969Y-87262876D01*
X124174958Y-87257502D01*
X124184381Y-87169576D01*
X124219511Y-87111136D01*
X124705990Y-87111136D01*
X124719201Y-87326588D01*
X124727143Y-87350691D01*
X124749194Y-87332477D01*
X124758051Y-87177926D01*
X124757229Y-87120289D01*
X124743824Y-87002825D01*
X124719201Y-87029264D01*
X124705990Y-87111136D01*
X124219511Y-87111136D01*
X124281493Y-87008026D01*
X124307660Y-86974418D01*
X124473941Y-86817134D01*
X124621169Y-86753177D01*
X124704192Y-86734700D01*
X124727446Y-86635957D01*
X124723539Y-86607386D01*
X124792075Y-86466146D01*
X124963724Y-86297100D01*
X125039883Y-86234333D01*
X125154019Y-86120538D01*
X125160034Y-86075423D01*
X125069379Y-86115650D01*
X124883382Y-86237835D01*
X124650335Y-86413378D01*
X124441087Y-86574161D01*
X124258110Y-86702667D01*
X124164992Y-86752274D01*
X124145760Y-86742371D01*
X124024689Y-86642087D01*
X123816568Y-86450923D01*
X123544239Y-86190175D01*
X123230544Y-85881135D01*
X122806517Y-85474326D01*
X122351378Y-85088962D01*
X121960444Y-84826680D01*
X121617604Y-84676996D01*
X121306749Y-84629431D01*
X121167832Y-84638407D01*
X121080436Y-84687577D01*
X121047266Y-84808722D01*
X121060194Y-85033602D01*
X121111092Y-85393980D01*
X121135999Y-85643126D01*
X121103518Y-85799358D01*
X120998608Y-85917506D01*
X120952321Y-85960359D01*
X120887514Y-86061695D01*
X120850204Y-86218726D01*
X120833563Y-86469473D01*
X120830762Y-86851954D01*
X120468481Y-86851954D01*
X120460769Y-86635040D01*
X120501972Y-86378390D01*
X120601269Y-86053708D01*
X120685387Y-85764332D01*
X120769762Y-85196546D01*
X120740178Y-84680462D01*
X120599833Y-84243535D01*
X120351925Y-83913221D01*
X120348197Y-83909889D01*
X120160598Y-83677028D01*
X120105519Y-83408131D01*
X120105705Y-83402925D01*
X120316617Y-83402925D01*
X120356875Y-83563349D01*
X120506418Y-83704394D01*
X120804192Y-83916949D01*
X121185395Y-84145868D01*
X121608166Y-84366381D01*
X122030644Y-84553719D01*
X122133663Y-84595165D01*
X122438282Y-84723258D01*
X122672170Y-84829768D01*
X122791405Y-84894993D01*
X122861786Y-84920523D01*
X122994819Y-84840593D01*
X123042620Y-84788287D01*
X123117361Y-84773112D01*
X123198840Y-84901460D01*
X123238441Y-84967736D01*
X123486543Y-85196663D01*
X123883955Y-85397753D01*
X124415544Y-85565917D01*
X125066176Y-85696067D01*
X125820718Y-85783115D01*
X125969056Y-85796373D01*
X126284298Y-85835269D01*
X126513178Y-85878758D01*
X126614067Y-85919674D01*
X126664910Y-85945093D01*
X126789865Y-85890579D01*
X126792178Y-85888665D01*
X126909507Y-85833003D01*
X126998897Y-85928929D01*
X127097403Y-86029815D01*
X127290172Y-86066580D01*
X127479164Y-85971638D01*
X127556030Y-85912537D01*
X127581104Y-85971638D01*
X127583588Y-85984716D01*
X127672649Y-86034122D01*
X127900439Y-86059441D01*
X128281940Y-86062616D01*
X128729090Y-86048244D01*
X129531432Y-85978072D01*
X130339991Y-85842942D01*
X131225068Y-85632582D01*
X131569049Y-85541351D01*
X132033187Y-85418531D01*
X132455382Y-85307098D01*
X132774511Y-85223200D01*
X132850714Y-85202324D01*
X133242184Y-85073262D01*
X133670264Y-84903619D01*
X134102171Y-84709637D01*
X134505120Y-84507563D01*
X134846328Y-84313640D01*
X135093010Y-84144113D01*
X135212382Y-84015226D01*
X135275360Y-83985089D01*
X135436163Y-83999195D01*
X135493979Y-84007435D01*
X135745601Y-83965884D01*
X136028717Y-83841156D01*
X136279574Y-83666676D01*
X136434415Y-83475866D01*
X136529526Y-83341709D01*
X136637181Y-83304377D01*
X136769305Y-83308382D01*
X136868729Y-83172246D01*
X136910145Y-82881695D01*
X136894425Y-82433780D01*
X136834342Y-81903170D01*
X136704174Y-81267976D01*
X136498340Y-80648179D01*
X136196981Y-79973726D01*
X135809175Y-79183238D01*
X135400200Y-79723482D01*
X134784059Y-80433445D01*
X134018007Y-81101676D01*
X133127146Y-81687042D01*
X132571146Y-81963080D01*
X132100200Y-82196891D01*
X132069704Y-82208361D01*
X131617984Y-82378261D01*
X131429769Y-82449052D01*
X130925892Y-82638569D01*
X130692205Y-82716549D01*
X130259218Y-82867229D01*
X129987435Y-82966591D01*
X129861215Y-83012736D01*
X129561741Y-83130170D01*
X129411469Y-83187554D01*
X129351197Y-83210570D01*
X128938610Y-83341511D01*
X128558027Y-83434990D01*
X128345037Y-83477349D01*
X127967354Y-83556988D01*
X127649202Y-83629050D01*
X127592090Y-83642501D01*
X127384900Y-83678395D01*
X127209948Y-83666745D01*
X127006733Y-83596349D01*
X126714754Y-83456002D01*
X126655263Y-83426989D01*
X126287119Y-83268927D01*
X125852493Y-83107449D01*
X125433225Y-82973375D01*
X124434770Y-82630877D01*
X124264640Y-82548160D01*
X125287458Y-82548160D01*
X125329933Y-82590635D01*
X125372408Y-82548160D01*
X125329933Y-82505685D01*
X125287458Y-82548160D01*
X124264640Y-82548160D01*
X124089917Y-82463210D01*
X126737512Y-82463210D01*
X126741721Y-82548160D01*
X126746716Y-82648986D01*
X126818658Y-82947988D01*
X126941937Y-83183348D01*
X127093998Y-83301995D01*
X127309217Y-83341707D01*
X127607696Y-83342914D01*
X127823487Y-83279736D01*
X127893961Y-83187554D01*
X127844724Y-83031772D01*
X127781853Y-82846582D01*
X127751004Y-82596220D01*
X127750969Y-82588500D01*
X127740662Y-82511796D01*
X128004461Y-82511796D01*
X128010177Y-82736030D01*
X128057329Y-82939417D01*
X128140226Y-83048771D01*
X128209811Y-83073906D01*
X128288888Y-83094363D01*
X128455462Y-83024044D01*
X128572050Y-82966591D01*
X128561531Y-82943430D01*
X128441438Y-82936405D01*
X128360737Y-82931776D01*
X128290387Y-82894446D01*
X128356488Y-82787105D01*
X128396442Y-82736511D01*
X128421670Y-82674214D01*
X128314957Y-82703118D01*
X128202434Y-82721959D01*
X128206103Y-82634073D01*
X128217412Y-82597664D01*
X128219721Y-82463210D01*
X129365050Y-82463210D01*
X129365633Y-82503283D01*
X129386738Y-82683441D01*
X129428763Y-82752380D01*
X129468017Y-82746240D01*
X129647338Y-82706803D01*
X129867275Y-82648874D01*
X130076453Y-82587317D01*
X130223494Y-82536993D01*
X130257024Y-82512767D01*
X130254889Y-82512386D01*
X130259547Y-82474604D01*
X130484425Y-82474604D01*
X130554348Y-82505685D01*
X130599320Y-82499555D01*
X130610981Y-82449052D01*
X130598530Y-82438885D01*
X130497715Y-82449052D01*
X130484425Y-82474604D01*
X130259547Y-82474604D01*
X130260522Y-82466691D01*
X130384448Y-82378261D01*
X130809198Y-82378261D01*
X130851673Y-82420735D01*
X130894147Y-82378261D01*
X130851673Y-82335786D01*
X130809198Y-82378261D01*
X130384448Y-82378261D01*
X130596823Y-82256856D01*
X130299499Y-82247139D01*
X130002174Y-82237423D01*
X130084346Y-82208361D01*
X130639298Y-82208361D01*
X130681773Y-82250836D01*
X130724248Y-82208361D01*
X130681773Y-82165886D01*
X130639298Y-82208361D01*
X130084346Y-82208361D01*
X130368520Y-82107856D01*
X130566241Y-82030762D01*
X130684579Y-81963080D01*
X130656540Y-81937246D01*
X130493668Y-81958650D01*
X130207509Y-82032682D01*
X130031979Y-82080833D01*
X129754760Y-82141977D01*
X129562007Y-82165886D01*
X129453632Y-82178726D01*
X129381800Y-82261215D01*
X129365050Y-82463210D01*
X128219721Y-82463210D01*
X128220177Y-82436647D01*
X128166981Y-82315365D01*
X128081902Y-82298812D01*
X128045874Y-82339901D01*
X128004461Y-82511796D01*
X127740662Y-82511796D01*
X127726949Y-82409753D01*
X127671778Y-82335786D01*
X127641640Y-82344367D01*
X127560717Y-82452573D01*
X127517388Y-82619077D01*
X127538159Y-82759775D01*
X127542272Y-82768141D01*
X127490235Y-82824267D01*
X127304205Y-82845485D01*
X127165912Y-82836879D01*
X127005581Y-82761848D01*
X126879875Y-82569398D01*
X126814851Y-82447206D01*
X126756764Y-82384124D01*
X126737512Y-82463210D01*
X124089917Y-82463210D01*
X123436598Y-82145567D01*
X122537492Y-81538822D01*
X121716652Y-80798469D01*
X121062439Y-80125531D01*
X120800234Y-81039521D01*
X120685684Y-81450386D01*
X120518926Y-82106550D01*
X120400154Y-82660227D01*
X120331880Y-83097118D01*
X120316617Y-83402925D01*
X120105705Y-83402925D01*
X120109967Y-83283451D01*
X120151702Y-82896274D01*
X120231357Y-82402179D01*
X120341549Y-81840183D01*
X120474894Y-81249300D01*
X120624007Y-80668544D01*
X120811186Y-79987003D01*
X121293343Y-79987003D01*
X121306770Y-80042140D01*
X121374668Y-80125280D01*
X121568755Y-80313220D01*
X121840433Y-80547033D01*
X122153406Y-80794467D01*
X122264646Y-80877153D01*
X122558152Y-81083668D01*
X122859074Y-81282224D01*
X123142691Y-81458327D01*
X123384283Y-81597483D01*
X123559129Y-81685197D01*
X123642508Y-81706976D01*
X123609699Y-81648324D01*
X123513992Y-81513313D01*
X123531727Y-81444361D01*
X123662242Y-81480310D01*
X123717277Y-81505429D01*
X123869517Y-81510522D01*
X123928261Y-81393929D01*
X123927325Y-81388460D01*
X123839442Y-81329100D01*
X123652174Y-81274320D01*
X123411957Y-81221908D01*
X123206854Y-81170367D01*
X123131966Y-81150891D01*
X123084927Y-81165325D01*
X123164379Y-81275567D01*
X123234770Y-81365788D01*
X123221564Y-81387463D01*
X123078763Y-81317723D01*
X123072291Y-81314318D01*
X122619004Y-81037863D01*
X122121076Y-80671496D01*
X121637478Y-80258554D01*
X121571860Y-80198740D01*
X121386413Y-80042283D01*
X121293343Y-79987003D01*
X120811186Y-79987003D01*
X120883589Y-79723377D01*
X120665580Y-79293157D01*
X120417893Y-78778467D01*
X120062271Y-77885032D01*
X119830435Y-77032493D01*
X119713249Y-76182990D01*
X119709244Y-75879598D01*
X119988646Y-75879598D01*
X120006256Y-76465439D01*
X120117889Y-77261475D01*
X120340260Y-77960698D01*
X120682761Y-78589655D01*
X121154788Y-79174891D01*
X121176263Y-79197538D01*
X121494365Y-79505881D01*
X121849103Y-79794568D01*
X122270677Y-80084481D01*
X122789290Y-80396498D01*
X123435140Y-80751501D01*
X123564964Y-80820415D01*
X124043132Y-81066241D01*
X124442555Y-81252136D01*
X124802154Y-81393929D01*
X124817617Y-81400026D01*
X125222706Y-81531839D01*
X125712208Y-81669497D01*
X126015367Y-81730724D01*
X126480406Y-81789837D01*
X127034602Y-81836687D01*
X127635266Y-81869567D01*
X128239707Y-81886766D01*
X128805237Y-81886573D01*
X129289166Y-81867279D01*
X129648804Y-81827174D01*
X130235601Y-81694779D01*
X131197931Y-81377971D01*
X132167194Y-80948919D01*
X133099511Y-80430405D01*
X133951004Y-79845210D01*
X134677793Y-79216117D01*
X134831805Y-79058923D01*
X135297309Y-78522852D01*
X135702995Y-77963808D01*
X136029757Y-77412911D01*
X136258488Y-76901279D01*
X136370079Y-76460030D01*
X136413474Y-76091973D01*
X136307998Y-76459594D01*
X136272038Y-76571639D01*
X136198966Y-76731725D01*
X136143775Y-76768467D01*
X136138054Y-76765533D01*
X136067957Y-76828668D01*
X135954593Y-77008524D01*
X135819561Y-77271583D01*
X135814939Y-77281271D01*
X135802131Y-77308121D01*
X135664108Y-77574169D01*
X135547257Y-77762176D01*
X135475291Y-77833445D01*
X135425681Y-77825277D01*
X135405368Y-77751259D01*
X135484427Y-77573010D01*
X135536414Y-77469571D01*
X135552521Y-77405343D01*
X135491600Y-77463100D01*
X135364679Y-77630988D01*
X135182787Y-77897157D01*
X134883620Y-78300965D01*
X134450777Y-78797647D01*
X133962186Y-79292469D01*
X133465263Y-79737730D01*
X133007422Y-80085726D01*
X132455812Y-80424243D01*
X131400781Y-80920168D01*
X130273575Y-81271383D01*
X129088142Y-81475884D01*
X127858434Y-81531669D01*
X126598402Y-81436735D01*
X125321994Y-81189079D01*
X125164134Y-81146772D01*
X124579104Y-80956344D01*
X123988205Y-80718406D01*
X123434561Y-80453129D01*
X122961298Y-80180687D01*
X122611539Y-79921249D01*
X122486077Y-79806899D01*
X122413325Y-79730647D01*
X122429234Y-79715344D01*
X122549282Y-79765426D01*
X122788948Y-79885329D01*
X123163713Y-80079490D01*
X123298151Y-80148329D01*
X124297014Y-80595520D01*
X125294371Y-80934379D01*
X126243441Y-81148666D01*
X126673991Y-81199711D01*
X127313671Y-81229124D01*
X128009742Y-81220020D01*
X128724650Y-81175799D01*
X129420841Y-81099865D01*
X130060760Y-80995619D01*
X130606855Y-80866464D01*
X131021572Y-80715802D01*
X131128378Y-80662184D01*
X131226819Y-80599243D01*
X131191472Y-80590446D01*
X130886245Y-80654779D01*
X129891353Y-80843784D01*
X129042740Y-80969090D01*
X128332069Y-81031768D01*
X127751004Y-81032891D01*
X127661354Y-81027444D01*
X127231081Y-80991267D01*
X126827030Y-80942563D01*
X126477832Y-80886491D01*
X126212120Y-80828209D01*
X126058524Y-80772876D01*
X126045678Y-80725650D01*
X126167328Y-80706913D01*
X126406397Y-80710628D01*
X126709531Y-80736468D01*
X126981526Y-80759848D01*
X127656021Y-80771007D01*
X128419824Y-80733165D01*
X129224418Y-80650715D01*
X130021287Y-80528048D01*
X130761915Y-80369558D01*
X130885129Y-80336158D01*
X131201908Y-80236011D01*
X131556299Y-80109812D01*
X131915249Y-79971091D01*
X132245705Y-79833380D01*
X132514614Y-79710209D01*
X132688923Y-79615109D01*
X132735579Y-79561610D01*
X132733073Y-79560307D01*
X132633217Y-79584260D01*
X132425095Y-79663538D01*
X132149850Y-79782614D01*
X131673343Y-79981085D01*
X130907237Y-80219131D01*
X130100309Y-80363958D01*
X129195151Y-80428107D01*
X128133278Y-80458643D01*
X129110201Y-80335727D01*
X130091637Y-80174303D01*
X131262791Y-79866711D01*
X132313296Y-79450736D01*
X132609866Y-79301950D01*
X133004718Y-79084445D01*
X133383995Y-78857028D01*
X133713619Y-78641214D01*
X133959515Y-78458518D01*
X134087608Y-78330454D01*
X134078095Y-78313045D01*
X133967564Y-78365303D01*
X133774315Y-78488819D01*
X133166584Y-78860203D01*
X132394131Y-79237793D01*
X131581508Y-79551267D01*
X130780940Y-79780776D01*
X130044649Y-79906469D01*
X129886237Y-79921350D01*
X129738094Y-79930623D01*
X129710150Y-79919202D01*
X129813508Y-79881744D01*
X130059273Y-79812910D01*
X130458545Y-79707357D01*
X131390619Y-79415132D01*
X132445818Y-78944458D01*
X133431840Y-78335289D01*
X134377091Y-77572148D01*
X134478071Y-77476445D01*
X134529549Y-77411024D01*
X134462040Y-77443388D01*
X134393893Y-77488587D01*
X134175887Y-77633973D01*
X133883060Y-77829843D01*
X133559287Y-78046866D01*
X133518068Y-78074341D01*
X133153574Y-78303844D01*
X132785288Y-78515479D01*
X132449538Y-78690214D01*
X132182654Y-78809013D01*
X132020965Y-78852843D01*
X132045358Y-78827763D01*
X132184293Y-78729877D01*
X132419050Y-78575222D01*
X132722140Y-78382248D01*
X133189667Y-78077008D01*
X134009426Y-77465945D01*
X134209739Y-77281271D01*
X135566388Y-77281271D01*
X135608863Y-77323746D01*
X135651338Y-77281271D01*
X135608863Y-77238796D01*
X135566388Y-77281271D01*
X134209739Y-77281271D01*
X134684253Y-76843803D01*
X135230486Y-76194588D01*
X135664466Y-75502309D01*
X135734997Y-75365088D01*
X135863910Y-75053592D01*
X135936993Y-74732504D01*
X135964733Y-74435032D01*
X136510157Y-74435032D01*
X136523903Y-74754013D01*
X136529584Y-74798993D01*
X136543704Y-74817787D01*
X136553536Y-74690697D01*
X136557226Y-74435451D01*
X136556738Y-74331500D01*
X136550661Y-74119618D01*
X136539097Y-74042172D01*
X136523903Y-74116889D01*
X136510157Y-74435032D01*
X135964733Y-74435032D01*
X135975279Y-74321948D01*
X136014063Y-73651964D01*
X135810305Y-73785472D01*
X135456857Y-73955023D01*
X134940418Y-74088026D01*
X134328287Y-74156271D01*
X133655017Y-74153853D01*
X133375032Y-74132876D01*
X132838289Y-74061380D01*
X132287060Y-73941821D01*
X131688154Y-73765025D01*
X131008381Y-73521821D01*
X130612597Y-73362883D01*
X132812063Y-73362883D01*
X132931531Y-73379954D01*
X133177090Y-73392128D01*
X133527592Y-73397646D01*
X133855387Y-73393623D01*
X134290643Y-73373490D01*
X134668516Y-73340134D01*
X134932786Y-73297558D01*
X135126617Y-73242036D01*
X135406551Y-73143623D01*
X135688677Y-73029864D01*
X135932285Y-72918424D01*
X136096669Y-72826971D01*
X136141119Y-72773170D01*
X136136953Y-72771560D01*
X136028657Y-72792710D01*
X135809429Y-72859707D01*
X135520799Y-72960038D01*
X135475606Y-72976194D01*
X134851193Y-73139874D01*
X134122241Y-73224470D01*
X134102587Y-73225656D01*
X133738227Y-73245592D01*
X133515840Y-73249368D01*
X133409092Y-73233190D01*
X133391650Y-73193265D01*
X133437180Y-73125802D01*
X133469695Y-73085101D01*
X133515604Y-72979855D01*
X133437180Y-72901181D01*
X133289172Y-72831822D01*
X133175408Y-72869256D01*
X133141969Y-73055016D01*
X133130880Y-73187884D01*
X133049804Y-73286200D01*
X132847994Y-73341158D01*
X132839833Y-73342672D01*
X132812063Y-73362883D01*
X130612597Y-73362883D01*
X130214549Y-73203036D01*
X130051751Y-73135271D01*
X129646227Y-72967916D01*
X129299833Y-72826968D01*
X129045066Y-72725577D01*
X128914420Y-72676895D01*
X128881070Y-72657232D01*
X128755233Y-72514635D01*
X128595110Y-72271032D01*
X128427189Y-71965116D01*
X128338243Y-71790617D01*
X128189994Y-71525421D01*
X128066569Y-71363788D01*
X127937789Y-71270957D01*
X127773471Y-71212164D01*
X127738357Y-71202732D01*
X127468595Y-71146218D01*
X127247734Y-71122881D01*
X127041789Y-71122408D01*
X127215881Y-71313545D01*
X127292141Y-71401672D01*
X127511247Y-71759709D01*
X127581104Y-72125819D01*
X127543329Y-72347753D01*
X127391866Y-72516178D01*
X127101025Y-72615848D01*
X126960983Y-72633469D01*
X126834605Y-72601911D01*
X126727984Y-72488329D01*
X126617676Y-72265998D01*
X126480235Y-71908194D01*
X126474126Y-71891550D01*
X126347515Y-71588820D01*
X126237338Y-71425895D01*
X126126599Y-71377257D01*
X126108252Y-71377720D01*
X126033411Y-71403968D01*
X125990740Y-71495633D01*
X125971526Y-71687507D01*
X125967057Y-72014381D01*
X125966054Y-72150463D01*
X125948683Y-72458058D01*
X125904681Y-72613905D01*
X125827506Y-72630955D01*
X125710616Y-72522162D01*
X125626615Y-72458755D01*
X125454316Y-72440096D01*
X125306021Y-72450667D01*
X125149370Y-72340497D01*
X125062416Y-72104546D01*
X125060553Y-71964856D01*
X125302582Y-71964856D01*
X125361679Y-72092700D01*
X125395373Y-72075546D01*
X125448986Y-71936700D01*
X125493979Y-71700745D01*
X125510210Y-71585196D01*
X125576577Y-71262065D01*
X125671115Y-71069525D01*
X125816088Y-70976728D01*
X126033758Y-70952825D01*
X126094598Y-70953897D01*
X126250523Y-70978118D01*
X126388862Y-71055734D01*
X126548580Y-71214898D01*
X126768642Y-71483762D01*
X126816050Y-71543714D01*
X127016766Y-71796629D01*
X127173483Y-71992689D01*
X127255621Y-72093601D01*
X127278938Y-72114654D01*
X127291455Y-72072535D01*
X127255162Y-71933986D01*
X127184464Y-71740331D01*
X127093765Y-71532896D01*
X126997471Y-71353005D01*
X126970197Y-71310467D01*
X126815903Y-71103797D01*
X126640731Y-70906790D01*
X126476372Y-70750248D01*
X126354517Y-70664973D01*
X126306856Y-70681765D01*
X126301767Y-70716063D01*
X126221907Y-70782608D01*
X126173498Y-70753017D01*
X126136957Y-70617722D01*
X126150543Y-70520153D01*
X126221907Y-70400334D01*
X126253880Y-70386062D01*
X126306856Y-70422062D01*
X126312612Y-70439264D01*
X126415692Y-70531044D01*
X126607063Y-70639450D01*
X126691522Y-70671486D01*
X126995395Y-70734206D01*
X127398255Y-70773312D01*
X127850694Y-70786717D01*
X128303308Y-70772336D01*
X128706689Y-70728084D01*
X128761888Y-70718591D01*
X128969079Y-70670173D01*
X129018060Y-70630867D01*
X128918660Y-70603886D01*
X128680706Y-70592440D01*
X128314026Y-70599743D01*
X128040396Y-70604958D01*
X127416181Y-70568937D01*
X126870192Y-70469635D01*
X126444439Y-70313486D01*
X126204841Y-70212759D01*
X126028169Y-70203629D01*
X125967057Y-70308867D01*
X125965585Y-70325205D01*
X125909769Y-70455274D01*
X125899377Y-70479492D01*
X125765159Y-70669903D01*
X125649540Y-70832192D01*
X125499753Y-71122317D01*
X125383846Y-71436547D01*
X125314047Y-71731766D01*
X125302582Y-71964856D01*
X125060553Y-71964856D01*
X125057882Y-71764496D01*
X125075746Y-71617907D01*
X125118855Y-71356001D01*
X125161673Y-71187301D01*
X125170848Y-71160011D01*
X125146008Y-71042463D01*
X124977712Y-70947785D01*
X124853480Y-70907286D01*
X124720653Y-70919933D01*
X124608040Y-71050784D01*
X124450430Y-71272741D01*
X124054697Y-71684434D01*
X123630975Y-71933932D01*
X123467548Y-71990690D01*
X123255613Y-72031973D01*
X123015645Y-72026007D01*
X122679248Y-71975802D01*
X122554795Y-71953369D01*
X122113809Y-71864783D01*
X121696088Y-71768520D01*
X121349777Y-71676221D01*
X121123022Y-71599528D01*
X121064941Y-71603450D01*
X120993572Y-71686223D01*
X120904909Y-71871019D01*
X120789279Y-72178318D01*
X120637009Y-72628601D01*
X120509459Y-73021193D01*
X120322040Y-73629313D01*
X120184615Y-74135877D01*
X120089872Y-74577536D01*
X120030502Y-74990942D01*
X119999197Y-75412746D01*
X119988646Y-75879598D01*
X119709244Y-75879598D01*
X119701575Y-75298660D01*
X119703488Y-75253440D01*
X119728577Y-74810657D01*
X119768222Y-74454297D01*
X119834377Y-74123245D01*
X119939002Y-73756388D01*
X120094051Y-73292612D01*
X120108498Y-73250789D01*
X120239834Y-72864596D01*
X120346871Y-72539422D01*
X120418926Y-72308357D01*
X120445318Y-72204488D01*
X120425773Y-72142972D01*
X120347528Y-72199459D01*
X120214328Y-72398908D01*
X120031362Y-72733310D01*
X120014719Y-72767054D01*
X119803820Y-73194656D01*
X119637563Y-73529815D01*
X119399658Y-73973779D01*
X119164914Y-74378421D01*
X118965973Y-74685652D01*
X118766248Y-74994936D01*
X118627615Y-75269017D01*
X118576422Y-75457937D01*
X118570413Y-75546551D01*
X118525543Y-75807568D01*
X118451209Y-76098747D01*
X118325996Y-76514798D01*
X118659562Y-76855560D01*
X118779195Y-76988357D01*
X118985717Y-77264823D01*
X119124575Y-77512154D01*
X119129550Y-77524288D01*
X119237266Y-77985843D01*
X119235696Y-78349248D01*
X119234982Y-78514477D01*
X119132324Y-79058443D01*
X118938921Y-79565996D01*
X118710662Y-79914715D01*
X118664401Y-79985390D01*
X118501852Y-80232912D01*
X118368509Y-80671837D01*
X118301478Y-80957006D01*
X118111054Y-81297197D01*
X117818320Y-81502465D01*
X117424927Y-81571237D01*
X117401190Y-81571171D01*
X117138141Y-81549276D01*
X116947583Y-81462573D01*
X116744498Y-81273913D01*
X116678330Y-81208169D01*
X116454532Y-81040524D01*
X116267243Y-80976271D01*
X116244043Y-80975221D01*
X116029098Y-80919869D01*
X115792261Y-80806371D01*
X115756441Y-80785309D01*
X115529112Y-80679764D01*
X115527019Y-80679264D01*
X116112877Y-80679264D01*
X116155351Y-80721739D01*
X116197826Y-80679264D01*
X116155351Y-80636789D01*
X116112877Y-80679264D01*
X115527019Y-80679264D01*
X115349204Y-80636789D01*
X115283958Y-80615385D01*
X115102217Y-80496038D01*
X114858439Y-80295053D01*
X114586412Y-80038914D01*
X114355853Y-79800954D01*
X114123604Y-79527702D01*
X113981976Y-79300168D01*
X113905961Y-79083228D01*
X113898439Y-79049513D01*
X113875957Y-78877105D01*
X114080125Y-78877105D01*
X114116615Y-79022742D01*
X114188668Y-79222675D01*
X114379963Y-79525585D01*
X114619111Y-79699625D01*
X114752166Y-79775977D01*
X114869100Y-79914065D01*
X114933527Y-79997924D01*
X115099065Y-79997892D01*
X115224945Y-79992605D01*
X115382367Y-80081047D01*
X115596133Y-80289359D01*
X115604998Y-80298954D01*
X115815633Y-80517789D01*
X115938162Y-80615792D01*
X115992172Y-80602670D01*
X115997250Y-80488127D01*
X116002209Y-80414259D01*
X116083771Y-80353154D01*
X116247389Y-80411274D01*
X116475819Y-80580304D01*
X116576371Y-80679264D01*
X116751814Y-80851929D01*
X116846239Y-80953976D01*
X117046190Y-81153791D01*
X117202444Y-81262460D01*
X117364055Y-81307490D01*
X117580075Y-81316388D01*
X117711968Y-81311656D01*
X117905619Y-81281056D01*
X117981773Y-81231438D01*
X117979444Y-81211249D01*
X117900672Y-81146488D01*
X117826915Y-81091769D01*
X117773105Y-80886752D01*
X117758898Y-80544075D01*
X117784752Y-80078961D01*
X117803800Y-79914715D01*
X118066723Y-79914715D01*
X118076307Y-79973334D01*
X118151673Y-80042140D01*
X118190752Y-80027764D01*
X118236622Y-79914715D01*
X118227038Y-79856096D01*
X118151673Y-79787291D01*
X118112593Y-79801667D01*
X118066723Y-79914715D01*
X117803800Y-79914715D01*
X117851127Y-79506630D01*
X117856962Y-79464707D01*
X118169142Y-79464707D01*
X118180362Y-79638628D01*
X118209859Y-79653039D01*
X118223209Y-79532441D01*
X118211368Y-79415582D01*
X118180362Y-79426254D01*
X118169142Y-79464707D01*
X117856962Y-79464707D01*
X117902036Y-79140888D01*
X118249969Y-79140888D01*
X118270248Y-79254584D01*
X118299247Y-79253269D01*
X118314866Y-79143088D01*
X118301262Y-79059587D01*
X118263542Y-79091764D01*
X118249969Y-79140888D01*
X117902036Y-79140888D01*
X117907525Y-79101451D01*
X117964423Y-78689211D01*
X118010779Y-78349738D01*
X118040040Y-78130769D01*
X118043072Y-78108020D01*
X118097306Y-77840675D01*
X118160749Y-77724835D01*
X118224617Y-77766343D01*
X118280129Y-77971042D01*
X118332297Y-78254962D01*
X118368001Y-78377836D01*
X118389545Y-78340431D01*
X118399815Y-78146993D01*
X118403438Y-78064044D01*
X118436751Y-77900521D01*
X118496206Y-77894479D01*
X118572961Y-78039663D01*
X118658174Y-78329815D01*
X118689902Y-78474649D01*
X118712458Y-78704363D01*
X118678585Y-78933689D01*
X118612468Y-79143088D01*
X118581760Y-79240344D01*
X118494185Y-79491167D01*
X118481035Y-79532441D01*
X118431165Y-79688962D01*
X118423405Y-79768139D01*
X118470329Y-79752149D01*
X118571362Y-79664445D01*
X118724127Y-79455993D01*
X118865201Y-79122900D01*
X118963827Y-78734270D01*
X119000697Y-78349248D01*
X118955582Y-77841317D01*
X118804603Y-77413458D01*
X118540595Y-77086128D01*
X118254045Y-76834534D01*
X117756872Y-77003101D01*
X117624881Y-77044187D01*
X116939502Y-77161023D01*
X116186361Y-77147131D01*
X115399136Y-77002518D01*
X115320833Y-76981549D01*
X114984716Y-76880224D01*
X114769845Y-76783713D01*
X114637548Y-76669913D01*
X114549153Y-76516722D01*
X114499798Y-76483249D01*
X114412518Y-76578098D01*
X114305362Y-76807388D01*
X114188119Y-77153846D01*
X114152390Y-77277320D01*
X114102869Y-77498063D01*
X114092469Y-77701661D01*
X114121252Y-77948926D01*
X114189280Y-78300669D01*
X114211527Y-78408791D01*
X114281848Y-78766349D01*
X114314836Y-78982567D01*
X114310513Y-79077154D01*
X114268900Y-79069817D01*
X114190017Y-78980267D01*
X114111095Y-78883199D01*
X114080125Y-78877105D01*
X113875957Y-78877105D01*
X113832426Y-78543288D01*
X113829027Y-77980181D01*
X113883146Y-77415553D01*
X113989683Y-76904768D01*
X114143541Y-76503189D01*
X114180487Y-76409476D01*
X114172557Y-76241069D01*
X114070849Y-76000684D01*
X113984134Y-75806932D01*
X113966972Y-75729664D01*
X114122674Y-75729664D01*
X114326618Y-75894808D01*
X114481494Y-75988187D01*
X114726323Y-76010819D01*
X114780266Y-75998801D01*
X114889711Y-76013717D01*
X114901593Y-76144386D01*
X114907924Y-76244581D01*
X114999194Y-76342723D01*
X115220903Y-76426185D01*
X115427875Y-76477072D01*
X115572218Y-76471796D01*
X115672678Y-76393578D01*
X115722582Y-76338748D01*
X115760666Y-76335850D01*
X115739090Y-76478276D01*
X115693528Y-76694680D01*
X116391664Y-76690651D01*
X116985619Y-76652758D01*
X117599499Y-76513265D01*
X118109198Y-76339908D01*
X118158962Y-75748716D01*
X118239545Y-75219898D01*
X118406893Y-74703053D01*
X118643374Y-74311135D01*
X118731117Y-74205000D01*
X118732570Y-74187928D01*
X118612208Y-74286789D01*
X118435647Y-74410451D01*
X118343054Y-74417933D01*
X118353985Y-74303614D01*
X118369624Y-74232512D01*
X118311931Y-74229035D01*
X118204917Y-74348580D01*
X118090278Y-74612736D01*
X118008869Y-74960985D01*
X117974985Y-75345933D01*
X117968198Y-75837123D01*
X117806484Y-75200000D01*
X117730557Y-74884779D01*
X117664983Y-74527577D01*
X117656585Y-74277057D01*
X117705502Y-74101261D01*
X117811873Y-73968227D01*
X117923546Y-73838837D01*
X117959537Y-73753151D01*
X119118171Y-73753151D01*
X119130448Y-73749443D01*
X119292636Y-73628418D01*
X119452859Y-73406413D01*
X119568307Y-73141586D01*
X119596495Y-73042948D01*
X119644399Y-72851645D01*
X119654736Y-72767054D01*
X119654617Y-72766949D01*
X119608565Y-72827608D01*
X119507080Y-73001770D01*
X119371916Y-73252128D01*
X119370359Y-73255096D01*
X119239463Y-73507079D01*
X119148892Y-73685948D01*
X119118171Y-73753151D01*
X117959537Y-73753151D01*
X117981773Y-73700211D01*
X118052652Y-73615829D01*
X118257860Y-73577485D01*
X118404114Y-73569967D01*
X118446064Y-73551341D01*
X118339805Y-73513773D01*
X118145663Y-73458528D01*
X118322182Y-73307602D01*
X118427846Y-73181478D01*
X118444906Y-73069635D01*
X118440298Y-73058885D01*
X118476173Y-72939089D01*
X118605948Y-72783489D01*
X118631649Y-72758940D01*
X118748909Y-72617780D01*
X118769395Y-72532995D01*
X118771950Y-72502292D01*
X118884773Y-72481605D01*
X118904814Y-72481079D01*
X119018637Y-72425026D01*
X119047593Y-72248650D01*
X119044966Y-72226756D01*
X119723244Y-72226756D01*
X119724288Y-72379530D01*
X119729905Y-72575034D01*
X119738757Y-72651505D01*
X119756721Y-72622798D01*
X119804884Y-72492034D01*
X119882503Y-72365913D01*
X120053762Y-72166049D01*
X120277833Y-71943527D01*
X120488800Y-71737266D01*
X120641773Y-71564485D01*
X120700168Y-71465874D01*
X120693223Y-71425476D01*
X120601084Y-71379431D01*
X120427659Y-71436905D01*
X120205961Y-71589632D01*
X120163668Y-71623946D01*
X119974202Y-71750717D01*
X119838406Y-71802006D01*
X119793821Y-71818384D01*
X119739993Y-71949022D01*
X119723244Y-72226756D01*
X119044966Y-72226756D01*
X119034403Y-72138742D01*
X118941923Y-71994639D01*
X118725084Y-71865707D01*
X118651635Y-71828556D01*
X118476537Y-71712885D01*
X118406522Y-71620581D01*
X118440382Y-71582183D01*
X118605597Y-71567315D01*
X118880687Y-71602195D01*
X119234783Y-71684444D01*
X119256407Y-71690071D01*
X119399135Y-71695504D01*
X119411790Y-71619990D01*
X119301301Y-71480430D01*
X119074598Y-71293726D01*
X119003278Y-71239622D01*
X118758884Y-71021982D01*
X118539867Y-70784813D01*
X118382130Y-70569832D01*
X118321572Y-70418754D01*
X118330448Y-70406748D01*
X118423979Y-70445021D01*
X118586605Y-70565767D01*
X118663809Y-70629318D01*
X119024257Y-70876200D01*
X119338920Y-70991674D01*
X119640661Y-70988934D01*
X119678936Y-70981074D01*
X119861397Y-70920272D01*
X119935619Y-70853091D01*
X119942054Y-70826412D01*
X120020569Y-70825083D01*
X120061228Y-70835357D01*
X120105519Y-70756603D01*
X120105519Y-70756369D01*
X120113703Y-70731910D01*
X120421565Y-70731910D01*
X120695504Y-70960604D01*
X120836732Y-71062204D01*
X121133220Y-71232055D01*
X121450691Y-71377004D01*
X121621839Y-71435311D01*
X121754197Y-71465874D01*
X122044070Y-71532809D01*
X122507539Y-71593072D01*
X122961370Y-71612826D01*
X123354683Y-71588796D01*
X123636602Y-71517706D01*
X123731927Y-71462875D01*
X123960038Y-71278316D01*
X124174677Y-71048106D01*
X124452237Y-70697659D01*
X124228505Y-70697659D01*
X124169894Y-70694982D01*
X123872428Y-70618600D01*
X123597637Y-70465421D01*
X123419134Y-70273977D01*
X123402701Y-70240833D01*
X123386589Y-70092585D01*
X123432013Y-70030350D01*
X123926466Y-70030350D01*
X123940301Y-70142953D01*
X124045981Y-70290642D01*
X124311211Y-70412511D01*
X124317970Y-70414523D01*
X124554583Y-70465422D01*
X124839216Y-70500603D01*
X125128596Y-70518624D01*
X125379449Y-70518038D01*
X125548504Y-70497403D01*
X125592487Y-70455274D01*
X125585291Y-70448154D01*
X125458169Y-70406797D01*
X125214712Y-70366049D01*
X124899898Y-70333797D01*
X124577496Y-70299987D01*
X124266528Y-70231113D01*
X124080311Y-70130195D01*
X123974466Y-70038861D01*
X123926466Y-70030350D01*
X123432013Y-70030350D01*
X123501565Y-69935057D01*
X123752117Y-69790608D01*
X124080463Y-69789572D01*
X124471410Y-69939146D01*
X124491796Y-69949945D01*
X124745555Y-70051380D01*
X124884943Y-70029806D01*
X124917723Y-69989857D01*
X124931202Y-69849645D01*
X124802120Y-69728066D01*
X124551427Y-69649040D01*
X124355254Y-69600349D01*
X124038835Y-69490098D01*
X123715887Y-69351150D01*
X123511428Y-69244903D01*
X122928474Y-68825883D01*
X122474444Y-68296508D01*
X122149694Y-67657424D01*
X121954582Y-66909277D01*
X121889465Y-66052711D01*
X121889408Y-66001119D01*
X121886111Y-65816424D01*
X122115960Y-65816424D01*
X122125733Y-66147204D01*
X122162075Y-66537076D01*
X122219560Y-66938083D01*
X122292760Y-67302272D01*
X122376250Y-67581686D01*
X122448281Y-67750450D01*
X122822130Y-68364407D01*
X123324113Y-68879353D01*
X123936944Y-69280264D01*
X124643338Y-69552117D01*
X124911396Y-69630162D01*
X125096130Y-69708315D01*
X125186003Y-69797808D01*
X125199721Y-69849645D01*
X125219201Y-69923251D01*
X125231677Y-69996866D01*
X125313176Y-70122299D01*
X125507069Y-70171060D01*
X125700638Y-70160754D01*
X125878507Y-70064873D01*
X125937498Y-70009359D01*
X126157545Y-69936022D01*
X126408258Y-69983500D01*
X126630775Y-70145485D01*
X126640670Y-70156678D01*
X126797629Y-70295181D01*
X126922181Y-70345131D01*
X127157636Y-70315526D01*
X127377888Y-70271070D01*
X127475377Y-70202522D01*
X127477486Y-70084511D01*
X127411597Y-69891667D01*
X127396756Y-69851358D01*
X127393500Y-69832817D01*
X127766171Y-69832817D01*
X127816945Y-70027159D01*
X127960314Y-70241600D01*
X128178801Y-70485284D01*
X128125482Y-70251231D01*
X128123290Y-70241485D01*
X128110324Y-70085890D01*
X128185179Y-69984989D01*
X128385126Y-69886414D01*
X128617060Y-69805783D01*
X128952242Y-69711199D01*
X129307657Y-69627113D01*
X129339751Y-69620322D01*
X129696113Y-69537984D01*
X129957825Y-69454623D01*
X130192911Y-69344069D01*
X130469398Y-69180149D01*
X130681773Y-69047805D01*
X130511873Y-69248463D01*
X130379562Y-69380369D01*
X130135072Y-69572733D01*
X129862454Y-69750960D01*
X129613359Y-69882077D01*
X129439437Y-69933110D01*
X129351719Y-69948014D01*
X129179140Y-70046206D01*
X129041014Y-70137479D01*
X128823249Y-70220240D01*
X128818547Y-70221431D01*
X128663503Y-70276943D01*
X128624683Y-70325407D01*
X128644005Y-70332900D01*
X128785525Y-70322073D01*
X129004453Y-70269104D01*
X129226176Y-70221290D01*
X129496248Y-70243446D01*
X129653881Y-70381876D01*
X129688552Y-70630867D01*
X129688574Y-70631023D01*
X129682911Y-70679602D01*
X129638838Y-70836277D01*
X129534391Y-70946011D01*
X129333970Y-71034554D01*
X129001974Y-71127655D01*
X128795381Y-71184178D01*
X128675132Y-71250339D01*
X128646211Y-71360381D01*
X128699585Y-71552108D01*
X128826223Y-71863321D01*
X128903947Y-71993899D01*
X129078943Y-72159853D01*
X129353142Y-72330149D01*
X129743110Y-72513339D01*
X130265415Y-72717972D01*
X130936622Y-72952600D01*
X131173232Y-73029279D01*
X131571907Y-73147135D01*
X131922212Y-73237661D01*
X132168395Y-73285775D01*
X132226558Y-73292978D01*
X132392572Y-73310704D01*
X132422933Y-73302059D01*
X132308709Y-73259241D01*
X132040970Y-73174448D01*
X131937331Y-73141994D01*
X131515541Y-73002480D01*
X131232217Y-72883128D01*
X131066425Y-72762639D01*
X130997226Y-72619712D01*
X131003687Y-72433046D01*
X131042288Y-72274244D01*
X133357693Y-72274244D01*
X133364293Y-72334951D01*
X133440993Y-72389887D01*
X133612542Y-72310405D01*
X133624054Y-72302762D01*
X133696373Y-72225026D01*
X133616598Y-72147411D01*
X133550731Y-72113785D01*
X133411509Y-72125091D01*
X133357693Y-72274244D01*
X131042288Y-72274244D01*
X131064870Y-72181340D01*
X131141267Y-71968054D01*
X131225350Y-71824893D01*
X131291860Y-71789401D01*
X131318897Y-71886956D01*
X131350756Y-71936331D01*
X131488796Y-71971906D01*
X131589167Y-71995061D01*
X131658696Y-72117534D01*
X131659406Y-72156574D01*
X131685994Y-72216781D01*
X131780531Y-72138772D01*
X131867361Y-72015163D01*
X131955124Y-71798759D01*
X131960824Y-71773418D01*
X131959147Y-71628834D01*
X131869339Y-71488886D01*
X131663390Y-71306294D01*
X131478166Y-71134191D01*
X131333827Y-70890599D01*
X131355643Y-70664295D01*
X131542727Y-70448975D01*
X131732616Y-70319504D01*
X131881610Y-70295540D01*
X132013540Y-70403040D01*
X132168395Y-70655184D01*
X132250054Y-70793515D01*
X132378244Y-70968888D01*
X132466654Y-71037458D01*
X132531015Y-71093959D01*
X132574292Y-71257421D01*
X132597365Y-71416922D01*
X132641165Y-71556131D01*
X132720520Y-71603483D01*
X132808045Y-71536421D01*
X132847994Y-71382645D01*
X132867349Y-71285544D01*
X132977336Y-71120816D01*
X133038801Y-71042341D01*
X133056283Y-70854687D01*
X133041022Y-70769843D01*
X133037973Y-70550383D01*
X133059043Y-70286392D01*
X133097293Y-70031468D01*
X133145785Y-69839208D01*
X133197581Y-69763210D01*
X133211141Y-69768406D01*
X133255989Y-69876907D01*
X133275444Y-70081772D01*
X133275586Y-70096934D01*
X133284852Y-70285233D01*
X133317928Y-70328880D01*
X133390997Y-70251672D01*
X133482167Y-70149150D01*
X133578644Y-70115272D01*
X133612542Y-70235448D01*
X133625745Y-70295895D01*
X133703210Y-70311851D01*
X133768545Y-70314199D01*
X133839145Y-70428918D01*
X133933524Y-70568945D01*
X134120416Y-70684293D01*
X134166878Y-70702530D01*
X134337023Y-70839339D01*
X134442925Y-71093148D01*
X134452855Y-71130407D01*
X134502941Y-71298216D01*
X134527626Y-71313112D01*
X134538210Y-71186120D01*
X134564937Y-71025987D01*
X134622690Y-70952508D01*
X134705340Y-70991721D01*
X134883423Y-71114698D01*
X135109595Y-71292307D01*
X135311386Y-71447930D01*
X135516009Y-71580955D01*
X135641289Y-71632107D01*
X135661261Y-71613118D01*
X135590896Y-71523410D01*
X135420508Y-71384891D01*
X135268291Y-71256631D01*
X135247035Y-71228351D01*
X136247189Y-71228351D01*
X136285102Y-71285532D01*
X136423660Y-71449228D01*
X136570931Y-71613118D01*
X136645769Y-71696402D01*
X136932383Y-72005929D01*
X137139810Y-72225026D01*
X137264456Y-72356685D01*
X137530221Y-72639665D01*
X137835862Y-72979231D01*
X138083099Y-73270200D01*
X138251611Y-73488470D01*
X138321078Y-73609938D01*
X138322387Y-73616356D01*
X138361877Y-73798943D01*
X138425830Y-74084540D01*
X138501057Y-74414214D01*
X138513313Y-74467070D01*
X138582767Y-74752704D01*
X138637154Y-74953961D01*
X138665589Y-75030100D01*
X138695792Y-74958909D01*
X138737282Y-74785161D01*
X138781012Y-74579172D01*
X138840050Y-74325946D01*
X138846382Y-74299192D01*
X138844312Y-74138408D01*
X138724579Y-74057953D01*
X138551084Y-73948330D01*
X138509163Y-73772421D01*
X138623842Y-73567177D01*
X138727297Y-73447436D01*
X138737072Y-73369786D01*
X138632053Y-73295633D01*
X138387813Y-73134749D01*
X138042565Y-72874758D01*
X137657500Y-72561825D01*
X137274581Y-72231210D01*
X136935772Y-71918174D01*
X136683038Y-71657977D01*
X136627198Y-71595164D01*
X136434138Y-71387346D01*
X136298643Y-71256376D01*
X136247189Y-71228351D01*
X135247035Y-71228351D01*
X135135478Y-71079933D01*
X136161037Y-71079933D01*
X136203512Y-71122408D01*
X136245987Y-71079933D01*
X136203512Y-71037458D01*
X136161037Y-71079933D01*
X135135478Y-71079933D01*
X134962149Y-70849330D01*
X134730295Y-70293984D01*
X134572379Y-69589235D01*
X134488053Y-68733727D01*
X134480429Y-68040833D01*
X134817150Y-68040833D01*
X134823392Y-68554370D01*
X134841348Y-69045744D01*
X134870169Y-69478073D01*
X134909002Y-69814473D01*
X134956997Y-70018060D01*
X134990031Y-70091285D01*
X135026641Y-70126614D01*
X135044461Y-70030787D01*
X135051305Y-69784448D01*
X135057302Y-69612059D01*
X135077862Y-69415132D01*
X135106785Y-69338461D01*
X135186736Y-69392546D01*
X135316333Y-69529598D01*
X135419141Y-69646514D01*
X135468869Y-69660583D01*
X135480513Y-69550836D01*
X135491276Y-69528138D01*
X135561391Y-69588935D01*
X135684035Y-69771112D01*
X135844376Y-70054148D01*
X136009058Y-70341229D01*
X136365059Y-70858457D01*
X136554140Y-71079933D01*
X136754486Y-71314605D01*
X137147556Y-71676555D01*
X137514484Y-71911190D01*
X137644482Y-71975908D01*
X137866774Y-72107927D01*
X137995809Y-72214648D01*
X138059831Y-72271646D01*
X138201382Y-72268273D01*
X138272180Y-72243406D01*
X138262765Y-72331502D01*
X138258588Y-72406860D01*
X138353619Y-72471494D01*
X138588128Y-72520542D01*
X138698022Y-72539997D01*
X138888866Y-72592884D01*
X138964382Y-72644930D01*
X139030256Y-72679600D01*
X139197994Y-72668506D01*
X139330086Y-72647543D01*
X139379473Y-72671262D01*
X139305848Y-72776284D01*
X139263608Y-72827059D01*
X139231675Y-72878197D01*
X139261557Y-72897769D01*
X139379423Y-72885197D01*
X139611442Y-72839901D01*
X139983780Y-72761304D01*
X140039006Y-72750352D01*
X140114127Y-72749633D01*
X140070541Y-72807839D01*
X139898830Y-72945378D01*
X139857697Y-72976384D01*
X139568576Y-73172561D01*
X139282943Y-73339414D01*
X139214294Y-73376619D01*
X139008306Y-73528368D01*
X138967365Y-73648452D01*
X139089439Y-73727429D01*
X139372499Y-73755853D01*
X139387214Y-73755853D01*
X139539743Y-73753330D01*
X139670588Y-73736747D01*
X139806825Y-73692595D01*
X139975529Y-73607362D01*
X140203779Y-73467537D01*
X140518649Y-73259609D01*
X140947215Y-72970067D01*
X141060746Y-72898411D01*
X141289416Y-72782289D01*
X141451745Y-72736455D01*
X141532820Y-72747040D01*
X141578191Y-72822885D01*
X141551870Y-73012542D01*
X141479128Y-73262342D01*
X141367399Y-73533147D01*
X141322948Y-73615453D01*
X141231431Y-73720059D01*
X141092752Y-73750993D01*
X140846694Y-73731153D01*
X140681636Y-73718501D01*
X140453345Y-73737262D01*
X140198183Y-73814127D01*
X139856355Y-73963101D01*
X139261706Y-74241561D01*
X139383563Y-74299192D01*
X139500890Y-74354681D01*
X139740074Y-74467800D01*
X139458415Y-74613584D01*
X139176756Y-74759368D01*
X139516555Y-74816741D01*
X139602026Y-74831299D01*
X139847093Y-74878402D01*
X139940941Y-74915884D01*
X139897057Y-74956113D01*
X139728930Y-75011456D01*
X139431606Y-75099727D01*
X139707693Y-75107388D01*
X139832048Y-75118010D01*
X139966135Y-75171527D01*
X139940286Y-75249188D01*
X139750168Y-75328441D01*
X139516555Y-75390351D01*
X139813880Y-75501087D01*
X140111204Y-75611823D01*
X139813880Y-75625948D01*
X139516555Y-75640072D01*
X139813880Y-75727604D01*
X139995084Y-75788384D01*
X140032770Y-75833394D01*
X139941305Y-75883871D01*
X139856923Y-75929621D01*
X139877592Y-75958577D01*
X139880118Y-75958733D01*
X139977385Y-76009123D01*
X139956847Y-76092023D01*
X139835117Y-76137458D01*
X139790897Y-76140746D01*
X139770941Y-76175806D01*
X139898830Y-76261873D01*
X140111204Y-76383277D01*
X139892568Y-76386287D01*
X139673933Y-76389297D01*
X139881328Y-77005184D01*
X139926465Y-77144432D01*
X140078862Y-77697203D01*
X140203246Y-78274820D01*
X140287776Y-78816478D01*
X140320615Y-79261368D01*
X140320725Y-79286116D01*
X140306854Y-79511357D01*
X140269014Y-79578788D01*
X140213438Y-79497025D01*
X140146354Y-79274681D01*
X140073995Y-78920371D01*
X140048937Y-78786823D01*
X139915078Y-78221844D01*
X139732983Y-77601277D01*
X139521351Y-76980973D01*
X139298882Y-76416780D01*
X139084278Y-75964548D01*
X139046577Y-75895451D01*
X138923495Y-75679569D01*
X138850159Y-75567424D01*
X138841347Y-75582274D01*
X138846285Y-75597097D01*
X138903218Y-75763701D01*
X139001568Y-76048383D01*
X139128943Y-76415352D01*
X139272950Y-76828818D01*
X139414653Y-77251862D01*
X139594117Y-77839043D01*
X139749326Y-78405441D01*
X139871532Y-78916444D01*
X139951987Y-79337438D01*
X139981941Y-79633811D01*
X139982499Y-79651026D01*
X140070281Y-79882774D01*
X140269839Y-80057828D01*
X140526929Y-80127090D01*
X140657165Y-80154957D01*
X140845011Y-80265133D01*
X140928212Y-80323618D01*
X141151628Y-80393697D01*
X141372614Y-80382190D01*
X141519184Y-80286785D01*
X141531931Y-80267296D01*
X141605620Y-80225428D01*
X141705129Y-80326312D01*
X141737810Y-80369157D01*
X141828031Y-80433281D01*
X141920906Y-80359610D01*
X141952297Y-80329381D01*
X142125975Y-80270302D01*
X142426753Y-80275816D01*
X142881677Y-80271924D01*
X143421358Y-80129684D01*
X143966532Y-79828603D01*
X144169902Y-79693562D01*
X144363035Y-79576629D01*
X144462835Y-79531140D01*
X144501782Y-79523714D01*
X144640793Y-79458700D01*
X144661424Y-79443604D01*
X144705064Y-79360404D01*
X144693807Y-79203224D01*
X144626491Y-78929065D01*
X144607755Y-78849701D01*
X144558565Y-78542698D01*
X144512138Y-78124049D01*
X144472705Y-77635821D01*
X144444500Y-77120079D01*
X144416769Y-76571004D01*
X144313303Y-75380088D01*
X144150420Y-74293698D01*
X143921192Y-73271167D01*
X143618693Y-72271828D01*
X143511016Y-71958453D01*
X143408252Y-71695884D01*
X143322990Y-71574962D01*
X143233239Y-71585357D01*
X143117007Y-71716736D01*
X142952303Y-71958770D01*
X142817462Y-72157020D01*
X142624294Y-72419231D01*
X142512895Y-72532836D01*
X142483392Y-72497824D01*
X142535913Y-72314185D01*
X142670584Y-71981909D01*
X142702431Y-71906488D01*
X142843629Y-71529006D01*
X142954432Y-71165724D01*
X143013142Y-70886062D01*
X143026926Y-70760088D01*
X143032114Y-70564338D01*
X142988658Y-70467339D01*
X142883135Y-70421087D01*
X142864769Y-70415152D01*
X142701715Y-70296893D01*
X142554234Y-70100551D01*
X142413616Y-69854387D01*
X142135515Y-69406413D01*
X141827918Y-68946191D01*
X141527398Y-68527726D01*
X141270530Y-68205022D01*
X141033930Y-67947882D01*
X140735954Y-67656021D01*
X140439599Y-67393336D01*
X140173414Y-67183611D01*
X139965948Y-67050626D01*
X139845753Y-67018164D01*
X139756002Y-66989818D01*
X139683982Y-66818927D01*
X139512067Y-66173236D01*
X139289057Y-65643007D01*
X138993268Y-65192462D01*
X138601171Y-64777229D01*
X138510145Y-64695536D01*
X138223877Y-64468443D01*
X137908560Y-64269797D01*
X137536706Y-64087133D01*
X137080827Y-63907990D01*
X136513435Y-63719905D01*
X135807041Y-63510414D01*
X135710397Y-63510214D01*
X135705342Y-63622611D01*
X135700018Y-63744273D01*
X135637699Y-63981448D01*
X135529715Y-64262680D01*
X135434090Y-64494853D01*
X135213943Y-65158762D01*
X135103468Y-65600669D01*
X135024679Y-65915831D01*
X134880668Y-66711833D01*
X134877235Y-66736083D01*
X134843221Y-67094805D01*
X134823476Y-67542017D01*
X134817150Y-68040833D01*
X134480429Y-68040833D01*
X134476966Y-67726106D01*
X134479947Y-67577340D01*
X134482388Y-67178131D01*
X134476057Y-66861132D01*
X134461886Y-66655540D01*
X134440803Y-66590547D01*
X134428330Y-66604774D01*
X134391789Y-66742468D01*
X134377091Y-66964879D01*
X134375009Y-67036648D01*
X134344018Y-67224388D01*
X134287709Y-67299665D01*
X134274356Y-67293079D01*
X134243506Y-67170601D01*
X134237172Y-66912721D01*
X134253812Y-66544725D01*
X134291882Y-66091896D01*
X134349836Y-65579519D01*
X134356338Y-65532934D01*
X134564459Y-65532934D01*
X134575679Y-65706856D01*
X134605177Y-65721266D01*
X134618527Y-65600669D01*
X134606685Y-65483810D01*
X134575679Y-65494481D01*
X134564459Y-65532934D01*
X134356338Y-65532934D01*
X134405338Y-65181861D01*
X134647838Y-65181861D01*
X134654973Y-65200972D01*
X134695107Y-65150248D01*
X134757530Y-64970576D01*
X134832104Y-64689062D01*
X134889194Y-64459578D01*
X135099027Y-63766234D01*
X135330883Y-63229179D01*
X135591061Y-62838281D01*
X135885861Y-62583411D01*
X136168691Y-62474755D01*
X136594438Y-62474755D01*
X136694022Y-62595366D01*
X136782422Y-62745631D01*
X136797213Y-62896586D01*
X136810549Y-63020968D01*
X136922590Y-63176887D01*
X137045993Y-63262054D01*
X137095485Y-63231021D01*
X137085927Y-63162451D01*
X136998132Y-62942960D01*
X136854074Y-62709277D01*
X136697575Y-62537751D01*
X136606615Y-62468949D01*
X136594438Y-62474755D01*
X136168691Y-62474755D01*
X136221581Y-62454436D01*
X136300059Y-62439121D01*
X136446622Y-62406316D01*
X136437076Y-62390844D01*
X136279787Y-62382344D01*
X136279565Y-62382336D01*
X135923335Y-62452211D01*
X135595027Y-62686995D01*
X135296929Y-63083645D01*
X135031329Y-63639117D01*
X134800515Y-64350369D01*
X134780440Y-64426462D01*
X134704084Y-64754340D01*
X134656693Y-65023513D01*
X134647838Y-65181861D01*
X134405338Y-65181861D01*
X134426132Y-65032878D01*
X134443175Y-64927489D01*
X134550194Y-64396170D01*
X134691687Y-63832871D01*
X134849646Y-63304509D01*
X135006062Y-62878000D01*
X135016541Y-62832702D01*
X134952237Y-62721271D01*
X134740707Y-62600364D01*
X134419566Y-62454427D01*
X134648715Y-62647113D01*
X134877864Y-62839799D01*
X134637767Y-63519398D01*
X134624469Y-63557338D01*
X134492945Y-63960629D01*
X134372951Y-64372264D01*
X134288987Y-64708695D01*
X134268518Y-64802205D01*
X134182415Y-65124847D01*
X134099500Y-65294066D01*
X134010116Y-65322808D01*
X133904606Y-65224022D01*
X133860564Y-65159254D01*
X133829278Y-65028734D01*
X133910325Y-64865974D01*
X133926863Y-64840577D01*
X134020783Y-64672330D01*
X134005808Y-64597989D01*
X133877793Y-64581271D01*
X133694229Y-64522479D01*
X133568199Y-64374629D01*
X133558652Y-64198113D01*
X133569423Y-64167766D01*
X133560346Y-64109085D01*
X133440731Y-64157545D01*
X133323349Y-64198376D01*
X133273906Y-64139554D01*
X133332142Y-63966464D01*
X133497018Y-63687780D01*
X133573417Y-63567637D01*
X133632384Y-63454928D01*
X133607453Y-63455685D01*
X133462611Y-63552716D01*
X133382203Y-63501201D01*
X133357693Y-63292744D01*
X133347783Y-63116734D01*
X133313183Y-62809770D01*
X133262319Y-62475939D01*
X133252075Y-62415050D01*
X134292141Y-62415050D01*
X134334616Y-62457525D01*
X134377091Y-62415050D01*
X134334616Y-62372575D01*
X134292141Y-62415050D01*
X133252075Y-62415050D01*
X133244069Y-62367468D01*
X133210074Y-62093996D01*
X133219549Y-61937849D01*
X133242701Y-61905351D01*
X133442642Y-61905351D01*
X133485117Y-61947826D01*
X133527592Y-61905351D01*
X133485117Y-61862876D01*
X133442642Y-61905351D01*
X133242701Y-61905351D01*
X133273134Y-61862634D01*
X133290417Y-61808208D01*
X133182654Y-61682090D01*
X132923655Y-61490142D01*
X132696386Y-61343472D01*
X132496451Y-61227656D01*
X132390578Y-61183277D01*
X132380357Y-61190045D01*
X132440994Y-61258460D01*
X132600263Y-61376749D01*
X132642198Y-61406418D01*
X132885884Y-61661060D01*
X133052787Y-62015970D01*
X133075446Y-62127135D01*
X133149639Y-62491124D01*
X133183173Y-63106502D01*
X133170001Y-63612145D01*
X133046336Y-64625604D01*
X132800749Y-65596820D01*
X132745812Y-65736017D01*
X132442856Y-66503636D01*
X131982276Y-67323900D01*
X131428623Y-68035456D01*
X130791516Y-68616151D01*
X130431620Y-68875314D01*
X129956162Y-69165297D01*
X129500088Y-69363450D01*
X129008859Y-69491839D01*
X128427940Y-69572531D01*
X128379676Y-69577401D01*
X128069779Y-69615273D01*
X127888723Y-69658833D01*
X127800138Y-69721540D01*
X127767653Y-69816851D01*
X127766171Y-69832817D01*
X127393500Y-69832817D01*
X127373624Y-69719654D01*
X127445565Y-69631093D01*
X127645209Y-69535999D01*
X127749453Y-69498073D01*
X128040045Y-69413125D01*
X128412853Y-69320246D01*
X128812877Y-69233676D01*
X129039743Y-69185912D01*
X129415090Y-69095780D01*
X129724472Y-69008008D01*
X129917224Y-68936242D01*
X129948913Y-68920052D01*
X130560083Y-68517524D01*
X131129446Y-67974653D01*
X131632275Y-67318866D01*
X132043840Y-66577592D01*
X132167902Y-66302698D01*
X132297847Y-65992238D01*
X132364066Y-65800377D01*
X132364665Y-65736017D01*
X132297747Y-65808064D01*
X132161417Y-66025418D01*
X132030490Y-66241910D01*
X131842212Y-66535090D01*
X131688223Y-66755510D01*
X131655472Y-66800090D01*
X131536791Y-66991592D01*
X131488796Y-67122271D01*
X131462504Y-67175734D01*
X131330890Y-67176047D01*
X131153219Y-67191121D01*
X131024135Y-67324838D01*
X130995164Y-67526975D01*
X130992255Y-67607382D01*
X130903452Y-67680258D01*
X130681773Y-67724414D01*
X130505931Y-67755276D01*
X130366477Y-67828456D01*
X130313977Y-67964521D01*
X130272576Y-68088433D01*
X130165314Y-68115850D01*
X129986557Y-68091795D01*
X129855612Y-68182179D01*
X129842761Y-68373076D01*
X129865757Y-68482507D01*
X129835415Y-68539062D01*
X129692650Y-68487300D01*
X129648118Y-68469243D01*
X129495955Y-68448008D01*
X129296977Y-68492577D01*
X129000747Y-68612044D01*
X128763728Y-68711153D01*
X128608793Y-68767380D01*
X128529668Y-68796095D01*
X128394794Y-68828762D01*
X128333128Y-68844918D01*
X128258216Y-68927499D01*
X128228363Y-68960408D01*
X128219691Y-68978028D01*
X128081057Y-69104985D01*
X127829531Y-69246761D01*
X127510567Y-69383479D01*
X127169619Y-69495261D01*
X126852142Y-69562230D01*
X126710933Y-69583538D01*
X126478431Y-69632658D01*
X126349331Y-69679987D01*
X126329582Y-69688760D01*
X126168290Y-69697892D01*
X125904533Y-69676666D01*
X125587517Y-69632718D01*
X125266451Y-69573686D01*
X124990539Y-69507206D01*
X124808991Y-69440917D01*
X124642098Y-69319187D01*
X124434092Y-69121204D01*
X124221544Y-68887178D01*
X124214647Y-68878515D01*
X126226518Y-68878515D01*
X126349331Y-68909678D01*
X126428275Y-68925310D01*
X126926113Y-69009176D01*
X127319384Y-69048557D01*
X127588608Y-69042317D01*
X127714303Y-68989319D01*
X127734483Y-68927499D01*
X127645820Y-68935898D01*
X127574885Y-68955272D01*
X127468950Y-68943141D01*
X127452697Y-68935719D01*
X127306340Y-68911713D01*
X127046988Y-68888519D01*
X126717334Y-68870274D01*
X126429467Y-68860776D01*
X126250616Y-68862494D01*
X126226518Y-68878515D01*
X124214647Y-68878515D01*
X124036711Y-68655027D01*
X123939781Y-68505695D01*
X124817661Y-68505695D01*
X124835780Y-68575271D01*
X124947138Y-68700866D01*
X125065912Y-68783394D01*
X125117559Y-68767380D01*
X125108274Y-68726151D01*
X125024134Y-68608215D01*
X124905408Y-68515659D01*
X124817661Y-68505695D01*
X123939781Y-68505695D01*
X123911852Y-68462667D01*
X123879221Y-68348014D01*
X123883696Y-68287851D01*
X123789159Y-68234113D01*
X123647490Y-68173509D01*
X123491113Y-68025270D01*
X123449628Y-67977746D01*
X123240488Y-67794336D01*
X122990425Y-67627353D01*
X122895622Y-67568670D01*
X122722462Y-67424068D01*
X122653658Y-67305260D01*
X122637340Y-67222532D01*
X122560252Y-67011752D01*
X122441284Y-66754332D01*
X122297278Y-66392678D01*
X122223880Y-65862358D01*
X122223879Y-65862244D01*
X122213686Y-65606061D01*
X122189160Y-65509534D01*
X122147806Y-65562836D01*
X122138182Y-65592690D01*
X122115960Y-65816424D01*
X121886111Y-65816424D01*
X121883550Y-65672945D01*
X121864164Y-65482395D01*
X121825695Y-65400887D01*
X121762587Y-65399839D01*
X121663771Y-65394018D01*
X121659516Y-65388294D01*
X122484749Y-65388294D01*
X122485261Y-65855518D01*
X122510616Y-66182024D01*
X122685278Y-66747491D01*
X122767702Y-66908511D01*
X122924811Y-67162923D01*
X123063286Y-67330959D01*
X123086453Y-67351463D01*
X123158566Y-67407101D01*
X123190722Y-67396607D01*
X123181853Y-67295503D01*
X123130890Y-67079312D01*
X123036763Y-66723558D01*
X122995948Y-66577295D01*
X122878287Y-66205048D01*
X122758906Y-65884660D01*
X122658242Y-65672866D01*
X122484749Y-65388294D01*
X121659516Y-65388294D01*
X121555598Y-65248511D01*
X121548012Y-65229715D01*
X121499939Y-65132990D01*
X121477918Y-65173295D01*
X121470101Y-65367057D01*
X121469604Y-65385696D01*
X121426990Y-65600574D01*
X121342715Y-65690408D01*
X121252110Y-65644464D01*
X121190507Y-65452006D01*
X121176957Y-65367863D01*
X121148963Y-65323138D01*
X121101659Y-65409579D01*
X121020882Y-65643144D01*
X120881901Y-66067893D01*
X120874683Y-65643144D01*
X120870289Y-65521695D01*
X120839367Y-65254063D01*
X120788224Y-65089014D01*
X120726537Y-65048910D01*
X120663979Y-65156114D01*
X120647599Y-65345938D01*
X120672339Y-65672450D01*
X120734880Y-66099773D01*
X120830542Y-66596136D01*
X120954646Y-67129766D01*
X121042470Y-67506040D01*
X121121428Y-67895133D01*
X121172665Y-68205577D01*
X121210890Y-68428855D01*
X121282153Y-68610706D01*
X121390878Y-68686382D01*
X121418069Y-68696939D01*
X121479839Y-68753612D01*
X121557382Y-68824756D01*
X121679366Y-69033481D01*
X121736831Y-69156161D01*
X121858888Y-69299909D01*
X122028649Y-69338461D01*
X122155712Y-69347802D01*
X122219478Y-69415243D01*
X122199532Y-69593311D01*
X122188786Y-69653060D01*
X122191888Y-69805507D01*
X122276852Y-69848160D01*
X122301822Y-69848993D01*
X122362002Y-69890275D01*
X122310848Y-70024351D01*
X122285509Y-70074735D01*
X122271657Y-70188105D01*
X122392809Y-70246633D01*
X122510895Y-70291970D01*
X122558107Y-70388668D01*
X122442030Y-70527435D01*
X122419034Y-70550115D01*
X122310461Y-70724113D01*
X122216209Y-70962585D01*
X122209148Y-70985895D01*
X122141302Y-71162094D01*
X122049235Y-71257361D01*
X121899184Y-71277144D01*
X121657385Y-71226894D01*
X121290074Y-71112059D01*
X121190991Y-71078953D01*
X120850770Y-70948176D01*
X120663130Y-70825524D01*
X120617314Y-70687249D01*
X120702567Y-70509603D01*
X120908131Y-70268837D01*
X121017211Y-70144700D01*
X121251977Y-69805134D01*
X121392593Y-69482325D01*
X121427929Y-69208101D01*
X121346854Y-69014293D01*
X121317022Y-68985198D01*
X121227553Y-68929892D01*
X121183917Y-69004817D01*
X121152080Y-69120284D01*
X120993317Y-69608821D01*
X120813321Y-70053131D01*
X120636458Y-70391497D01*
X120421565Y-70731910D01*
X120113703Y-70731910D01*
X120155184Y-70607944D01*
X120274225Y-70421146D01*
X120442987Y-70174864D01*
X120655597Y-69776030D01*
X120821467Y-69365603D01*
X120908835Y-69014009D01*
X120909891Y-68753612D01*
X120816734Y-68311376D01*
X120626684Y-67841053D01*
X120357075Y-67393550D01*
X120232243Y-67204751D01*
X120175396Y-67070545D01*
X120219205Y-67048416D01*
X120363343Y-67151003D01*
X120386282Y-67169424D01*
X120381233Y-67145660D01*
X120280575Y-67023578D01*
X120182991Y-66904843D01*
X120143075Y-66813880D01*
X120213122Y-66789966D01*
X120281020Y-66799243D01*
X120402843Y-66874916D01*
X120448655Y-66936666D01*
X120522607Y-66963882D01*
X120546859Y-66869069D01*
X120504611Y-66683779D01*
X120465462Y-66510646D01*
X120430842Y-66181837D01*
X120409976Y-65762696D01*
X120402791Y-65296428D01*
X120409215Y-64826237D01*
X120418595Y-64623746D01*
X120955017Y-64623746D01*
X120997492Y-64666220D01*
X121039967Y-64623746D01*
X120997492Y-64581271D01*
X120955017Y-64623746D01*
X120418595Y-64623746D01*
X120427315Y-64435484D01*
X120712591Y-64435484D01*
X120729396Y-64604125D01*
X120732781Y-64611698D01*
X120759374Y-64598925D01*
X120768557Y-64453846D01*
X120767996Y-64427465D01*
X120760362Y-64368896D01*
X121039967Y-64368896D01*
X121082442Y-64411371D01*
X121124917Y-64368896D01*
X121082442Y-64326421D01*
X121039967Y-64368896D01*
X120760362Y-64368896D01*
X120753289Y-64314633D01*
X120726248Y-64349275D01*
X120712591Y-64435484D01*
X120427315Y-64435484D01*
X120429175Y-64395329D01*
X120447354Y-64205824D01*
X121145903Y-64205824D01*
X121155924Y-64206326D01*
X121223699Y-64122909D01*
X121320692Y-63943080D01*
X121401509Y-63755119D01*
X121422067Y-63655377D01*
X121367051Y-63705040D01*
X121248259Y-63909566D01*
X121232410Y-63940904D01*
X121158281Y-64116444D01*
X121145903Y-64205824D01*
X120447354Y-64205824D01*
X120462599Y-64046910D01*
X120509413Y-63824184D01*
X120524319Y-63781927D01*
X120574483Y-63590753D01*
X120572607Y-63519398D01*
X121464716Y-63519398D01*
X121507191Y-63561873D01*
X121549666Y-63519398D01*
X121507191Y-63476923D01*
X121464716Y-63519398D01*
X120572607Y-63519398D01*
X120571839Y-63490177D01*
X120520594Y-63495632D01*
X120363366Y-63574325D01*
X120146706Y-63714576D01*
X119988125Y-63822305D01*
X119827814Y-63919188D01*
X119765719Y-63938757D01*
X119765865Y-63937403D01*
X119824519Y-63852535D01*
X119968929Y-63681753D01*
X120169231Y-63460458D01*
X120290814Y-63324306D01*
X120403488Y-63173546D01*
X120407904Y-63123446D01*
X120318783Y-63169685D01*
X120150848Y-63307946D01*
X119918821Y-63533910D01*
X119821544Y-63641720D01*
X119483149Y-64155548D01*
X119208991Y-64820568D01*
X118997457Y-65640469D01*
X118978431Y-65732532D01*
X118844976Y-66256161D01*
X118669067Y-66734566D01*
X118430673Y-67208464D01*
X118109764Y-67718573D01*
X117686308Y-68305611D01*
X117666593Y-68331826D01*
X117425376Y-68660095D01*
X117228553Y-68941346D01*
X117095933Y-69146421D01*
X117047325Y-69246164D01*
X117013773Y-69322723D01*
X116926558Y-69325715D01*
X116874723Y-69232274D01*
X116865451Y-69198235D01*
X116808270Y-69219249D01*
X116726918Y-69323807D01*
X116654114Y-69464818D01*
X116622576Y-69595192D01*
X116560213Y-69725021D01*
X116399961Y-69853640D01*
X116393170Y-69857317D01*
X116102678Y-70078646D01*
X115803753Y-70409636D01*
X115536937Y-70798852D01*
X115342771Y-71194862D01*
X115305351Y-71303802D01*
X115211845Y-71623873D01*
X115101643Y-72047063D01*
X114985510Y-72531116D01*
X114874214Y-73033779D01*
X114826482Y-73254225D01*
X114703806Y-73784424D01*
X114575908Y-74295049D01*
X114455357Y-74737035D01*
X114354726Y-75061320D01*
X114122674Y-75729664D01*
X113966972Y-75729664D01*
X113915409Y-75497522D01*
X113947635Y-75166682D01*
X114081291Y-74757158D01*
X114135525Y-74603732D01*
X114237583Y-74275275D01*
X114360820Y-73847335D01*
X114494332Y-73358090D01*
X114627216Y-72845718D01*
X114730784Y-72448923D01*
X114958215Y-71681720D01*
X115187365Y-71061248D01*
X115425434Y-70571674D01*
X115679623Y-70197168D01*
X115957133Y-69921898D01*
X116049562Y-69843046D01*
X116272312Y-69610714D01*
X116425472Y-69393010D01*
X116432111Y-69380572D01*
X116569148Y-69181289D01*
X116783481Y-68923204D01*
X117031717Y-68658863D01*
X117076550Y-68613721D01*
X117470888Y-68182230D01*
X117852089Y-67710347D01*
X118181559Y-67248422D01*
X118420704Y-66846806D01*
X118451357Y-66778439D01*
X118543064Y-66498445D01*
X118632696Y-66132773D01*
X118704562Y-65742458D01*
X118724028Y-65619298D01*
X118799649Y-65206243D01*
X118883541Y-64822149D01*
X118960867Y-64536808D01*
X119134483Y-64125357D01*
X119420134Y-63654681D01*
X119759092Y-63241327D01*
X120111522Y-62940555D01*
X120135872Y-62924749D01*
X121124917Y-62924749D01*
X121167392Y-62967224D01*
X121209867Y-62924749D01*
X121167392Y-62882274D01*
X121124917Y-62924749D01*
X120135872Y-62924749D01*
X120370428Y-62772492D01*
X120706792Y-62555792D01*
X121039967Y-62342469D01*
X121592141Y-61990301D01*
X121641557Y-61098327D01*
X121661625Y-60805142D01*
X121674787Y-60702160D01*
X121900820Y-60702160D01*
X121916361Y-61027670D01*
X121957321Y-61461086D01*
X122021321Y-62032776D01*
X122128547Y-62845699D01*
X122143092Y-62924749D01*
X122252504Y-63519398D01*
X122277523Y-63655377D01*
X122305173Y-63805652D01*
X122458462Y-64368896D01*
X122481581Y-64453846D01*
X122525599Y-64615584D01*
X122528916Y-64623746D01*
X122797826Y-65285397D01*
X123129856Y-65824995D01*
X123529688Y-66244279D01*
X124005323Y-66553151D01*
X124564763Y-66761514D01*
X125216007Y-66879270D01*
X125967057Y-66916322D01*
X126124755Y-66915790D01*
X126568499Y-66904157D01*
X126912364Y-66872106D01*
X127210127Y-66812801D01*
X127515565Y-66719401D01*
X127853001Y-66585657D01*
X128545061Y-66215777D01*
X129243540Y-65726808D01*
X129912783Y-65145148D01*
X130517133Y-64497196D01*
X130642239Y-64350241D01*
X130841248Y-64131752D01*
X130983342Y-63996223D01*
X131043829Y-63968443D01*
X131038574Y-64052816D01*
X130981018Y-64275716D01*
X130877484Y-64595647D01*
X130740378Y-64979354D01*
X130582104Y-65393588D01*
X130415065Y-65805096D01*
X130251667Y-66180626D01*
X130104314Y-66486926D01*
X130088203Y-66517744D01*
X129852194Y-66936817D01*
X129573389Y-67389283D01*
X129568459Y-67396607D01*
X129308738Y-67782411D01*
X129206141Y-67929194D01*
X129051308Y-68170972D01*
X128965502Y-68335767D01*
X128965242Y-68394159D01*
X129124946Y-68369449D01*
X129403938Y-68254129D01*
X129679266Y-68020602D01*
X129731601Y-67970383D01*
X130015716Y-67757592D01*
X130316390Y-67598993D01*
X130392605Y-67565947D01*
X130634301Y-67413943D01*
X130900644Y-67169039D01*
X131222245Y-66804384D01*
X131442276Y-66532585D01*
X131931707Y-65856926D01*
X132300765Y-65211597D01*
X132567675Y-64554922D01*
X132750661Y-63845223D01*
X132867947Y-63040825D01*
X132963481Y-62127135D01*
X132363324Y-61495326D01*
X132082023Y-61183474D01*
X131713041Y-60704002D01*
X131392080Y-60180190D01*
X131094862Y-59570791D01*
X130797109Y-58834561D01*
X130607115Y-58339204D01*
X130429205Y-57905027D01*
X130286420Y-57600537D01*
X130169649Y-57408600D01*
X130069776Y-57312081D01*
X129977691Y-57293844D01*
X129921102Y-57297704D01*
X129819550Y-57234647D01*
X129823749Y-57077960D01*
X129928356Y-56852855D01*
X130128026Y-56584545D01*
X130147215Y-56562576D01*
X130341825Y-56354820D01*
X130508488Y-56236030D01*
X130713032Y-56172851D01*
X131021285Y-56131928D01*
X131209948Y-56105889D01*
X131545968Y-56023848D01*
X131763661Y-55916430D01*
X131842472Y-55851255D01*
X131890104Y-55795725D01*
X131815384Y-55799549D01*
X131597425Y-55855009D01*
X131396668Y-55898732D01*
X131175289Y-55894881D01*
X130939064Y-55807235D01*
X130750591Y-55699606D01*
X130659267Y-55565545D01*
X130656459Y-55534113D01*
X131318897Y-55534113D01*
X131361372Y-55576588D01*
X131398832Y-55539127D01*
X131488796Y-55539127D01*
X131491005Y-55547605D01*
X131573746Y-55576588D01*
X131597030Y-55573131D01*
X131658696Y-55486625D01*
X131652026Y-55455899D01*
X131573746Y-55449164D01*
X131548324Y-55466599D01*
X131492911Y-55534113D01*
X131488796Y-55539127D01*
X131398832Y-55539127D01*
X131403846Y-55534113D01*
X131361372Y-55491638D01*
X131318897Y-55534113D01*
X130656459Y-55534113D01*
X130639298Y-55342015D01*
X130643568Y-55241102D01*
X130722869Y-54929551D01*
X130885944Y-54719295D01*
X131111339Y-54642140D01*
X131246401Y-54664616D01*
X131318897Y-54734928D01*
X131318942Y-54737127D01*
X131370107Y-54866267D01*
X131488796Y-55043709D01*
X131544243Y-55111157D01*
X131632831Y-55184137D01*
X131658696Y-55120820D01*
X131668966Y-55053541D01*
X131748951Y-54985269D01*
X131859802Y-55027226D01*
X131942743Y-55169367D01*
X131987382Y-55276579D01*
X132047758Y-55300793D01*
X132062644Y-55238979D01*
X132005033Y-55078418D01*
X131879286Y-54881957D01*
X131718783Y-54698750D01*
X131556901Y-54577952D01*
X131385765Y-54524393D01*
X131031025Y-54535477D01*
X130921988Y-54563070D01*
X130812962Y-54616816D01*
X130712174Y-54717658D01*
X130599686Y-54892351D01*
X130455558Y-55167648D01*
X130259852Y-55570305D01*
X130241540Y-55608398D01*
X130023879Y-56048596D01*
X129856631Y-56354717D01*
X129725642Y-56547863D01*
X129616762Y-56649136D01*
X129515836Y-56679635D01*
X129486014Y-56614584D01*
X129500152Y-56447324D01*
X129508470Y-56333694D01*
X129448378Y-56107383D01*
X129278760Y-55811879D01*
X128963456Y-55415942D01*
X128481944Y-55009309D01*
X127864488Y-54662018D01*
X127613241Y-54554035D01*
X127347251Y-54476372D01*
X127047668Y-54439261D01*
X126646656Y-54429766D01*
X126284620Y-54436980D01*
X125978115Y-54470173D01*
X125711088Y-54542696D01*
X125414883Y-54667817D01*
X125175408Y-54794160D01*
X124841165Y-55009043D01*
X124579087Y-55219991D01*
X124513514Y-55285024D01*
X124307511Y-55502999D01*
X124063648Y-55774341D01*
X123807275Y-56069198D01*
X123563744Y-56357716D01*
X123358405Y-56610041D01*
X123216611Y-56796322D01*
X123163713Y-56886704D01*
X123167868Y-56893815D01*
X123261528Y-56877396D01*
X123439800Y-56798921D01*
X123715887Y-56657693D01*
X123545987Y-56848290D01*
X123480983Y-56911299D01*
X123258228Y-57077748D01*
X122994595Y-57232856D01*
X122613103Y-57426825D01*
X123334394Y-57486338D01*
X123450342Y-57495406D01*
X123782999Y-57515760D01*
X124043402Y-57523508D01*
X124183111Y-57516905D01*
X124223650Y-57513823D01*
X124291048Y-57584393D01*
X124310535Y-57792349D01*
X124310809Y-57813593D01*
X124347367Y-58058893D01*
X124348284Y-58060961D01*
X124426749Y-58237883D01*
X124484039Y-58347658D01*
X124497055Y-58554577D01*
X124494278Y-58592785D01*
X124488973Y-58665757D01*
X124577421Y-58778581D01*
X124607801Y-58797513D01*
X124577132Y-58859188D01*
X124572837Y-58867826D01*
X124376176Y-58973670D01*
X124064798Y-59164630D01*
X123725743Y-59521212D01*
X123503068Y-59952850D01*
X123460338Y-60120264D01*
X123448111Y-60332229D01*
X123493307Y-60458835D01*
X123589248Y-60460718D01*
X123616571Y-60437147D01*
X123628792Y-60330309D01*
X123636846Y-60212937D01*
X123723099Y-60037369D01*
X123770052Y-59970024D01*
X123877590Y-59879136D01*
X123982846Y-59919080D01*
X123985846Y-59921501D01*
X124171460Y-59978762D01*
X124466845Y-59973016D01*
X124828354Y-59911607D01*
X125212344Y-59801877D01*
X125575167Y-59651171D01*
X125777097Y-59552076D01*
X126026909Y-59445143D01*
X126190984Y-59412960D01*
X126309120Y-59450986D01*
X126421115Y-59554682D01*
X126438892Y-59574827D01*
X126537311Y-59715374D01*
X126558668Y-59800776D01*
X126490914Y-59790355D01*
X126456946Y-59784631D01*
X126420123Y-59870292D01*
X126430602Y-59927404D01*
X126542643Y-59991267D01*
X126767133Y-59942416D01*
X126767601Y-59942235D01*
X126875839Y-59827096D01*
X126895790Y-59658050D01*
X126816555Y-59526756D01*
X126739401Y-59466984D01*
X126733647Y-59406233D01*
X126846905Y-59396678D01*
X127050168Y-59448087D01*
X127119897Y-59470969D01*
X127598539Y-59553266D01*
X128133486Y-59543768D01*
X128650713Y-59442725D01*
X128789612Y-59401133D01*
X129040406Y-59337104D01*
X129189344Y-59333809D01*
X129278866Y-59396582D01*
X129351415Y-59530753D01*
X129404192Y-59656456D01*
X129445935Y-59822516D01*
X129402298Y-59858931D01*
X129276791Y-59755148D01*
X129169541Y-59656243D01*
X129003285Y-59584270D01*
X128784362Y-59597897D01*
X128463676Y-59693395D01*
X128339301Y-59732142D01*
X127999640Y-59814191D01*
X127656653Y-59873055D01*
X127480514Y-59902524D01*
X127220300Y-59973188D01*
X127058706Y-60052890D01*
X127031974Y-60073314D01*
X126846685Y-60149389D01*
X126622981Y-60180295D01*
X126427151Y-60162465D01*
X126325483Y-60092334D01*
X126236951Y-60024833D01*
X126052007Y-59993980D01*
X125878516Y-59969518D01*
X125781658Y-59905006D01*
X125760740Y-59884426D01*
X125618408Y-59894244D01*
X125367458Y-59986133D01*
X125272134Y-60025630D01*
X124928821Y-60140767D01*
X124609436Y-60215956D01*
X124496124Y-60234659D01*
X124343075Y-60269332D01*
X124331669Y-60303894D01*
X124443145Y-60353909D01*
X124467062Y-60362035D01*
X124735377Y-60394800D01*
X125081694Y-60372953D01*
X125435302Y-60305009D01*
X125725492Y-60199485D01*
X125821281Y-60152519D01*
X125946206Y-60113620D01*
X125932917Y-60173151D01*
X125781139Y-60330470D01*
X125770296Y-60340736D01*
X125677901Y-60456158D01*
X125696189Y-60503679D01*
X125712495Y-60507033D01*
X125774352Y-60614945D01*
X125797157Y-60850013D01*
X125793969Y-60951737D01*
X125728836Y-61212114D01*
X125548843Y-61444661D01*
X125422070Y-61556006D01*
X125230959Y-61669050D01*
X125088510Y-61690386D01*
X125032609Y-61608026D01*
X125034934Y-61587841D01*
X125113573Y-61523077D01*
X125199128Y-61451254D01*
X125307103Y-61264897D01*
X125412428Y-61013766D01*
X125490885Y-60747637D01*
X125540351Y-60524372D01*
X125222768Y-60637721D01*
X125054711Y-60689727D01*
X124568180Y-60750345D01*
X124131977Y-60670286D01*
X123958706Y-60629100D01*
X123850360Y-60657737D01*
X123813173Y-60682158D01*
X123642736Y-60720898D01*
X123394053Y-60738353D01*
X122981419Y-60798414D01*
X122654964Y-60982954D01*
X122434723Y-61295876D01*
X122313975Y-61565552D01*
X122335332Y-61225885D01*
X122367163Y-61001085D01*
X122461844Y-60858543D01*
X122668762Y-60739810D01*
X122951510Y-60561938D01*
X123169332Y-60311936D01*
X123248663Y-60045479D01*
X123278786Y-59910668D01*
X123391070Y-59722574D01*
X123395304Y-59717871D01*
X123482221Y-59575866D01*
X123433545Y-59465283D01*
X123346918Y-59349908D01*
X123377380Y-59257382D01*
X123567224Y-59221091D01*
X123601171Y-59219705D01*
X123699718Y-59206748D01*
X123656842Y-59175700D01*
X123460864Y-59114904D01*
X123279265Y-59059214D01*
X123051025Y-58963007D01*
X122938788Y-58856318D01*
X122908863Y-58714719D01*
X122891668Y-58620648D01*
X122813295Y-58549832D01*
X122810650Y-58547102D01*
X123143220Y-58547102D01*
X123173905Y-58738776D01*
X123275104Y-58836798D01*
X123527738Y-58879778D01*
X123566788Y-58877886D01*
X123683804Y-58859188D01*
X123656166Y-58831842D01*
X123520152Y-58731561D01*
X123511572Y-58712398D01*
X124065100Y-58712398D01*
X124105739Y-58803688D01*
X124211427Y-58748049D01*
X124227304Y-58728052D01*
X124265411Y-58592785D01*
X124252527Y-58447679D01*
X124193014Y-58379933D01*
X124133495Y-58432799D01*
X124077369Y-58592307D01*
X124065100Y-58712398D01*
X123511572Y-58712398D01*
X123439487Y-58551391D01*
X123460567Y-58380693D01*
X123469700Y-58337603D01*
X123385322Y-58294983D01*
X123371934Y-58295439D01*
X123220311Y-58376063D01*
X123143220Y-58547102D01*
X122810650Y-58547102D01*
X122757513Y-58492254D01*
X122759409Y-58454224D01*
X122853045Y-58454224D01*
X122922421Y-58409715D01*
X123085192Y-58240979D01*
X123101781Y-58222919D01*
X123216637Y-58091539D01*
X123218101Y-58060961D01*
X123109995Y-58111194D01*
X122990244Y-58194709D01*
X122879049Y-58335098D01*
X122862259Y-58381268D01*
X122853045Y-58454224D01*
X122759409Y-58454224D01*
X122766900Y-58303961D01*
X122786432Y-58182230D01*
X122762528Y-58093464D01*
X122650094Y-58101494D01*
X122602243Y-58115978D01*
X122502234Y-58190830D01*
X122507989Y-58266608D01*
X122512644Y-58327913D01*
X122632124Y-58561804D01*
X122687675Y-58652499D01*
X122727942Y-58735129D01*
X122733056Y-58821618D01*
X122692827Y-58940488D01*
X122597070Y-59120261D01*
X122435594Y-59389460D01*
X122198214Y-59776608D01*
X122140477Y-59871851D01*
X122030528Y-60069401D01*
X121955523Y-60253392D01*
X121913081Y-60454189D01*
X121900820Y-60702160D01*
X121674787Y-60702160D01*
X121726283Y-60299254D01*
X121833613Y-59895333D01*
X121997699Y-59548473D01*
X122232624Y-59213767D01*
X122483162Y-58900779D01*
X122292501Y-58837827D01*
X122288047Y-58836406D01*
X122104056Y-58804175D01*
X121813541Y-58779168D01*
X121477334Y-58766693D01*
X121336448Y-58764377D01*
X121058913Y-58749892D01*
X120880013Y-58710103D01*
X120748006Y-58628364D01*
X120611152Y-58488028D01*
X120562796Y-58430183D01*
X120377352Y-58091432D01*
X120304598Y-57724012D01*
X120307377Y-57697275D01*
X120537825Y-57697275D01*
X120581906Y-57961417D01*
X120669723Y-58173997D01*
X120678945Y-58187942D01*
X120876799Y-58412957D01*
X121082113Y-58481939D01*
X121326989Y-58406229D01*
X121559960Y-58328793D01*
X121814846Y-58314620D01*
X121973264Y-58322466D01*
X122046237Y-58266608D01*
X121971352Y-58134029D01*
X121748158Y-57922056D01*
X121683107Y-57865730D01*
X121416077Y-57619050D01*
X121180353Y-57381772D01*
X121108541Y-57308024D01*
X120942190Y-57163226D01*
X120834067Y-57105685D01*
X120820593Y-57110274D01*
X120849757Y-57184464D01*
X120976138Y-57320585D01*
X121169181Y-57553732D01*
X121275206Y-57867542D01*
X121219713Y-58179871D01*
X121190132Y-58235463D01*
X121048474Y-58354795D01*
X120895884Y-58320666D01*
X120772739Y-58136953D01*
X120751003Y-58074129D01*
X120743921Y-57977035D01*
X120832419Y-57987756D01*
X120858922Y-57997026D01*
X120929858Y-57983718D01*
X120908049Y-57848462D01*
X120853915Y-57717167D01*
X120724273Y-57514550D01*
X120661006Y-57405665D01*
X120662496Y-57267812D01*
X120686131Y-57214590D01*
X120628343Y-57224998D01*
X120591745Y-57263672D01*
X120540198Y-57443913D01*
X120537825Y-57697275D01*
X120307377Y-57697275D01*
X120341459Y-57369358D01*
X120484859Y-57068906D01*
X120731721Y-56864090D01*
X120817304Y-56825704D01*
X120924818Y-56806382D01*
X121034787Y-56853303D01*
X121184499Y-56986280D01*
X121411246Y-57225126D01*
X121453941Y-57270677D01*
X121667839Y-57488829D01*
X121834029Y-57642321D01*
X121919543Y-57700334D01*
X121921310Y-57700326D01*
X122040465Y-57668560D01*
X122194949Y-57564651D01*
X122401730Y-57372893D01*
X122677773Y-57077578D01*
X123040044Y-56662999D01*
X123427130Y-56215318D01*
X123932760Y-55648748D01*
X124363892Y-55196087D01*
X124737407Y-54844452D01*
X125070188Y-54580958D01*
X125379114Y-54392719D01*
X125681068Y-54266851D01*
X125992930Y-54190469D01*
X126331582Y-54150687D01*
X126693505Y-54145127D01*
X127423156Y-54254524D01*
X128126437Y-54515638D01*
X128776005Y-54916716D01*
X129344520Y-55446001D01*
X129516149Y-55649852D01*
X129652563Y-55831196D01*
X129704850Y-55928348D01*
X129705403Y-55937868D01*
X129769696Y-56001337D01*
X129803586Y-55965746D01*
X129870046Y-55805416D01*
X129939443Y-55559732D01*
X129942771Y-55545997D01*
X130052439Y-55216416D01*
X130214842Y-54862119D01*
X130403653Y-54529677D01*
X130592547Y-54265658D01*
X130755201Y-54116633D01*
X130768622Y-54109851D01*
X131012099Y-54065555D01*
X131326525Y-54099478D01*
X131645374Y-54198184D01*
X131902123Y-54348240D01*
X132129134Y-54594770D01*
X132298699Y-54986604D01*
X132316755Y-55454019D01*
X132310946Y-55486625D01*
X132275762Y-55684113D01*
G37*
M02*
