G04 #@! TF.GenerationSoftware,KiCad,Pcbnew,8.0.6-8.0.6-0~ubuntu22.04.1*
G04 #@! TF.CreationDate,2024-11-13T10:01:41+01:00*
G04 #@! TF.ProjectId,INA228_hat,494e4132-3238-45f6-9861-742e6b696361,rev?*
G04 #@! TF.SameCoordinates,Original*
G04 #@! TF.FileFunction,Legend,Top*
G04 #@! TF.FilePolarity,Positive*
%FSLAX46Y46*%
G04 Gerber Fmt 4.6, Leading zero omitted, Abs format (unit mm)*
G04 Created by KiCad (PCBNEW 8.0.6-8.0.6-0~ubuntu22.04.1) date 2024-11-13 10:01:41*
%MOMM*%
%LPD*%
G01*
G04 APERTURE LIST*
%ADD10C,0.150000*%
%ADD11C,0.120000*%
%ADD12C,0.152400*%
%ADD13C,0.000000*%
G04 APERTURE END LIST*
D10*
X109842438Y-71564411D02*
X109794819Y-71659649D01*
X109794819Y-71659649D02*
X109794819Y-71802506D01*
X109794819Y-71802506D02*
X109842438Y-71945363D01*
X109842438Y-71945363D02*
X109937676Y-72040601D01*
X109937676Y-72040601D02*
X110032914Y-72088220D01*
X110032914Y-72088220D02*
X110223390Y-72135839D01*
X110223390Y-72135839D02*
X110366247Y-72135839D01*
X110366247Y-72135839D02*
X110556723Y-72088220D01*
X110556723Y-72088220D02*
X110651961Y-72040601D01*
X110651961Y-72040601D02*
X110747200Y-71945363D01*
X110747200Y-71945363D02*
X110794819Y-71802506D01*
X110794819Y-71802506D02*
X110794819Y-71707268D01*
X110794819Y-71707268D02*
X110747200Y-71564411D01*
X110747200Y-71564411D02*
X110699580Y-71516792D01*
X110699580Y-71516792D02*
X110366247Y-71516792D01*
X110366247Y-71516792D02*
X110366247Y-71707268D01*
X110794819Y-71088220D02*
X109794819Y-71088220D01*
X109794819Y-71088220D02*
X110794819Y-70516792D01*
X110794819Y-70516792D02*
X109794819Y-70516792D01*
X110794819Y-70040601D02*
X109794819Y-70040601D01*
X109794819Y-70040601D02*
X109794819Y-69802506D01*
X109794819Y-69802506D02*
X109842438Y-69659649D01*
X109842438Y-69659649D02*
X109937676Y-69564411D01*
X109937676Y-69564411D02*
X110032914Y-69516792D01*
X110032914Y-69516792D02*
X110223390Y-69469173D01*
X110223390Y-69469173D02*
X110366247Y-69469173D01*
X110366247Y-69469173D02*
X110556723Y-69516792D01*
X110556723Y-69516792D02*
X110651961Y-69564411D01*
X110651961Y-69564411D02*
X110747200Y-69659649D01*
X110747200Y-69659649D02*
X110794819Y-69802506D01*
X110794819Y-69802506D02*
X110794819Y-70040601D01*
X109594819Y-82306077D02*
X110594819Y-81972744D01*
X110594819Y-81972744D02*
X109594819Y-81639411D01*
X110594819Y-81306077D02*
X109928152Y-81306077D01*
X109594819Y-81306077D02*
X109642438Y-81353696D01*
X109642438Y-81353696D02*
X109690057Y-81306077D01*
X109690057Y-81306077D02*
X109642438Y-81258458D01*
X109642438Y-81258458D02*
X109594819Y-81306077D01*
X109594819Y-81306077D02*
X109690057Y-81306077D01*
X109928152Y-80829887D02*
X110594819Y-80829887D01*
X110023390Y-80829887D02*
X109975771Y-80782268D01*
X109975771Y-80782268D02*
X109928152Y-80687030D01*
X109928152Y-80687030D02*
X109928152Y-80544173D01*
X109928152Y-80544173D02*
X109975771Y-80448935D01*
X109975771Y-80448935D02*
X110071009Y-80401316D01*
X110071009Y-80401316D02*
X110594819Y-80401316D01*
X110213866Y-79925125D02*
X110213866Y-79163221D01*
X110594819Y-79544173D02*
X109832914Y-79544173D01*
X109494819Y-77081077D02*
X110494819Y-76747744D01*
X110494819Y-76747744D02*
X109494819Y-76414411D01*
X110494819Y-76081077D02*
X109828152Y-76081077D01*
X109494819Y-76081077D02*
X109542438Y-76128696D01*
X109542438Y-76128696D02*
X109590057Y-76081077D01*
X109590057Y-76081077D02*
X109542438Y-76033458D01*
X109542438Y-76033458D02*
X109494819Y-76081077D01*
X109494819Y-76081077D02*
X109590057Y-76081077D01*
X109828152Y-75604887D02*
X110494819Y-75604887D01*
X109923390Y-75604887D02*
X109875771Y-75557268D01*
X109875771Y-75557268D02*
X109828152Y-75462030D01*
X109828152Y-75462030D02*
X109828152Y-75319173D01*
X109828152Y-75319173D02*
X109875771Y-75223935D01*
X109875771Y-75223935D02*
X109971009Y-75176316D01*
X109971009Y-75176316D02*
X110494819Y-75176316D01*
X110113866Y-74700125D02*
X110113866Y-73938221D01*
X117289160Y-93102312D02*
X117432017Y-93149931D01*
X117432017Y-93149931D02*
X117670112Y-93149931D01*
X117670112Y-93149931D02*
X117765350Y-93102312D01*
X117765350Y-93102312D02*
X117812969Y-93054692D01*
X117812969Y-93054692D02*
X117860588Y-92959454D01*
X117860588Y-92959454D02*
X117860588Y-92864216D01*
X117860588Y-92864216D02*
X117812969Y-92768978D01*
X117812969Y-92768978D02*
X117765350Y-92721359D01*
X117765350Y-92721359D02*
X117670112Y-92673740D01*
X117670112Y-92673740D02*
X117479636Y-92626121D01*
X117479636Y-92626121D02*
X117384398Y-92578502D01*
X117384398Y-92578502D02*
X117336779Y-92530883D01*
X117336779Y-92530883D02*
X117289160Y-92435645D01*
X117289160Y-92435645D02*
X117289160Y-92340407D01*
X117289160Y-92340407D02*
X117336779Y-92245169D01*
X117336779Y-92245169D02*
X117384398Y-92197550D01*
X117384398Y-92197550D02*
X117479636Y-92149931D01*
X117479636Y-92149931D02*
X117717731Y-92149931D01*
X117717731Y-92149931D02*
X117860588Y-92197550D01*
X118289160Y-93149931D02*
X118289160Y-92149931D01*
X118717731Y-93149931D02*
X118717731Y-92626121D01*
X118717731Y-92626121D02*
X118670112Y-92530883D01*
X118670112Y-92530883D02*
X118574874Y-92483264D01*
X118574874Y-92483264D02*
X118432017Y-92483264D01*
X118432017Y-92483264D02*
X118336779Y-92530883D01*
X118336779Y-92530883D02*
X118289160Y-92578502D01*
X119336779Y-93149931D02*
X119241541Y-93102312D01*
X119241541Y-93102312D02*
X119193922Y-93054692D01*
X119193922Y-93054692D02*
X119146303Y-92959454D01*
X119146303Y-92959454D02*
X119146303Y-92673740D01*
X119146303Y-92673740D02*
X119193922Y-92578502D01*
X119193922Y-92578502D02*
X119241541Y-92530883D01*
X119241541Y-92530883D02*
X119336779Y-92483264D01*
X119336779Y-92483264D02*
X119479636Y-92483264D01*
X119479636Y-92483264D02*
X119574874Y-92530883D01*
X119574874Y-92530883D02*
X119622493Y-92578502D01*
X119622493Y-92578502D02*
X119670112Y-92673740D01*
X119670112Y-92673740D02*
X119670112Y-92959454D01*
X119670112Y-92959454D02*
X119622493Y-93054692D01*
X119622493Y-93054692D02*
X119574874Y-93102312D01*
X119574874Y-93102312D02*
X119479636Y-93149931D01*
X119479636Y-93149931D02*
X119336779Y-93149931D01*
X120098684Y-93149931D02*
X120098684Y-92483264D01*
X120098684Y-92673740D02*
X120146303Y-92578502D01*
X120146303Y-92578502D02*
X120193922Y-92530883D01*
X120193922Y-92530883D02*
X120289160Y-92483264D01*
X120289160Y-92483264D02*
X120384398Y-92483264D01*
X120574875Y-92483264D02*
X120955827Y-92483264D01*
X120717732Y-92149931D02*
X120717732Y-93007073D01*
X120717732Y-93007073D02*
X120765351Y-93102312D01*
X120765351Y-93102312D02*
X120860589Y-93149931D01*
X120860589Y-93149931D02*
X120955827Y-93149931D01*
X122336780Y-92149931D02*
X122336780Y-92864216D01*
X122336780Y-92864216D02*
X122289161Y-93007073D01*
X122289161Y-93007073D02*
X122193923Y-93102312D01*
X122193923Y-93102312D02*
X122051066Y-93149931D01*
X122051066Y-93149931D02*
X121955828Y-93149931D01*
X122812971Y-93149931D02*
X122812971Y-92149931D01*
X122812971Y-92149931D02*
X123193923Y-92149931D01*
X123193923Y-92149931D02*
X123289161Y-92197550D01*
X123289161Y-92197550D02*
X123336780Y-92245169D01*
X123336780Y-92245169D02*
X123384399Y-92340407D01*
X123384399Y-92340407D02*
X123384399Y-92483264D01*
X123384399Y-92483264D02*
X123336780Y-92578502D01*
X123336780Y-92578502D02*
X123289161Y-92626121D01*
X123289161Y-92626121D02*
X123193923Y-92673740D01*
X123193923Y-92673740D02*
X122812971Y-92673740D01*
X124336780Y-93149931D02*
X123765352Y-93149931D01*
X124051066Y-93149931D02*
X124051066Y-92149931D01*
X124051066Y-92149931D02*
X123955828Y-92292788D01*
X123955828Y-92292788D02*
X123860590Y-92388026D01*
X123860590Y-92388026D02*
X123765352Y-92435645D01*
X125384400Y-92483264D02*
X125765352Y-92483264D01*
X125527257Y-92149931D02*
X125527257Y-93007073D01*
X125527257Y-93007073D02*
X125574876Y-93102312D01*
X125574876Y-93102312D02*
X125670114Y-93149931D01*
X125670114Y-93149931D02*
X125765352Y-93149931D01*
X126241543Y-93149931D02*
X126146305Y-93102312D01*
X126146305Y-93102312D02*
X126098686Y-93054692D01*
X126098686Y-93054692D02*
X126051067Y-92959454D01*
X126051067Y-92959454D02*
X126051067Y-92673740D01*
X126051067Y-92673740D02*
X126098686Y-92578502D01*
X126098686Y-92578502D02*
X126146305Y-92530883D01*
X126146305Y-92530883D02*
X126241543Y-92483264D01*
X126241543Y-92483264D02*
X126384400Y-92483264D01*
X126384400Y-92483264D02*
X126479638Y-92530883D01*
X126479638Y-92530883D02*
X126527257Y-92578502D01*
X126527257Y-92578502D02*
X126574876Y-92673740D01*
X126574876Y-92673740D02*
X126574876Y-92959454D01*
X126574876Y-92959454D02*
X126527257Y-93054692D01*
X126527257Y-93054692D02*
X126479638Y-93102312D01*
X126479638Y-93102312D02*
X126384400Y-93149931D01*
X126384400Y-93149931D02*
X126241543Y-93149931D01*
X128193924Y-93102312D02*
X128098686Y-93149931D01*
X128098686Y-93149931D02*
X127908210Y-93149931D01*
X127908210Y-93149931D02*
X127812972Y-93102312D01*
X127812972Y-93102312D02*
X127765353Y-93054692D01*
X127765353Y-93054692D02*
X127717734Y-92959454D01*
X127717734Y-92959454D02*
X127717734Y-92673740D01*
X127717734Y-92673740D02*
X127765353Y-92578502D01*
X127765353Y-92578502D02*
X127812972Y-92530883D01*
X127812972Y-92530883D02*
X127908210Y-92483264D01*
X127908210Y-92483264D02*
X128098686Y-92483264D01*
X128098686Y-92483264D02*
X128193924Y-92530883D01*
X128765353Y-93149931D02*
X128670115Y-93102312D01*
X128670115Y-93102312D02*
X128622496Y-93054692D01*
X128622496Y-93054692D02*
X128574877Y-92959454D01*
X128574877Y-92959454D02*
X128574877Y-92673740D01*
X128574877Y-92673740D02*
X128622496Y-92578502D01*
X128622496Y-92578502D02*
X128670115Y-92530883D01*
X128670115Y-92530883D02*
X128765353Y-92483264D01*
X128765353Y-92483264D02*
X128908210Y-92483264D01*
X128908210Y-92483264D02*
X129003448Y-92530883D01*
X129003448Y-92530883D02*
X129051067Y-92578502D01*
X129051067Y-92578502D02*
X129098686Y-92673740D01*
X129098686Y-92673740D02*
X129098686Y-92959454D01*
X129098686Y-92959454D02*
X129051067Y-93054692D01*
X129051067Y-93054692D02*
X129003448Y-93102312D01*
X129003448Y-93102312D02*
X128908210Y-93149931D01*
X128908210Y-93149931D02*
X128765353Y-93149931D01*
X129527258Y-92483264D02*
X129527258Y-93149931D01*
X129527258Y-92578502D02*
X129574877Y-92530883D01*
X129574877Y-92530883D02*
X129670115Y-92483264D01*
X129670115Y-92483264D02*
X129812972Y-92483264D01*
X129812972Y-92483264D02*
X129908210Y-92530883D01*
X129908210Y-92530883D02*
X129955829Y-92626121D01*
X129955829Y-92626121D02*
X129955829Y-93149931D01*
X130432020Y-92483264D02*
X130432020Y-93149931D01*
X130432020Y-92578502D02*
X130479639Y-92530883D01*
X130479639Y-92530883D02*
X130574877Y-92483264D01*
X130574877Y-92483264D02*
X130717734Y-92483264D01*
X130717734Y-92483264D02*
X130812972Y-92530883D01*
X130812972Y-92530883D02*
X130860591Y-92626121D01*
X130860591Y-92626121D02*
X130860591Y-93149931D01*
X131717734Y-93102312D02*
X131622496Y-93149931D01*
X131622496Y-93149931D02*
X131432020Y-93149931D01*
X131432020Y-93149931D02*
X131336782Y-93102312D01*
X131336782Y-93102312D02*
X131289163Y-93007073D01*
X131289163Y-93007073D02*
X131289163Y-92626121D01*
X131289163Y-92626121D02*
X131336782Y-92530883D01*
X131336782Y-92530883D02*
X131432020Y-92483264D01*
X131432020Y-92483264D02*
X131622496Y-92483264D01*
X131622496Y-92483264D02*
X131717734Y-92530883D01*
X131717734Y-92530883D02*
X131765353Y-92626121D01*
X131765353Y-92626121D02*
X131765353Y-92721359D01*
X131765353Y-92721359D02*
X131289163Y-92816597D01*
X132622496Y-93102312D02*
X132527258Y-93149931D01*
X132527258Y-93149931D02*
X132336782Y-93149931D01*
X132336782Y-93149931D02*
X132241544Y-93102312D01*
X132241544Y-93102312D02*
X132193925Y-93054692D01*
X132193925Y-93054692D02*
X132146306Y-92959454D01*
X132146306Y-92959454D02*
X132146306Y-92673740D01*
X132146306Y-92673740D02*
X132193925Y-92578502D01*
X132193925Y-92578502D02*
X132241544Y-92530883D01*
X132241544Y-92530883D02*
X132336782Y-92483264D01*
X132336782Y-92483264D02*
X132527258Y-92483264D01*
X132527258Y-92483264D02*
X132622496Y-92530883D01*
X132908211Y-92483264D02*
X133289163Y-92483264D01*
X133051068Y-92149931D02*
X133051068Y-93007073D01*
X133051068Y-93007073D02*
X133098687Y-93102312D01*
X133098687Y-93102312D02*
X133193925Y-93149931D01*
X133193925Y-93149931D02*
X133289163Y-93149931D01*
X134241545Y-92149931D02*
X134574878Y-93149931D01*
X134574878Y-93149931D02*
X134908211Y-92149931D01*
X135241545Y-93149931D02*
X135241545Y-92483264D01*
X135241545Y-92149931D02*
X135193926Y-92197550D01*
X135193926Y-92197550D02*
X135241545Y-92245169D01*
X135241545Y-92245169D02*
X135289164Y-92197550D01*
X135289164Y-92197550D02*
X135241545Y-92149931D01*
X135241545Y-92149931D02*
X135241545Y-92245169D01*
X135717735Y-92483264D02*
X135717735Y-93149931D01*
X135717735Y-92578502D02*
X135765354Y-92530883D01*
X135765354Y-92530883D02*
X135860592Y-92483264D01*
X135860592Y-92483264D02*
X136003449Y-92483264D01*
X136003449Y-92483264D02*
X136098687Y-92530883D01*
X136098687Y-92530883D02*
X136146306Y-92626121D01*
X136146306Y-92626121D02*
X136146306Y-93149931D01*
X136622497Y-92768978D02*
X137384402Y-92768978D01*
X137003449Y-93149931D02*
X137003449Y-92388026D01*
X139051068Y-93149931D02*
X139051068Y-92626121D01*
X139051068Y-92626121D02*
X139003449Y-92530883D01*
X139003449Y-92530883D02*
X138908211Y-92483264D01*
X138908211Y-92483264D02*
X138717735Y-92483264D01*
X138717735Y-92483264D02*
X138622497Y-92530883D01*
X139051068Y-93102312D02*
X138955830Y-93149931D01*
X138955830Y-93149931D02*
X138717735Y-93149931D01*
X138717735Y-93149931D02*
X138622497Y-93102312D01*
X138622497Y-93102312D02*
X138574878Y-93007073D01*
X138574878Y-93007073D02*
X138574878Y-92911835D01*
X138574878Y-92911835D02*
X138622497Y-92816597D01*
X138622497Y-92816597D02*
X138717735Y-92768978D01*
X138717735Y-92768978D02*
X138955830Y-92768978D01*
X138955830Y-92768978D02*
X139051068Y-92721359D01*
X139527259Y-92483264D02*
X139527259Y-93149931D01*
X139527259Y-92578502D02*
X139574878Y-92530883D01*
X139574878Y-92530883D02*
X139670116Y-92483264D01*
X139670116Y-92483264D02*
X139812973Y-92483264D01*
X139812973Y-92483264D02*
X139908211Y-92530883D01*
X139908211Y-92530883D02*
X139955830Y-92626121D01*
X139955830Y-92626121D02*
X139955830Y-93149931D01*
X140860592Y-93149931D02*
X140860592Y-92149931D01*
X140860592Y-93102312D02*
X140765354Y-93149931D01*
X140765354Y-93149931D02*
X140574878Y-93149931D01*
X140574878Y-93149931D02*
X140479640Y-93102312D01*
X140479640Y-93102312D02*
X140432021Y-93054692D01*
X140432021Y-93054692D02*
X140384402Y-92959454D01*
X140384402Y-92959454D02*
X140384402Y-92673740D01*
X140384402Y-92673740D02*
X140432021Y-92578502D01*
X140432021Y-92578502D02*
X140479640Y-92530883D01*
X140479640Y-92530883D02*
X140574878Y-92483264D01*
X140574878Y-92483264D02*
X140765354Y-92483264D01*
X140765354Y-92483264D02*
X140860592Y-92530883D01*
X141955831Y-92149931D02*
X142289164Y-93149931D01*
X142289164Y-93149931D02*
X142622497Y-92149931D01*
X142955831Y-93149931D02*
X142955831Y-92149931D01*
X142955831Y-92530883D02*
X143051069Y-92483264D01*
X143051069Y-92483264D02*
X143241545Y-92483264D01*
X143241545Y-92483264D02*
X143336783Y-92530883D01*
X143336783Y-92530883D02*
X143384402Y-92578502D01*
X143384402Y-92578502D02*
X143432021Y-92673740D01*
X143432021Y-92673740D02*
X143432021Y-92959454D01*
X143432021Y-92959454D02*
X143384402Y-93054692D01*
X143384402Y-93054692D02*
X143336783Y-93102312D01*
X143336783Y-93102312D02*
X143241545Y-93149931D01*
X143241545Y-93149931D02*
X143051069Y-93149931D01*
X143051069Y-93149931D02*
X142955831Y-93102312D01*
X144289164Y-92483264D02*
X144289164Y-93149931D01*
X143860593Y-92483264D02*
X143860593Y-93007073D01*
X143860593Y-93007073D02*
X143908212Y-93102312D01*
X143908212Y-93102312D02*
X144003450Y-93149931D01*
X144003450Y-93149931D02*
X144146307Y-93149931D01*
X144146307Y-93149931D02*
X144241545Y-93102312D01*
X144241545Y-93102312D02*
X144289164Y-93054692D01*
X144717736Y-93102312D02*
X144812974Y-93149931D01*
X144812974Y-93149931D02*
X145003450Y-93149931D01*
X145003450Y-93149931D02*
X145098688Y-93102312D01*
X145098688Y-93102312D02*
X145146307Y-93007073D01*
X145146307Y-93007073D02*
X145146307Y-92959454D01*
X145146307Y-92959454D02*
X145098688Y-92864216D01*
X145098688Y-92864216D02*
X145003450Y-92816597D01*
X145003450Y-92816597D02*
X144860593Y-92816597D01*
X144860593Y-92816597D02*
X144765355Y-92768978D01*
X144765355Y-92768978D02*
X144717736Y-92673740D01*
X144717736Y-92673740D02*
X144717736Y-92626121D01*
X144717736Y-92626121D02*
X144765355Y-92530883D01*
X144765355Y-92530883D02*
X144860593Y-92483264D01*
X144860593Y-92483264D02*
X145003450Y-92483264D01*
X145003450Y-92483264D02*
X145098688Y-92530883D01*
X117289160Y-94712256D02*
X117432017Y-94759875D01*
X117432017Y-94759875D02*
X117670112Y-94759875D01*
X117670112Y-94759875D02*
X117765350Y-94712256D01*
X117765350Y-94712256D02*
X117812969Y-94664636D01*
X117812969Y-94664636D02*
X117860588Y-94569398D01*
X117860588Y-94569398D02*
X117860588Y-94474160D01*
X117860588Y-94474160D02*
X117812969Y-94378922D01*
X117812969Y-94378922D02*
X117765350Y-94331303D01*
X117765350Y-94331303D02*
X117670112Y-94283684D01*
X117670112Y-94283684D02*
X117479636Y-94236065D01*
X117479636Y-94236065D02*
X117384398Y-94188446D01*
X117384398Y-94188446D02*
X117336779Y-94140827D01*
X117336779Y-94140827D02*
X117289160Y-94045589D01*
X117289160Y-94045589D02*
X117289160Y-93950351D01*
X117289160Y-93950351D02*
X117336779Y-93855113D01*
X117336779Y-93855113D02*
X117384398Y-93807494D01*
X117384398Y-93807494D02*
X117479636Y-93759875D01*
X117479636Y-93759875D02*
X117717731Y-93759875D01*
X117717731Y-93759875D02*
X117860588Y-93807494D01*
X118289160Y-94759875D02*
X118289160Y-93759875D01*
X118717731Y-94759875D02*
X118717731Y-94236065D01*
X118717731Y-94236065D02*
X118670112Y-94140827D01*
X118670112Y-94140827D02*
X118574874Y-94093208D01*
X118574874Y-94093208D02*
X118432017Y-94093208D01*
X118432017Y-94093208D02*
X118336779Y-94140827D01*
X118336779Y-94140827D02*
X118289160Y-94188446D01*
X119336779Y-94759875D02*
X119241541Y-94712256D01*
X119241541Y-94712256D02*
X119193922Y-94664636D01*
X119193922Y-94664636D02*
X119146303Y-94569398D01*
X119146303Y-94569398D02*
X119146303Y-94283684D01*
X119146303Y-94283684D02*
X119193922Y-94188446D01*
X119193922Y-94188446D02*
X119241541Y-94140827D01*
X119241541Y-94140827D02*
X119336779Y-94093208D01*
X119336779Y-94093208D02*
X119479636Y-94093208D01*
X119479636Y-94093208D02*
X119574874Y-94140827D01*
X119574874Y-94140827D02*
X119622493Y-94188446D01*
X119622493Y-94188446D02*
X119670112Y-94283684D01*
X119670112Y-94283684D02*
X119670112Y-94569398D01*
X119670112Y-94569398D02*
X119622493Y-94664636D01*
X119622493Y-94664636D02*
X119574874Y-94712256D01*
X119574874Y-94712256D02*
X119479636Y-94759875D01*
X119479636Y-94759875D02*
X119336779Y-94759875D01*
X120098684Y-94759875D02*
X120098684Y-94093208D01*
X120098684Y-94283684D02*
X120146303Y-94188446D01*
X120146303Y-94188446D02*
X120193922Y-94140827D01*
X120193922Y-94140827D02*
X120289160Y-94093208D01*
X120289160Y-94093208D02*
X120384398Y-94093208D01*
X120574875Y-94093208D02*
X120955827Y-94093208D01*
X120717732Y-93759875D02*
X120717732Y-94617017D01*
X120717732Y-94617017D02*
X120765351Y-94712256D01*
X120765351Y-94712256D02*
X120860589Y-94759875D01*
X120860589Y-94759875D02*
X120955827Y-94759875D01*
X122336780Y-93759875D02*
X122336780Y-94474160D01*
X122336780Y-94474160D02*
X122289161Y-94617017D01*
X122289161Y-94617017D02*
X122193923Y-94712256D01*
X122193923Y-94712256D02*
X122051066Y-94759875D01*
X122051066Y-94759875D02*
X121955828Y-94759875D01*
X122812971Y-94759875D02*
X122812971Y-93759875D01*
X122812971Y-93759875D02*
X123193923Y-93759875D01*
X123193923Y-93759875D02*
X123289161Y-93807494D01*
X123289161Y-93807494D02*
X123336780Y-93855113D01*
X123336780Y-93855113D02*
X123384399Y-93950351D01*
X123384399Y-93950351D02*
X123384399Y-94093208D01*
X123384399Y-94093208D02*
X123336780Y-94188446D01*
X123336780Y-94188446D02*
X123289161Y-94236065D01*
X123289161Y-94236065D02*
X123193923Y-94283684D01*
X123193923Y-94283684D02*
X122812971Y-94283684D01*
X123765352Y-93855113D02*
X123812971Y-93807494D01*
X123812971Y-93807494D02*
X123908209Y-93759875D01*
X123908209Y-93759875D02*
X124146304Y-93759875D01*
X124146304Y-93759875D02*
X124241542Y-93807494D01*
X124241542Y-93807494D02*
X124289161Y-93855113D01*
X124289161Y-93855113D02*
X124336780Y-93950351D01*
X124336780Y-93950351D02*
X124336780Y-94045589D01*
X124336780Y-94045589D02*
X124289161Y-94188446D01*
X124289161Y-94188446D02*
X123717733Y-94759875D01*
X123717733Y-94759875D02*
X124336780Y-94759875D01*
X125384400Y-94093208D02*
X125765352Y-94093208D01*
X125527257Y-93759875D02*
X125527257Y-94617017D01*
X125527257Y-94617017D02*
X125574876Y-94712256D01*
X125574876Y-94712256D02*
X125670114Y-94759875D01*
X125670114Y-94759875D02*
X125765352Y-94759875D01*
X126241543Y-94759875D02*
X126146305Y-94712256D01*
X126146305Y-94712256D02*
X126098686Y-94664636D01*
X126098686Y-94664636D02*
X126051067Y-94569398D01*
X126051067Y-94569398D02*
X126051067Y-94283684D01*
X126051067Y-94283684D02*
X126098686Y-94188446D01*
X126098686Y-94188446D02*
X126146305Y-94140827D01*
X126146305Y-94140827D02*
X126241543Y-94093208D01*
X126241543Y-94093208D02*
X126384400Y-94093208D01*
X126384400Y-94093208D02*
X126479638Y-94140827D01*
X126479638Y-94140827D02*
X126527257Y-94188446D01*
X126527257Y-94188446D02*
X126574876Y-94283684D01*
X126574876Y-94283684D02*
X126574876Y-94569398D01*
X126574876Y-94569398D02*
X126527257Y-94664636D01*
X126527257Y-94664636D02*
X126479638Y-94712256D01*
X126479638Y-94712256D02*
X126384400Y-94759875D01*
X126384400Y-94759875D02*
X126241543Y-94759875D01*
X128193924Y-94712256D02*
X128098686Y-94759875D01*
X128098686Y-94759875D02*
X127908210Y-94759875D01*
X127908210Y-94759875D02*
X127812972Y-94712256D01*
X127812972Y-94712256D02*
X127765353Y-94664636D01*
X127765353Y-94664636D02*
X127717734Y-94569398D01*
X127717734Y-94569398D02*
X127717734Y-94283684D01*
X127717734Y-94283684D02*
X127765353Y-94188446D01*
X127765353Y-94188446D02*
X127812972Y-94140827D01*
X127812972Y-94140827D02*
X127908210Y-94093208D01*
X127908210Y-94093208D02*
X128098686Y-94093208D01*
X128098686Y-94093208D02*
X128193924Y-94140827D01*
X128765353Y-94759875D02*
X128670115Y-94712256D01*
X128670115Y-94712256D02*
X128622496Y-94664636D01*
X128622496Y-94664636D02*
X128574877Y-94569398D01*
X128574877Y-94569398D02*
X128574877Y-94283684D01*
X128574877Y-94283684D02*
X128622496Y-94188446D01*
X128622496Y-94188446D02*
X128670115Y-94140827D01*
X128670115Y-94140827D02*
X128765353Y-94093208D01*
X128765353Y-94093208D02*
X128908210Y-94093208D01*
X128908210Y-94093208D02*
X129003448Y-94140827D01*
X129003448Y-94140827D02*
X129051067Y-94188446D01*
X129051067Y-94188446D02*
X129098686Y-94283684D01*
X129098686Y-94283684D02*
X129098686Y-94569398D01*
X129098686Y-94569398D02*
X129051067Y-94664636D01*
X129051067Y-94664636D02*
X129003448Y-94712256D01*
X129003448Y-94712256D02*
X128908210Y-94759875D01*
X128908210Y-94759875D02*
X128765353Y-94759875D01*
X129527258Y-94093208D02*
X129527258Y-94759875D01*
X129527258Y-94188446D02*
X129574877Y-94140827D01*
X129574877Y-94140827D02*
X129670115Y-94093208D01*
X129670115Y-94093208D02*
X129812972Y-94093208D01*
X129812972Y-94093208D02*
X129908210Y-94140827D01*
X129908210Y-94140827D02*
X129955829Y-94236065D01*
X129955829Y-94236065D02*
X129955829Y-94759875D01*
X130432020Y-94093208D02*
X130432020Y-94759875D01*
X130432020Y-94188446D02*
X130479639Y-94140827D01*
X130479639Y-94140827D02*
X130574877Y-94093208D01*
X130574877Y-94093208D02*
X130717734Y-94093208D01*
X130717734Y-94093208D02*
X130812972Y-94140827D01*
X130812972Y-94140827D02*
X130860591Y-94236065D01*
X130860591Y-94236065D02*
X130860591Y-94759875D01*
X131717734Y-94712256D02*
X131622496Y-94759875D01*
X131622496Y-94759875D02*
X131432020Y-94759875D01*
X131432020Y-94759875D02*
X131336782Y-94712256D01*
X131336782Y-94712256D02*
X131289163Y-94617017D01*
X131289163Y-94617017D02*
X131289163Y-94236065D01*
X131289163Y-94236065D02*
X131336782Y-94140827D01*
X131336782Y-94140827D02*
X131432020Y-94093208D01*
X131432020Y-94093208D02*
X131622496Y-94093208D01*
X131622496Y-94093208D02*
X131717734Y-94140827D01*
X131717734Y-94140827D02*
X131765353Y-94236065D01*
X131765353Y-94236065D02*
X131765353Y-94331303D01*
X131765353Y-94331303D02*
X131289163Y-94426541D01*
X132622496Y-94712256D02*
X132527258Y-94759875D01*
X132527258Y-94759875D02*
X132336782Y-94759875D01*
X132336782Y-94759875D02*
X132241544Y-94712256D01*
X132241544Y-94712256D02*
X132193925Y-94664636D01*
X132193925Y-94664636D02*
X132146306Y-94569398D01*
X132146306Y-94569398D02*
X132146306Y-94283684D01*
X132146306Y-94283684D02*
X132193925Y-94188446D01*
X132193925Y-94188446D02*
X132241544Y-94140827D01*
X132241544Y-94140827D02*
X132336782Y-94093208D01*
X132336782Y-94093208D02*
X132527258Y-94093208D01*
X132527258Y-94093208D02*
X132622496Y-94140827D01*
X132908211Y-94093208D02*
X133289163Y-94093208D01*
X133051068Y-93759875D02*
X133051068Y-94617017D01*
X133051068Y-94617017D02*
X133098687Y-94712256D01*
X133098687Y-94712256D02*
X133193925Y-94759875D01*
X133193925Y-94759875D02*
X133289163Y-94759875D01*
X134336783Y-94474160D02*
X134812973Y-94474160D01*
X134241545Y-94759875D02*
X134574878Y-93759875D01*
X134574878Y-93759875D02*
X134908211Y-94759875D01*
X135241545Y-94759875D02*
X135241545Y-93759875D01*
X135241545Y-93759875D02*
X135479640Y-93759875D01*
X135479640Y-93759875D02*
X135622497Y-93807494D01*
X135622497Y-93807494D02*
X135717735Y-93902732D01*
X135717735Y-93902732D02*
X135765354Y-93997970D01*
X135765354Y-93997970D02*
X135812973Y-94188446D01*
X135812973Y-94188446D02*
X135812973Y-94331303D01*
X135812973Y-94331303D02*
X135765354Y-94521779D01*
X135765354Y-94521779D02*
X135717735Y-94617017D01*
X135717735Y-94617017D02*
X135622497Y-94712256D01*
X135622497Y-94712256D02*
X135479640Y-94759875D01*
X135479640Y-94759875D02*
X135241545Y-94759875D01*
X136241545Y-94759875D02*
X136241545Y-93759875D01*
X136241545Y-93759875D02*
X136479640Y-93759875D01*
X136479640Y-93759875D02*
X136622497Y-93807494D01*
X136622497Y-93807494D02*
X136717735Y-93902732D01*
X136717735Y-93902732D02*
X136765354Y-93997970D01*
X136765354Y-93997970D02*
X136812973Y-94188446D01*
X136812973Y-94188446D02*
X136812973Y-94331303D01*
X136812973Y-94331303D02*
X136765354Y-94521779D01*
X136765354Y-94521779D02*
X136717735Y-94617017D01*
X136717735Y-94617017D02*
X136622497Y-94712256D01*
X136622497Y-94712256D02*
X136479640Y-94759875D01*
X136479640Y-94759875D02*
X136241545Y-94759875D01*
X137812973Y-94759875D02*
X137479640Y-94283684D01*
X137241545Y-94759875D02*
X137241545Y-93759875D01*
X137241545Y-93759875D02*
X137622497Y-93759875D01*
X137622497Y-93759875D02*
X137717735Y-93807494D01*
X137717735Y-93807494D02*
X137765354Y-93855113D01*
X137765354Y-93855113D02*
X137812973Y-93950351D01*
X137812973Y-93950351D02*
X137812973Y-94093208D01*
X137812973Y-94093208D02*
X137765354Y-94188446D01*
X137765354Y-94188446D02*
X137717735Y-94236065D01*
X137717735Y-94236065D02*
X137622497Y-94283684D01*
X137622497Y-94283684D02*
X137241545Y-94283684D01*
X138765354Y-94759875D02*
X138193926Y-94759875D01*
X138479640Y-94759875D02*
X138479640Y-93759875D01*
X138479640Y-93759875D02*
X138384402Y-93902732D01*
X138384402Y-93902732D02*
X138289164Y-93997970D01*
X138289164Y-93997970D02*
X138193926Y-94045589D01*
X140384402Y-94759875D02*
X140384402Y-94236065D01*
X140384402Y-94236065D02*
X140336783Y-94140827D01*
X140336783Y-94140827D02*
X140241545Y-94093208D01*
X140241545Y-94093208D02*
X140051069Y-94093208D01*
X140051069Y-94093208D02*
X139955831Y-94140827D01*
X140384402Y-94712256D02*
X140289164Y-94759875D01*
X140289164Y-94759875D02*
X140051069Y-94759875D01*
X140051069Y-94759875D02*
X139955831Y-94712256D01*
X139955831Y-94712256D02*
X139908212Y-94617017D01*
X139908212Y-94617017D02*
X139908212Y-94521779D01*
X139908212Y-94521779D02*
X139955831Y-94426541D01*
X139955831Y-94426541D02*
X140051069Y-94378922D01*
X140051069Y-94378922D02*
X140289164Y-94378922D01*
X140289164Y-94378922D02*
X140384402Y-94331303D01*
X140860593Y-94093208D02*
X140860593Y-94759875D01*
X140860593Y-94188446D02*
X140908212Y-94140827D01*
X140908212Y-94140827D02*
X141003450Y-94093208D01*
X141003450Y-94093208D02*
X141146307Y-94093208D01*
X141146307Y-94093208D02*
X141241545Y-94140827D01*
X141241545Y-94140827D02*
X141289164Y-94236065D01*
X141289164Y-94236065D02*
X141289164Y-94759875D01*
X142193926Y-94759875D02*
X142193926Y-93759875D01*
X142193926Y-94712256D02*
X142098688Y-94759875D01*
X142098688Y-94759875D02*
X141908212Y-94759875D01*
X141908212Y-94759875D02*
X141812974Y-94712256D01*
X141812974Y-94712256D02*
X141765355Y-94664636D01*
X141765355Y-94664636D02*
X141717736Y-94569398D01*
X141717736Y-94569398D02*
X141717736Y-94283684D01*
X141717736Y-94283684D02*
X141765355Y-94188446D01*
X141765355Y-94188446D02*
X141812974Y-94140827D01*
X141812974Y-94140827D02*
X141908212Y-94093208D01*
X141908212Y-94093208D02*
X142098688Y-94093208D01*
X142098688Y-94093208D02*
X142193926Y-94140827D01*
X143289165Y-93759875D02*
X143622498Y-94759875D01*
X143622498Y-94759875D02*
X143955831Y-93759875D01*
X144860593Y-94664636D02*
X144812974Y-94712256D01*
X144812974Y-94712256D02*
X144670117Y-94759875D01*
X144670117Y-94759875D02*
X144574879Y-94759875D01*
X144574879Y-94759875D02*
X144432022Y-94712256D01*
X144432022Y-94712256D02*
X144336784Y-94617017D01*
X144336784Y-94617017D02*
X144289165Y-94521779D01*
X144289165Y-94521779D02*
X144241546Y-94331303D01*
X144241546Y-94331303D02*
X144241546Y-94188446D01*
X144241546Y-94188446D02*
X144289165Y-93997970D01*
X144289165Y-93997970D02*
X144336784Y-93902732D01*
X144336784Y-93902732D02*
X144432022Y-93807494D01*
X144432022Y-93807494D02*
X144574879Y-93759875D01*
X144574879Y-93759875D02*
X144670117Y-93759875D01*
X144670117Y-93759875D02*
X144812974Y-93807494D01*
X144812974Y-93807494D02*
X144860593Y-93855113D01*
X145860593Y-94664636D02*
X145812974Y-94712256D01*
X145812974Y-94712256D02*
X145670117Y-94759875D01*
X145670117Y-94759875D02*
X145574879Y-94759875D01*
X145574879Y-94759875D02*
X145432022Y-94712256D01*
X145432022Y-94712256D02*
X145336784Y-94617017D01*
X145336784Y-94617017D02*
X145289165Y-94521779D01*
X145289165Y-94521779D02*
X145241546Y-94331303D01*
X145241546Y-94331303D02*
X145241546Y-94188446D01*
X145241546Y-94188446D02*
X145289165Y-93997970D01*
X145289165Y-93997970D02*
X145336784Y-93902732D01*
X145336784Y-93902732D02*
X145432022Y-93807494D01*
X145432022Y-93807494D02*
X145574879Y-93759875D01*
X145574879Y-93759875D02*
X145670117Y-93759875D01*
X145670117Y-93759875D02*
X145812974Y-93807494D01*
X145812974Y-93807494D02*
X145860593Y-93855113D01*
X117289160Y-96322200D02*
X117432017Y-96369819D01*
X117432017Y-96369819D02*
X117670112Y-96369819D01*
X117670112Y-96369819D02*
X117765350Y-96322200D01*
X117765350Y-96322200D02*
X117812969Y-96274580D01*
X117812969Y-96274580D02*
X117860588Y-96179342D01*
X117860588Y-96179342D02*
X117860588Y-96084104D01*
X117860588Y-96084104D02*
X117812969Y-95988866D01*
X117812969Y-95988866D02*
X117765350Y-95941247D01*
X117765350Y-95941247D02*
X117670112Y-95893628D01*
X117670112Y-95893628D02*
X117479636Y-95846009D01*
X117479636Y-95846009D02*
X117384398Y-95798390D01*
X117384398Y-95798390D02*
X117336779Y-95750771D01*
X117336779Y-95750771D02*
X117289160Y-95655533D01*
X117289160Y-95655533D02*
X117289160Y-95560295D01*
X117289160Y-95560295D02*
X117336779Y-95465057D01*
X117336779Y-95465057D02*
X117384398Y-95417438D01*
X117384398Y-95417438D02*
X117479636Y-95369819D01*
X117479636Y-95369819D02*
X117717731Y-95369819D01*
X117717731Y-95369819D02*
X117860588Y-95417438D01*
X118289160Y-96369819D02*
X118289160Y-95369819D01*
X118717731Y-96369819D02*
X118717731Y-95846009D01*
X118717731Y-95846009D02*
X118670112Y-95750771D01*
X118670112Y-95750771D02*
X118574874Y-95703152D01*
X118574874Y-95703152D02*
X118432017Y-95703152D01*
X118432017Y-95703152D02*
X118336779Y-95750771D01*
X118336779Y-95750771D02*
X118289160Y-95798390D01*
X119336779Y-96369819D02*
X119241541Y-96322200D01*
X119241541Y-96322200D02*
X119193922Y-96274580D01*
X119193922Y-96274580D02*
X119146303Y-96179342D01*
X119146303Y-96179342D02*
X119146303Y-95893628D01*
X119146303Y-95893628D02*
X119193922Y-95798390D01*
X119193922Y-95798390D02*
X119241541Y-95750771D01*
X119241541Y-95750771D02*
X119336779Y-95703152D01*
X119336779Y-95703152D02*
X119479636Y-95703152D01*
X119479636Y-95703152D02*
X119574874Y-95750771D01*
X119574874Y-95750771D02*
X119622493Y-95798390D01*
X119622493Y-95798390D02*
X119670112Y-95893628D01*
X119670112Y-95893628D02*
X119670112Y-96179342D01*
X119670112Y-96179342D02*
X119622493Y-96274580D01*
X119622493Y-96274580D02*
X119574874Y-96322200D01*
X119574874Y-96322200D02*
X119479636Y-96369819D01*
X119479636Y-96369819D02*
X119336779Y-96369819D01*
X120098684Y-96369819D02*
X120098684Y-95703152D01*
X120098684Y-95893628D02*
X120146303Y-95798390D01*
X120146303Y-95798390D02*
X120193922Y-95750771D01*
X120193922Y-95750771D02*
X120289160Y-95703152D01*
X120289160Y-95703152D02*
X120384398Y-95703152D01*
X120574875Y-95703152D02*
X120955827Y-95703152D01*
X120717732Y-95369819D02*
X120717732Y-96226961D01*
X120717732Y-96226961D02*
X120765351Y-96322200D01*
X120765351Y-96322200D02*
X120860589Y-96369819D01*
X120860589Y-96369819D02*
X120955827Y-96369819D01*
X122336780Y-95369819D02*
X122336780Y-96084104D01*
X122336780Y-96084104D02*
X122289161Y-96226961D01*
X122289161Y-96226961D02*
X122193923Y-96322200D01*
X122193923Y-96322200D02*
X122051066Y-96369819D01*
X122051066Y-96369819D02*
X121955828Y-96369819D01*
X122812971Y-96369819D02*
X122812971Y-95369819D01*
X122812971Y-95369819D02*
X123193923Y-95369819D01*
X123193923Y-95369819D02*
X123289161Y-95417438D01*
X123289161Y-95417438D02*
X123336780Y-95465057D01*
X123336780Y-95465057D02*
X123384399Y-95560295D01*
X123384399Y-95560295D02*
X123384399Y-95703152D01*
X123384399Y-95703152D02*
X123336780Y-95798390D01*
X123336780Y-95798390D02*
X123289161Y-95846009D01*
X123289161Y-95846009D02*
X123193923Y-95893628D01*
X123193923Y-95893628D02*
X122812971Y-95893628D01*
X123717733Y-95369819D02*
X124336780Y-95369819D01*
X124336780Y-95369819D02*
X124003447Y-95750771D01*
X124003447Y-95750771D02*
X124146304Y-95750771D01*
X124146304Y-95750771D02*
X124241542Y-95798390D01*
X124241542Y-95798390D02*
X124289161Y-95846009D01*
X124289161Y-95846009D02*
X124336780Y-95941247D01*
X124336780Y-95941247D02*
X124336780Y-96179342D01*
X124336780Y-96179342D02*
X124289161Y-96274580D01*
X124289161Y-96274580D02*
X124241542Y-96322200D01*
X124241542Y-96322200D02*
X124146304Y-96369819D01*
X124146304Y-96369819D02*
X123860590Y-96369819D01*
X123860590Y-96369819D02*
X123765352Y-96322200D01*
X123765352Y-96322200D02*
X123717733Y-96274580D01*
X125384400Y-95703152D02*
X125765352Y-95703152D01*
X125527257Y-95369819D02*
X125527257Y-96226961D01*
X125527257Y-96226961D02*
X125574876Y-96322200D01*
X125574876Y-96322200D02*
X125670114Y-96369819D01*
X125670114Y-96369819D02*
X125765352Y-96369819D01*
X126241543Y-96369819D02*
X126146305Y-96322200D01*
X126146305Y-96322200D02*
X126098686Y-96274580D01*
X126098686Y-96274580D02*
X126051067Y-96179342D01*
X126051067Y-96179342D02*
X126051067Y-95893628D01*
X126051067Y-95893628D02*
X126098686Y-95798390D01*
X126098686Y-95798390D02*
X126146305Y-95750771D01*
X126146305Y-95750771D02*
X126241543Y-95703152D01*
X126241543Y-95703152D02*
X126384400Y-95703152D01*
X126384400Y-95703152D02*
X126479638Y-95750771D01*
X126479638Y-95750771D02*
X126527257Y-95798390D01*
X126527257Y-95798390D02*
X126574876Y-95893628D01*
X126574876Y-95893628D02*
X126574876Y-96179342D01*
X126574876Y-96179342D02*
X126527257Y-96274580D01*
X126527257Y-96274580D02*
X126479638Y-96322200D01*
X126479638Y-96322200D02*
X126384400Y-96369819D01*
X126384400Y-96369819D02*
X126241543Y-96369819D01*
X128193924Y-96322200D02*
X128098686Y-96369819D01*
X128098686Y-96369819D02*
X127908210Y-96369819D01*
X127908210Y-96369819D02*
X127812972Y-96322200D01*
X127812972Y-96322200D02*
X127765353Y-96274580D01*
X127765353Y-96274580D02*
X127717734Y-96179342D01*
X127717734Y-96179342D02*
X127717734Y-95893628D01*
X127717734Y-95893628D02*
X127765353Y-95798390D01*
X127765353Y-95798390D02*
X127812972Y-95750771D01*
X127812972Y-95750771D02*
X127908210Y-95703152D01*
X127908210Y-95703152D02*
X128098686Y-95703152D01*
X128098686Y-95703152D02*
X128193924Y-95750771D01*
X128765353Y-96369819D02*
X128670115Y-96322200D01*
X128670115Y-96322200D02*
X128622496Y-96274580D01*
X128622496Y-96274580D02*
X128574877Y-96179342D01*
X128574877Y-96179342D02*
X128574877Y-95893628D01*
X128574877Y-95893628D02*
X128622496Y-95798390D01*
X128622496Y-95798390D02*
X128670115Y-95750771D01*
X128670115Y-95750771D02*
X128765353Y-95703152D01*
X128765353Y-95703152D02*
X128908210Y-95703152D01*
X128908210Y-95703152D02*
X129003448Y-95750771D01*
X129003448Y-95750771D02*
X129051067Y-95798390D01*
X129051067Y-95798390D02*
X129098686Y-95893628D01*
X129098686Y-95893628D02*
X129098686Y-96179342D01*
X129098686Y-96179342D02*
X129051067Y-96274580D01*
X129051067Y-96274580D02*
X129003448Y-96322200D01*
X129003448Y-96322200D02*
X128908210Y-96369819D01*
X128908210Y-96369819D02*
X128765353Y-96369819D01*
X129527258Y-95703152D02*
X129527258Y-96369819D01*
X129527258Y-95798390D02*
X129574877Y-95750771D01*
X129574877Y-95750771D02*
X129670115Y-95703152D01*
X129670115Y-95703152D02*
X129812972Y-95703152D01*
X129812972Y-95703152D02*
X129908210Y-95750771D01*
X129908210Y-95750771D02*
X129955829Y-95846009D01*
X129955829Y-95846009D02*
X129955829Y-96369819D01*
X130432020Y-95703152D02*
X130432020Y-96369819D01*
X130432020Y-95798390D02*
X130479639Y-95750771D01*
X130479639Y-95750771D02*
X130574877Y-95703152D01*
X130574877Y-95703152D02*
X130717734Y-95703152D01*
X130717734Y-95703152D02*
X130812972Y-95750771D01*
X130812972Y-95750771D02*
X130860591Y-95846009D01*
X130860591Y-95846009D02*
X130860591Y-96369819D01*
X131717734Y-96322200D02*
X131622496Y-96369819D01*
X131622496Y-96369819D02*
X131432020Y-96369819D01*
X131432020Y-96369819D02*
X131336782Y-96322200D01*
X131336782Y-96322200D02*
X131289163Y-96226961D01*
X131289163Y-96226961D02*
X131289163Y-95846009D01*
X131289163Y-95846009D02*
X131336782Y-95750771D01*
X131336782Y-95750771D02*
X131432020Y-95703152D01*
X131432020Y-95703152D02*
X131622496Y-95703152D01*
X131622496Y-95703152D02*
X131717734Y-95750771D01*
X131717734Y-95750771D02*
X131765353Y-95846009D01*
X131765353Y-95846009D02*
X131765353Y-95941247D01*
X131765353Y-95941247D02*
X131289163Y-96036485D01*
X132622496Y-96322200D02*
X132527258Y-96369819D01*
X132527258Y-96369819D02*
X132336782Y-96369819D01*
X132336782Y-96369819D02*
X132241544Y-96322200D01*
X132241544Y-96322200D02*
X132193925Y-96274580D01*
X132193925Y-96274580D02*
X132146306Y-96179342D01*
X132146306Y-96179342D02*
X132146306Y-95893628D01*
X132146306Y-95893628D02*
X132193925Y-95798390D01*
X132193925Y-95798390D02*
X132241544Y-95750771D01*
X132241544Y-95750771D02*
X132336782Y-95703152D01*
X132336782Y-95703152D02*
X132527258Y-95703152D01*
X132527258Y-95703152D02*
X132622496Y-95750771D01*
X132908211Y-95703152D02*
X133289163Y-95703152D01*
X133051068Y-95369819D02*
X133051068Y-96226961D01*
X133051068Y-96226961D02*
X133098687Y-96322200D01*
X133098687Y-96322200D02*
X133193925Y-96369819D01*
X133193925Y-96369819D02*
X133289163Y-96369819D01*
X134336783Y-96084104D02*
X134812973Y-96084104D01*
X134241545Y-96369819D02*
X134574878Y-95369819D01*
X134574878Y-95369819D02*
X134908211Y-96369819D01*
X135241545Y-96369819D02*
X135241545Y-95369819D01*
X135241545Y-95369819D02*
X135479640Y-95369819D01*
X135479640Y-95369819D02*
X135622497Y-95417438D01*
X135622497Y-95417438D02*
X135717735Y-95512676D01*
X135717735Y-95512676D02*
X135765354Y-95607914D01*
X135765354Y-95607914D02*
X135812973Y-95798390D01*
X135812973Y-95798390D02*
X135812973Y-95941247D01*
X135812973Y-95941247D02*
X135765354Y-96131723D01*
X135765354Y-96131723D02*
X135717735Y-96226961D01*
X135717735Y-96226961D02*
X135622497Y-96322200D01*
X135622497Y-96322200D02*
X135479640Y-96369819D01*
X135479640Y-96369819D02*
X135241545Y-96369819D01*
X136241545Y-96369819D02*
X136241545Y-95369819D01*
X136241545Y-95369819D02*
X136479640Y-95369819D01*
X136479640Y-95369819D02*
X136622497Y-95417438D01*
X136622497Y-95417438D02*
X136717735Y-95512676D01*
X136717735Y-95512676D02*
X136765354Y-95607914D01*
X136765354Y-95607914D02*
X136812973Y-95798390D01*
X136812973Y-95798390D02*
X136812973Y-95941247D01*
X136812973Y-95941247D02*
X136765354Y-96131723D01*
X136765354Y-96131723D02*
X136717735Y-96226961D01*
X136717735Y-96226961D02*
X136622497Y-96322200D01*
X136622497Y-96322200D02*
X136479640Y-96369819D01*
X136479640Y-96369819D02*
X136241545Y-96369819D01*
X137812973Y-96369819D02*
X137479640Y-95893628D01*
X137241545Y-96369819D02*
X137241545Y-95369819D01*
X137241545Y-95369819D02*
X137622497Y-95369819D01*
X137622497Y-95369819D02*
X137717735Y-95417438D01*
X137717735Y-95417438D02*
X137765354Y-95465057D01*
X137765354Y-95465057D02*
X137812973Y-95560295D01*
X137812973Y-95560295D02*
X137812973Y-95703152D01*
X137812973Y-95703152D02*
X137765354Y-95798390D01*
X137765354Y-95798390D02*
X137717735Y-95846009D01*
X137717735Y-95846009D02*
X137622497Y-95893628D01*
X137622497Y-95893628D02*
X137241545Y-95893628D01*
X138193926Y-95465057D02*
X138241545Y-95417438D01*
X138241545Y-95417438D02*
X138336783Y-95369819D01*
X138336783Y-95369819D02*
X138574878Y-95369819D01*
X138574878Y-95369819D02*
X138670116Y-95417438D01*
X138670116Y-95417438D02*
X138717735Y-95465057D01*
X138717735Y-95465057D02*
X138765354Y-95560295D01*
X138765354Y-95560295D02*
X138765354Y-95655533D01*
X138765354Y-95655533D02*
X138717735Y-95798390D01*
X138717735Y-95798390D02*
X138146307Y-96369819D01*
X138146307Y-96369819D02*
X138765354Y-96369819D01*
X140384402Y-96369819D02*
X140384402Y-95846009D01*
X140384402Y-95846009D02*
X140336783Y-95750771D01*
X140336783Y-95750771D02*
X140241545Y-95703152D01*
X140241545Y-95703152D02*
X140051069Y-95703152D01*
X140051069Y-95703152D02*
X139955831Y-95750771D01*
X140384402Y-96322200D02*
X140289164Y-96369819D01*
X140289164Y-96369819D02*
X140051069Y-96369819D01*
X140051069Y-96369819D02*
X139955831Y-96322200D01*
X139955831Y-96322200D02*
X139908212Y-96226961D01*
X139908212Y-96226961D02*
X139908212Y-96131723D01*
X139908212Y-96131723D02*
X139955831Y-96036485D01*
X139955831Y-96036485D02*
X140051069Y-95988866D01*
X140051069Y-95988866D02*
X140289164Y-95988866D01*
X140289164Y-95988866D02*
X140384402Y-95941247D01*
X140860593Y-95703152D02*
X140860593Y-96369819D01*
X140860593Y-95798390D02*
X140908212Y-95750771D01*
X140908212Y-95750771D02*
X141003450Y-95703152D01*
X141003450Y-95703152D02*
X141146307Y-95703152D01*
X141146307Y-95703152D02*
X141241545Y-95750771D01*
X141241545Y-95750771D02*
X141289164Y-95846009D01*
X141289164Y-95846009D02*
X141289164Y-96369819D01*
X142193926Y-96369819D02*
X142193926Y-95369819D01*
X142193926Y-96322200D02*
X142098688Y-96369819D01*
X142098688Y-96369819D02*
X141908212Y-96369819D01*
X141908212Y-96369819D02*
X141812974Y-96322200D01*
X141812974Y-96322200D02*
X141765355Y-96274580D01*
X141765355Y-96274580D02*
X141717736Y-96179342D01*
X141717736Y-96179342D02*
X141717736Y-95893628D01*
X141717736Y-95893628D02*
X141765355Y-95798390D01*
X141765355Y-95798390D02*
X141812974Y-95750771D01*
X141812974Y-95750771D02*
X141908212Y-95703152D01*
X141908212Y-95703152D02*
X142098688Y-95703152D01*
X142098688Y-95703152D02*
X142193926Y-95750771D01*
X143289165Y-95369819D02*
X143622498Y-96369819D01*
X143622498Y-96369819D02*
X143955831Y-95369819D01*
X144860593Y-96274580D02*
X144812974Y-96322200D01*
X144812974Y-96322200D02*
X144670117Y-96369819D01*
X144670117Y-96369819D02*
X144574879Y-96369819D01*
X144574879Y-96369819D02*
X144432022Y-96322200D01*
X144432022Y-96322200D02*
X144336784Y-96226961D01*
X144336784Y-96226961D02*
X144289165Y-96131723D01*
X144289165Y-96131723D02*
X144241546Y-95941247D01*
X144241546Y-95941247D02*
X144241546Y-95798390D01*
X144241546Y-95798390D02*
X144289165Y-95607914D01*
X144289165Y-95607914D02*
X144336784Y-95512676D01*
X144336784Y-95512676D02*
X144432022Y-95417438D01*
X144432022Y-95417438D02*
X144574879Y-95369819D01*
X144574879Y-95369819D02*
X144670117Y-95369819D01*
X144670117Y-95369819D02*
X144812974Y-95417438D01*
X144812974Y-95417438D02*
X144860593Y-95465057D01*
X145860593Y-96274580D02*
X145812974Y-96322200D01*
X145812974Y-96322200D02*
X145670117Y-96369819D01*
X145670117Y-96369819D02*
X145574879Y-96369819D01*
X145574879Y-96369819D02*
X145432022Y-96322200D01*
X145432022Y-96322200D02*
X145336784Y-96226961D01*
X145336784Y-96226961D02*
X145289165Y-96131723D01*
X145289165Y-96131723D02*
X145241546Y-95941247D01*
X145241546Y-95941247D02*
X145241546Y-95798390D01*
X145241546Y-95798390D02*
X145289165Y-95607914D01*
X145289165Y-95607914D02*
X145336784Y-95512676D01*
X145336784Y-95512676D02*
X145432022Y-95417438D01*
X145432022Y-95417438D02*
X145574879Y-95369819D01*
X145574879Y-95369819D02*
X145670117Y-95369819D01*
X145670117Y-95369819D02*
X145812974Y-95417438D01*
X145812974Y-95417438D02*
X145860593Y-95465057D01*
X109744819Y-87756077D02*
X110744819Y-87422744D01*
X110744819Y-87422744D02*
X109744819Y-87089411D01*
X110744819Y-86756077D02*
X109744819Y-86756077D01*
X110125771Y-86756077D02*
X110078152Y-86660839D01*
X110078152Y-86660839D02*
X110078152Y-86470363D01*
X110078152Y-86470363D02*
X110125771Y-86375125D01*
X110125771Y-86375125D02*
X110173390Y-86327506D01*
X110173390Y-86327506D02*
X110268628Y-86279887D01*
X110268628Y-86279887D02*
X110554342Y-86279887D01*
X110554342Y-86279887D02*
X110649580Y-86327506D01*
X110649580Y-86327506D02*
X110697200Y-86375125D01*
X110697200Y-86375125D02*
X110744819Y-86470363D01*
X110744819Y-86470363D02*
X110744819Y-86660839D01*
X110744819Y-86660839D02*
X110697200Y-86756077D01*
X110078152Y-85422744D02*
X110744819Y-85422744D01*
X110078152Y-85851315D02*
X110601961Y-85851315D01*
X110601961Y-85851315D02*
X110697200Y-85803696D01*
X110697200Y-85803696D02*
X110744819Y-85708458D01*
X110744819Y-85708458D02*
X110744819Y-85565601D01*
X110744819Y-85565601D02*
X110697200Y-85470363D01*
X110697200Y-85470363D02*
X110649580Y-85422744D01*
X110697200Y-84994172D02*
X110744819Y-84898934D01*
X110744819Y-84898934D02*
X110744819Y-84708458D01*
X110744819Y-84708458D02*
X110697200Y-84613220D01*
X110697200Y-84613220D02*
X110601961Y-84565601D01*
X110601961Y-84565601D02*
X110554342Y-84565601D01*
X110554342Y-84565601D02*
X110459104Y-84613220D01*
X110459104Y-84613220D02*
X110411485Y-84708458D01*
X110411485Y-84708458D02*
X110411485Y-84851315D01*
X110411485Y-84851315D02*
X110363866Y-84946553D01*
X110363866Y-84946553D02*
X110268628Y-84994172D01*
X110268628Y-84994172D02*
X110221009Y-84994172D01*
X110221009Y-84994172D02*
X110125771Y-84946553D01*
X110125771Y-84946553D02*
X110078152Y-84851315D01*
X110078152Y-84851315D02*
X110078152Y-84708458D01*
X110078152Y-84708458D02*
X110125771Y-84613220D01*
X158693922Y-91369819D02*
X159027255Y-92369819D01*
X159027255Y-92369819D02*
X159360588Y-91369819D01*
X160217731Y-92369819D02*
X159646303Y-92369819D01*
X159932017Y-92369819D02*
X159932017Y-91369819D01*
X159932017Y-91369819D02*
X159836779Y-91512676D01*
X159836779Y-91512676D02*
X159741541Y-91607914D01*
X159741541Y-91607914D02*
X159646303Y-91655533D01*
X160646303Y-92274580D02*
X160693922Y-92322200D01*
X160693922Y-92322200D02*
X160646303Y-92369819D01*
X160646303Y-92369819D02*
X160598684Y-92322200D01*
X160598684Y-92322200D02*
X160646303Y-92274580D01*
X160646303Y-92274580D02*
X160646303Y-92369819D01*
X161312969Y-91369819D02*
X161408207Y-91369819D01*
X161408207Y-91369819D02*
X161503445Y-91417438D01*
X161503445Y-91417438D02*
X161551064Y-91465057D01*
X161551064Y-91465057D02*
X161598683Y-91560295D01*
X161598683Y-91560295D02*
X161646302Y-91750771D01*
X161646302Y-91750771D02*
X161646302Y-91988866D01*
X161646302Y-91988866D02*
X161598683Y-92179342D01*
X161598683Y-92179342D02*
X161551064Y-92274580D01*
X161551064Y-92274580D02*
X161503445Y-92322200D01*
X161503445Y-92322200D02*
X161408207Y-92369819D01*
X161408207Y-92369819D02*
X161312969Y-92369819D01*
X161312969Y-92369819D02*
X161217731Y-92322200D01*
X161217731Y-92322200D02*
X161170112Y-92274580D01*
X161170112Y-92274580D02*
X161122493Y-92179342D01*
X161122493Y-92179342D02*
X161074874Y-91988866D01*
X161074874Y-91988866D02*
X161074874Y-91750771D01*
X161074874Y-91750771D02*
X161122493Y-91560295D01*
X161122493Y-91560295D02*
X161170112Y-91465057D01*
X161170112Y-91465057D02*
X161217731Y-91417438D01*
X161217731Y-91417438D02*
X161312969Y-91369819D01*
X144374819Y-56141666D02*
X143898628Y-56474999D01*
X144374819Y-56713094D02*
X143374819Y-56713094D01*
X143374819Y-56713094D02*
X143374819Y-56332142D01*
X143374819Y-56332142D02*
X143422438Y-56236904D01*
X143422438Y-56236904D02*
X143470057Y-56189285D01*
X143470057Y-56189285D02*
X143565295Y-56141666D01*
X143565295Y-56141666D02*
X143708152Y-56141666D01*
X143708152Y-56141666D02*
X143803390Y-56189285D01*
X143803390Y-56189285D02*
X143851009Y-56236904D01*
X143851009Y-56236904D02*
X143898628Y-56332142D01*
X143898628Y-56332142D02*
X143898628Y-56713094D01*
X143374819Y-55808332D02*
X143374819Y-55141666D01*
X143374819Y-55141666D02*
X144374819Y-55570237D01*
X129159580Y-77691666D02*
X129207200Y-77739285D01*
X129207200Y-77739285D02*
X129254819Y-77882142D01*
X129254819Y-77882142D02*
X129254819Y-77977380D01*
X129254819Y-77977380D02*
X129207200Y-78120237D01*
X129207200Y-78120237D02*
X129111961Y-78215475D01*
X129111961Y-78215475D02*
X129016723Y-78263094D01*
X129016723Y-78263094D02*
X128826247Y-78310713D01*
X128826247Y-78310713D02*
X128683390Y-78310713D01*
X128683390Y-78310713D02*
X128492914Y-78263094D01*
X128492914Y-78263094D02*
X128397676Y-78215475D01*
X128397676Y-78215475D02*
X128302438Y-78120237D01*
X128302438Y-78120237D02*
X128254819Y-77977380D01*
X128254819Y-77977380D02*
X128254819Y-77882142D01*
X128254819Y-77882142D02*
X128302438Y-77739285D01*
X128302438Y-77739285D02*
X128350057Y-77691666D01*
X129254819Y-76739285D02*
X129254819Y-77310713D01*
X129254819Y-77024999D02*
X128254819Y-77024999D01*
X128254819Y-77024999D02*
X128397676Y-77120237D01*
X128397676Y-77120237D02*
X128492914Y-77215475D01*
X128492914Y-77215475D02*
X128540533Y-77310713D01*
X132666666Y-64954819D02*
X132666666Y-65669104D01*
X132666666Y-65669104D02*
X132619047Y-65811961D01*
X132619047Y-65811961D02*
X132523809Y-65907200D01*
X132523809Y-65907200D02*
X132380952Y-65954819D01*
X132380952Y-65954819D02*
X132285714Y-65954819D01*
X133142857Y-65954819D02*
X133142857Y-64954819D01*
X133142857Y-64954819D02*
X133523809Y-64954819D01*
X133523809Y-64954819D02*
X133619047Y-65002438D01*
X133619047Y-65002438D02*
X133666666Y-65050057D01*
X133666666Y-65050057D02*
X133714285Y-65145295D01*
X133714285Y-65145295D02*
X133714285Y-65288152D01*
X133714285Y-65288152D02*
X133666666Y-65383390D01*
X133666666Y-65383390D02*
X133619047Y-65431009D01*
X133619047Y-65431009D02*
X133523809Y-65478628D01*
X133523809Y-65478628D02*
X133142857Y-65478628D01*
X134047619Y-64954819D02*
X134666666Y-64954819D01*
X134666666Y-64954819D02*
X134333333Y-65335771D01*
X134333333Y-65335771D02*
X134476190Y-65335771D01*
X134476190Y-65335771D02*
X134571428Y-65383390D01*
X134571428Y-65383390D02*
X134619047Y-65431009D01*
X134619047Y-65431009D02*
X134666666Y-65526247D01*
X134666666Y-65526247D02*
X134666666Y-65764342D01*
X134666666Y-65764342D02*
X134619047Y-65859580D01*
X134619047Y-65859580D02*
X134571428Y-65907200D01*
X134571428Y-65907200D02*
X134476190Y-65954819D01*
X134476190Y-65954819D02*
X134190476Y-65954819D01*
X134190476Y-65954819D02*
X134095238Y-65907200D01*
X134095238Y-65907200D02*
X134047619Y-65859580D01*
X116929819Y-86908333D02*
X117644104Y-86908333D01*
X117644104Y-86908333D02*
X117786961Y-86955952D01*
X117786961Y-86955952D02*
X117882200Y-87051190D01*
X117882200Y-87051190D02*
X117929819Y-87194047D01*
X117929819Y-87194047D02*
X117929819Y-87289285D01*
X117929819Y-86432142D02*
X116929819Y-86432142D01*
X116929819Y-86432142D02*
X116929819Y-86051190D01*
X116929819Y-86051190D02*
X116977438Y-85955952D01*
X116977438Y-85955952D02*
X117025057Y-85908333D01*
X117025057Y-85908333D02*
X117120295Y-85860714D01*
X117120295Y-85860714D02*
X117263152Y-85860714D01*
X117263152Y-85860714D02*
X117358390Y-85908333D01*
X117358390Y-85908333D02*
X117406009Y-85955952D01*
X117406009Y-85955952D02*
X117453628Y-86051190D01*
X117453628Y-86051190D02*
X117453628Y-86432142D01*
X117929819Y-84908333D02*
X117929819Y-85479761D01*
X117929819Y-85194047D02*
X116929819Y-85194047D01*
X116929819Y-85194047D02*
X117072676Y-85289285D01*
X117072676Y-85289285D02*
X117167914Y-85384523D01*
X117167914Y-85384523D02*
X117215533Y-85479761D01*
X104954819Y-78983333D02*
X105669104Y-78983333D01*
X105669104Y-78983333D02*
X105811961Y-79030952D01*
X105811961Y-79030952D02*
X105907200Y-79126190D01*
X105907200Y-79126190D02*
X105954819Y-79269047D01*
X105954819Y-79269047D02*
X105954819Y-79364285D01*
X105050057Y-78554761D02*
X105002438Y-78507142D01*
X105002438Y-78507142D02*
X104954819Y-78411904D01*
X104954819Y-78411904D02*
X104954819Y-78173809D01*
X104954819Y-78173809D02*
X105002438Y-78078571D01*
X105002438Y-78078571D02*
X105050057Y-78030952D01*
X105050057Y-78030952D02*
X105145295Y-77983333D01*
X105145295Y-77983333D02*
X105240533Y-77983333D01*
X105240533Y-77983333D02*
X105383390Y-78030952D01*
X105383390Y-78030952D02*
X105954819Y-78602380D01*
X105954819Y-78602380D02*
X105954819Y-77983333D01*
X146334819Y-56154166D02*
X145858628Y-56487499D01*
X146334819Y-56725594D02*
X145334819Y-56725594D01*
X145334819Y-56725594D02*
X145334819Y-56344642D01*
X145334819Y-56344642D02*
X145382438Y-56249404D01*
X145382438Y-56249404D02*
X145430057Y-56201785D01*
X145430057Y-56201785D02*
X145525295Y-56154166D01*
X145525295Y-56154166D02*
X145668152Y-56154166D01*
X145668152Y-56154166D02*
X145763390Y-56201785D01*
X145763390Y-56201785D02*
X145811009Y-56249404D01*
X145811009Y-56249404D02*
X145858628Y-56344642D01*
X145858628Y-56344642D02*
X145858628Y-56725594D01*
X145668152Y-55297023D02*
X146334819Y-55297023D01*
X145287200Y-55535118D02*
X146001485Y-55773213D01*
X146001485Y-55773213D02*
X146001485Y-55154166D01*
X134438094Y-75638669D02*
X134438094Y-76448192D01*
X134438094Y-76448192D02*
X134485713Y-76543430D01*
X134485713Y-76543430D02*
X134533332Y-76591050D01*
X134533332Y-76591050D02*
X134628570Y-76638669D01*
X134628570Y-76638669D02*
X134819046Y-76638669D01*
X134819046Y-76638669D02*
X134914284Y-76591050D01*
X134914284Y-76591050D02*
X134961903Y-76543430D01*
X134961903Y-76543430D02*
X135009522Y-76448192D01*
X135009522Y-76448192D02*
X135009522Y-75638669D01*
X136009522Y-76638669D02*
X135438094Y-76638669D01*
X135723808Y-76638669D02*
X135723808Y-75638669D01*
X135723808Y-75638669D02*
X135628570Y-75781526D01*
X135628570Y-75781526D02*
X135533332Y-75876764D01*
X135533332Y-75876764D02*
X135438094Y-75924383D01*
X137670148Y-79151430D02*
X137670148Y-78913335D01*
X137908243Y-79008573D02*
X137670148Y-78913335D01*
X137670148Y-78913335D02*
X137432053Y-79008573D01*
X137813005Y-78722859D02*
X137670148Y-78913335D01*
X137670148Y-78913335D02*
X137527291Y-78722859D01*
X137670149Y-78061069D02*
X137670149Y-78299164D01*
X137432054Y-78203926D02*
X137670149Y-78299164D01*
X137670149Y-78299164D02*
X137908244Y-78203926D01*
X137527292Y-78489640D02*
X137670149Y-78299164D01*
X137670149Y-78299164D02*
X137813006Y-78489640D01*
X130574819Y-56129166D02*
X130098628Y-56462499D01*
X130574819Y-56700594D02*
X129574819Y-56700594D01*
X129574819Y-56700594D02*
X129574819Y-56319642D01*
X129574819Y-56319642D02*
X129622438Y-56224404D01*
X129622438Y-56224404D02*
X129670057Y-56176785D01*
X129670057Y-56176785D02*
X129765295Y-56129166D01*
X129765295Y-56129166D02*
X129908152Y-56129166D01*
X129908152Y-56129166D02*
X130003390Y-56176785D01*
X130003390Y-56176785D02*
X130051009Y-56224404D01*
X130051009Y-56224404D02*
X130098628Y-56319642D01*
X130098628Y-56319642D02*
X130098628Y-56700594D01*
X129574819Y-55272023D02*
X129574819Y-55462499D01*
X129574819Y-55462499D02*
X129622438Y-55557737D01*
X129622438Y-55557737D02*
X129670057Y-55605356D01*
X129670057Y-55605356D02*
X129812914Y-55700594D01*
X129812914Y-55700594D02*
X130003390Y-55748213D01*
X130003390Y-55748213D02*
X130384342Y-55748213D01*
X130384342Y-55748213D02*
X130479580Y-55700594D01*
X130479580Y-55700594D02*
X130527200Y-55652975D01*
X130527200Y-55652975D02*
X130574819Y-55557737D01*
X130574819Y-55557737D02*
X130574819Y-55367261D01*
X130574819Y-55367261D02*
X130527200Y-55272023D01*
X130527200Y-55272023D02*
X130479580Y-55224404D01*
X130479580Y-55224404D02*
X130384342Y-55176785D01*
X130384342Y-55176785D02*
X130146247Y-55176785D01*
X130146247Y-55176785D02*
X130051009Y-55224404D01*
X130051009Y-55224404D02*
X130003390Y-55272023D01*
X130003390Y-55272023D02*
X129955771Y-55367261D01*
X129955771Y-55367261D02*
X129955771Y-55557737D01*
X129955771Y-55557737D02*
X130003390Y-55652975D01*
X130003390Y-55652975D02*
X130051009Y-55700594D01*
X130051009Y-55700594D02*
X130146247Y-55748213D01*
X137524819Y-56141666D02*
X137048628Y-56474999D01*
X137524819Y-56713094D02*
X136524819Y-56713094D01*
X136524819Y-56713094D02*
X136524819Y-56332142D01*
X136524819Y-56332142D02*
X136572438Y-56236904D01*
X136572438Y-56236904D02*
X136620057Y-56189285D01*
X136620057Y-56189285D02*
X136715295Y-56141666D01*
X136715295Y-56141666D02*
X136858152Y-56141666D01*
X136858152Y-56141666D02*
X136953390Y-56189285D01*
X136953390Y-56189285D02*
X137001009Y-56236904D01*
X137001009Y-56236904D02*
X137048628Y-56332142D01*
X137048628Y-56332142D02*
X137048628Y-56713094D01*
X136524819Y-55236904D02*
X136524819Y-55713094D01*
X136524819Y-55713094D02*
X137001009Y-55760713D01*
X137001009Y-55760713D02*
X136953390Y-55713094D01*
X136953390Y-55713094D02*
X136905771Y-55617856D01*
X136905771Y-55617856D02*
X136905771Y-55379761D01*
X136905771Y-55379761D02*
X136953390Y-55284523D01*
X136953390Y-55284523D02*
X137001009Y-55236904D01*
X137001009Y-55236904D02*
X137096247Y-55189285D01*
X137096247Y-55189285D02*
X137334342Y-55189285D01*
X137334342Y-55189285D02*
X137429580Y-55236904D01*
X137429580Y-55236904D02*
X137477200Y-55284523D01*
X137477200Y-55284523D02*
X137524819Y-55379761D01*
X137524819Y-55379761D02*
X137524819Y-55617856D01*
X137524819Y-55617856D02*
X137477200Y-55713094D01*
X137477200Y-55713094D02*
X137429580Y-55760713D01*
X117895833Y-69334819D02*
X117562500Y-68858628D01*
X117324405Y-69334819D02*
X117324405Y-68334819D01*
X117324405Y-68334819D02*
X117705357Y-68334819D01*
X117705357Y-68334819D02*
X117800595Y-68382438D01*
X117800595Y-68382438D02*
X117848214Y-68430057D01*
X117848214Y-68430057D02*
X117895833Y-68525295D01*
X117895833Y-68525295D02*
X117895833Y-68668152D01*
X117895833Y-68668152D02*
X117848214Y-68763390D01*
X117848214Y-68763390D02*
X117800595Y-68811009D01*
X117800595Y-68811009D02*
X117705357Y-68858628D01*
X117705357Y-68858628D02*
X117324405Y-68858628D01*
X118276786Y-68430057D02*
X118324405Y-68382438D01*
X118324405Y-68382438D02*
X118419643Y-68334819D01*
X118419643Y-68334819D02*
X118657738Y-68334819D01*
X118657738Y-68334819D02*
X118752976Y-68382438D01*
X118752976Y-68382438D02*
X118800595Y-68430057D01*
X118800595Y-68430057D02*
X118848214Y-68525295D01*
X118848214Y-68525295D02*
X118848214Y-68620533D01*
X118848214Y-68620533D02*
X118800595Y-68763390D01*
X118800595Y-68763390D02*
X118229167Y-69334819D01*
X118229167Y-69334819D02*
X118848214Y-69334819D01*
X153359819Y-56154166D02*
X152883628Y-56487499D01*
X153359819Y-56725594D02*
X152359819Y-56725594D01*
X152359819Y-56725594D02*
X152359819Y-56344642D01*
X152359819Y-56344642D02*
X152407438Y-56249404D01*
X152407438Y-56249404D02*
X152455057Y-56201785D01*
X152455057Y-56201785D02*
X152550295Y-56154166D01*
X152550295Y-56154166D02*
X152693152Y-56154166D01*
X152693152Y-56154166D02*
X152788390Y-56201785D01*
X152788390Y-56201785D02*
X152836009Y-56249404D01*
X152836009Y-56249404D02*
X152883628Y-56344642D01*
X152883628Y-56344642D02*
X152883628Y-56725594D01*
X152359819Y-55820832D02*
X152359819Y-55201785D01*
X152359819Y-55201785D02*
X152740771Y-55535118D01*
X152740771Y-55535118D02*
X152740771Y-55392261D01*
X152740771Y-55392261D02*
X152788390Y-55297023D01*
X152788390Y-55297023D02*
X152836009Y-55249404D01*
X152836009Y-55249404D02*
X152931247Y-55201785D01*
X152931247Y-55201785D02*
X153169342Y-55201785D01*
X153169342Y-55201785D02*
X153264580Y-55249404D01*
X153264580Y-55249404D02*
X153312200Y-55297023D01*
X153312200Y-55297023D02*
X153359819Y-55392261D01*
X153359819Y-55392261D02*
X153359819Y-55677975D01*
X153359819Y-55677975D02*
X153312200Y-55773213D01*
X153312200Y-55773213D02*
X153264580Y-55820832D01*
X117795833Y-77784819D02*
X117462500Y-77308628D01*
X117224405Y-77784819D02*
X117224405Y-76784819D01*
X117224405Y-76784819D02*
X117605357Y-76784819D01*
X117605357Y-76784819D02*
X117700595Y-76832438D01*
X117700595Y-76832438D02*
X117748214Y-76880057D01*
X117748214Y-76880057D02*
X117795833Y-76975295D01*
X117795833Y-76975295D02*
X117795833Y-77118152D01*
X117795833Y-77118152D02*
X117748214Y-77213390D01*
X117748214Y-77213390D02*
X117700595Y-77261009D01*
X117700595Y-77261009D02*
X117605357Y-77308628D01*
X117605357Y-77308628D02*
X117224405Y-77308628D01*
X118748214Y-77784819D02*
X118176786Y-77784819D01*
X118462500Y-77784819D02*
X118462500Y-76784819D01*
X118462500Y-76784819D02*
X118367262Y-76927676D01*
X118367262Y-76927676D02*
X118272024Y-77022914D01*
X118272024Y-77022914D02*
X118176786Y-77070533D01*
X133941666Y-87329819D02*
X133941666Y-88044104D01*
X133941666Y-88044104D02*
X133894047Y-88186961D01*
X133894047Y-88186961D02*
X133798809Y-88282200D01*
X133798809Y-88282200D02*
X133655952Y-88329819D01*
X133655952Y-88329819D02*
X133560714Y-88329819D01*
X134417857Y-88329819D02*
X134417857Y-87329819D01*
X134417857Y-87329819D02*
X134798809Y-87329819D01*
X134798809Y-87329819D02*
X134894047Y-87377438D01*
X134894047Y-87377438D02*
X134941666Y-87425057D01*
X134941666Y-87425057D02*
X134989285Y-87520295D01*
X134989285Y-87520295D02*
X134989285Y-87663152D01*
X134989285Y-87663152D02*
X134941666Y-87758390D01*
X134941666Y-87758390D02*
X134894047Y-87806009D01*
X134894047Y-87806009D02*
X134798809Y-87853628D01*
X134798809Y-87853628D02*
X134417857Y-87853628D01*
X135370238Y-87425057D02*
X135417857Y-87377438D01*
X135417857Y-87377438D02*
X135513095Y-87329819D01*
X135513095Y-87329819D02*
X135751190Y-87329819D01*
X135751190Y-87329819D02*
X135846428Y-87377438D01*
X135846428Y-87377438D02*
X135894047Y-87425057D01*
X135894047Y-87425057D02*
X135941666Y-87520295D01*
X135941666Y-87520295D02*
X135941666Y-87615533D01*
X135941666Y-87615533D02*
X135894047Y-87758390D01*
X135894047Y-87758390D02*
X135322619Y-88329819D01*
X135322619Y-88329819D02*
X135941666Y-88329819D01*
X129659580Y-69691666D02*
X129707200Y-69739285D01*
X129707200Y-69739285D02*
X129754819Y-69882142D01*
X129754819Y-69882142D02*
X129754819Y-69977380D01*
X129754819Y-69977380D02*
X129707200Y-70120237D01*
X129707200Y-70120237D02*
X129611961Y-70215475D01*
X129611961Y-70215475D02*
X129516723Y-70263094D01*
X129516723Y-70263094D02*
X129326247Y-70310713D01*
X129326247Y-70310713D02*
X129183390Y-70310713D01*
X129183390Y-70310713D02*
X128992914Y-70263094D01*
X128992914Y-70263094D02*
X128897676Y-70215475D01*
X128897676Y-70215475D02*
X128802438Y-70120237D01*
X128802438Y-70120237D02*
X128754819Y-69977380D01*
X128754819Y-69977380D02*
X128754819Y-69882142D01*
X128754819Y-69882142D02*
X128802438Y-69739285D01*
X128802438Y-69739285D02*
X128850057Y-69691666D01*
X128850057Y-69310713D02*
X128802438Y-69263094D01*
X128802438Y-69263094D02*
X128754819Y-69167856D01*
X128754819Y-69167856D02*
X128754819Y-68929761D01*
X128754819Y-68929761D02*
X128802438Y-68834523D01*
X128802438Y-68834523D02*
X128850057Y-68786904D01*
X128850057Y-68786904D02*
X128945295Y-68739285D01*
X128945295Y-68739285D02*
X129040533Y-68739285D01*
X129040533Y-68739285D02*
X129183390Y-68786904D01*
X129183390Y-68786904D02*
X129754819Y-69358332D01*
X129754819Y-69358332D02*
X129754819Y-68739285D01*
D11*
X139590000Y-53797936D02*
X139590000Y-58152064D01*
X143010000Y-53797936D02*
X143010000Y-58152064D01*
X125140000Y-76813748D02*
X125140000Y-78236252D01*
X127860000Y-76813748D02*
X127860000Y-78236252D01*
X132375000Y-66500000D02*
X134375000Y-66500000D01*
X132375000Y-69300000D02*
X132375000Y-66500000D01*
X134375000Y-66500000D02*
X134375000Y-69300000D01*
X134375000Y-69300000D02*
X132375000Y-69300000D01*
X114675000Y-84675000D02*
X116675000Y-84675000D01*
X114675000Y-87475000D02*
X114675000Y-84675000D01*
X116675000Y-84675000D02*
X116675000Y-87475000D01*
X116675000Y-87475000D02*
X114675000Y-87475000D01*
X100125000Y-68350000D02*
X100125000Y-68850000D01*
X100365000Y-68590000D02*
X100365000Y-88711000D01*
X100865000Y-68350000D02*
X100125000Y-68350000D01*
X100925000Y-68590000D02*
X100925000Y-88711000D01*
X102425000Y-68590000D02*
X102425000Y-88711000D01*
X103186000Y-75116000D02*
X103151000Y-75081000D01*
X103186000Y-80116000D02*
X103151000Y-80081000D01*
X103186000Y-85116000D02*
X103151000Y-85081000D01*
X103402000Y-74923000D02*
X103356000Y-74876000D01*
X103402000Y-79923000D02*
X103356000Y-79876000D01*
X103402000Y-84923000D02*
X103356000Y-84876000D01*
X105494000Y-77425000D02*
X105448000Y-77378000D01*
X105494000Y-82425000D02*
X105448000Y-82378000D01*
X105494000Y-87425000D02*
X105448000Y-87378000D01*
X105700000Y-77220000D02*
X105664000Y-77185000D01*
X105700000Y-82220000D02*
X105664000Y-82185000D01*
X105700000Y-87220000D02*
X105664000Y-87185000D01*
X106726000Y-68590000D02*
X106726000Y-88711000D01*
X107725000Y-70150000D02*
X107725000Y-72150000D01*
X107725000Y-75150000D02*
X107725000Y-77150000D01*
X107725000Y-80150000D02*
X107725000Y-82150000D01*
X107725000Y-85150000D02*
X107725000Y-87150000D01*
X108725000Y-70150000D02*
X107725000Y-70150000D01*
X108725000Y-70150000D02*
X108725000Y-72150000D01*
X108725000Y-72150000D02*
X107725000Y-72150000D01*
X108725000Y-75150000D02*
X107725000Y-75150000D01*
X108725000Y-75150000D02*
X108725000Y-77150000D01*
X108725000Y-77150000D02*
X107725000Y-77150000D01*
X108725000Y-80150000D02*
X107725000Y-80150000D01*
X108725000Y-80150000D02*
X108725000Y-82150000D01*
X108725000Y-82150000D02*
X107725000Y-82150000D01*
X108725000Y-85150000D02*
X107725000Y-85150000D01*
X108725000Y-85150000D02*
X108725000Y-87150000D01*
X108725000Y-87150000D02*
X107725000Y-87150000D01*
X108785000Y-68590000D02*
X100365000Y-68590000D01*
X108785000Y-68590000D02*
X108785000Y-88711000D01*
X108785000Y-88711000D02*
X100365000Y-88711000D01*
X102744747Y-71178805D02*
G75*
G02*
X102890000Y-70466000I1680254J28806D01*
G01*
X102890244Y-71833318D02*
G75*
G02*
X102745000Y-71150000I1534756J683318D01*
G01*
X103741958Y-69614573D02*
G75*
G02*
X105109000Y-69615000I683041J-1535420D01*
G01*
X105108042Y-72685427D02*
G75*
G02*
X103741000Y-72685000I-683042J1535427D01*
G01*
X105960427Y-70466958D02*
G75*
G02*
X105960000Y-71834000I-1535420J-683041D01*
G01*
X106105000Y-76150000D02*
G75*
G02*
X102745000Y-76150000I-1680000J0D01*
G01*
X102745000Y-76150000D02*
G75*
G02*
X106105000Y-76150000I1680000J0D01*
G01*
X106105000Y-81150000D02*
G75*
G02*
X102745000Y-81150000I-1680000J0D01*
G01*
X102745000Y-81150000D02*
G75*
G02*
X106105000Y-81150000I1680000J0D01*
G01*
X106105000Y-86150000D02*
G75*
G02*
X102745000Y-86150000I-1680000J0D01*
G01*
X102745000Y-86150000D02*
G75*
G02*
X106105000Y-86150000I1680000J0D01*
G01*
X146790000Y-58164564D02*
X146790000Y-53810436D01*
X150210000Y-58164564D02*
X150210000Y-53810436D01*
D12*
X133523599Y-74507450D02*
X133523599Y-74711409D01*
X133523599Y-77656291D02*
X133523599Y-77860250D01*
X133523599Y-77860250D02*
X136876399Y-77860250D01*
X136876399Y-74507450D02*
X133523599Y-74507450D01*
X136876399Y-74711409D02*
X136876399Y-74507450D01*
X136876399Y-77860250D02*
X136876399Y-77656291D01*
D13*
G36*
X132063099Y-77374351D02*
G01*
X131809099Y-77374351D01*
X131809099Y-76993351D01*
X132063099Y-76993351D01*
X132063099Y-77374351D01*
G37*
D11*
X125790000Y-53785436D02*
X125790000Y-58139564D01*
X129210000Y-53785436D02*
X129210000Y-58139564D01*
X132740000Y-53797936D02*
X132740000Y-58152064D01*
X136160000Y-53797936D02*
X136160000Y-58152064D01*
X115885436Y-69790000D02*
X120239564Y-69790000D01*
X115885436Y-73210000D02*
X120239564Y-73210000D01*
X153815000Y-58164564D02*
X153815000Y-53810436D01*
X157235000Y-58164564D02*
X157235000Y-53810436D01*
X115785436Y-78240000D02*
X120139564Y-78240000D01*
X115785436Y-81660000D02*
X120139564Y-81660000D01*
X133375000Y-85075000D02*
X136175000Y-85075000D01*
X133375000Y-87075000D02*
X133375000Y-85075000D01*
X136175000Y-85075000D02*
X136175000Y-87075000D01*
X136175000Y-87075000D02*
X133375000Y-87075000D01*
X125640000Y-68813748D02*
X125640000Y-70236252D01*
X128360000Y-68813748D02*
X128360000Y-70236252D01*
M02*
