G04 #@! TF.GenerationSoftware,KiCad,Pcbnew,8.0.6-8.0.6-0~ubuntu22.04.1*
G04 #@! TF.CreationDate,2024-11-13T10:01:41+01:00*
G04 #@! TF.ProjectId,INA228_hat,494e4132-3238-45f6-9861-742e6b696361,rev?*
G04 #@! TF.SameCoordinates,Original*
G04 #@! TF.FileFunction,Copper,L2,Bot*
G04 #@! TF.FilePolarity,Positive*
%FSLAX46Y46*%
G04 Gerber Fmt 4.6, Leading zero omitted, Abs format (unit mm)*
G04 Created by KiCad (PCBNEW 8.0.6-8.0.6-0~ubuntu22.04.1) date 2024-11-13 10:01:41*
%MOMM*%
%LPD*%
G01*
G04 APERTURE LIST*
G04 #@! TA.AperFunction,ComponentPad*
%ADD10R,2.600000X2.600000*%
G04 #@! TD*
G04 #@! TA.AperFunction,ComponentPad*
%ADD11C,2.600000*%
G04 #@! TD*
G04 #@! TA.AperFunction,ComponentPad*
%ADD12R,1.700000X1.700000*%
G04 #@! TD*
G04 #@! TA.AperFunction,ComponentPad*
%ADD13O,1.700000X1.700000*%
G04 #@! TD*
G04 #@! TA.AperFunction,ViaPad*
%ADD14C,0.900000*%
G04 #@! TD*
G04 #@! TA.AperFunction,Conductor*
%ADD15C,0.200000*%
G04 #@! TD*
G04 APERTURE END LIST*
D10*
X104425000Y-71150000D03*
D11*
X104425000Y-76150000D03*
X104425000Y-81150000D03*
X104425000Y-86150000D03*
D12*
X108370000Y-48770000D03*
D13*
X108370000Y-46230000D03*
X110910000Y-48770000D03*
X110910000Y-46230000D03*
X113450000Y-48770000D03*
X113450000Y-46230000D03*
X115990000Y-48770000D03*
X115990000Y-46230000D03*
X118530000Y-48770000D03*
X118530000Y-46230000D03*
X121070000Y-48770000D03*
X121070000Y-46230000D03*
X123610000Y-48770000D03*
X123610000Y-46230000D03*
X126150000Y-48770000D03*
X126150000Y-46230000D03*
X128690000Y-48770000D03*
X128690000Y-46230000D03*
X131230000Y-48770000D03*
X131230000Y-46230000D03*
X133770000Y-48770000D03*
X133770000Y-46230000D03*
X136310000Y-48770000D03*
X136310000Y-46230000D03*
X138850000Y-48770000D03*
X138850000Y-46230000D03*
X141390000Y-48770000D03*
X141390000Y-46230000D03*
X143930000Y-48770000D03*
X143930000Y-46230000D03*
X146470000Y-48770000D03*
X146470000Y-46230000D03*
X149010000Y-48770000D03*
X149010000Y-46230000D03*
X151550000Y-48770000D03*
X151550000Y-46230000D03*
X154090000Y-48770000D03*
X154090000Y-46230000D03*
X156630000Y-48770000D03*
X156630000Y-46230000D03*
D14*
X130300000Y-65625000D03*
X144475000Y-52100000D03*
X123025000Y-52250000D03*
X129850000Y-89150000D03*
D15*
X131650000Y-73825000D02*
X131375000Y-73550000D01*
G04 #@! TA.AperFunction,Conductor*
G36*
X110444075Y-46037007D02*
G01*
X110410000Y-46164174D01*
X110410000Y-46295826D01*
X110444075Y-46422993D01*
X110476988Y-46480000D01*
X108803012Y-46480000D01*
X108835925Y-46422993D01*
X108870000Y-46295826D01*
X108870000Y-46164174D01*
X108835925Y-46037007D01*
X108803012Y-45980000D01*
X110476988Y-45980000D01*
X110444075Y-46037007D01*
G37*
G04 #@! TD.AperFunction*
G04 #@! TA.AperFunction,Conductor*
G36*
X162000855Y-43500011D02*
G01*
X162162269Y-43502274D01*
X162174390Y-43503041D01*
X162478553Y-43537312D01*
X162495992Y-43539277D01*
X162509700Y-43541606D01*
X162824366Y-43613426D01*
X162837725Y-43617273D01*
X163142392Y-43723881D01*
X163155228Y-43729199D01*
X163446025Y-43869239D01*
X163458195Y-43875965D01*
X163731486Y-44047685D01*
X163742827Y-44055732D01*
X163995173Y-44256971D01*
X164005541Y-44266237D01*
X164233762Y-44494458D01*
X164243028Y-44504826D01*
X164444267Y-44757172D01*
X164452314Y-44768513D01*
X164624034Y-45041804D01*
X164630760Y-45053974D01*
X164770798Y-45344766D01*
X164776120Y-45357613D01*
X164882724Y-45662270D01*
X164886573Y-45675633D01*
X164958393Y-45990299D01*
X164960722Y-46004007D01*
X164996957Y-46325597D01*
X164997725Y-46337743D01*
X164999988Y-46499144D01*
X165000000Y-46500882D01*
X165000000Y-96999117D01*
X164999988Y-97000855D01*
X164997725Y-97162256D01*
X164996957Y-97174402D01*
X164960722Y-97495992D01*
X164958393Y-97509700D01*
X164886573Y-97824366D01*
X164882724Y-97837729D01*
X164776120Y-98142386D01*
X164770798Y-98155233D01*
X164630760Y-98446025D01*
X164624034Y-98458195D01*
X164452314Y-98731486D01*
X164444267Y-98742827D01*
X164243028Y-98995173D01*
X164233762Y-99005541D01*
X164005541Y-99233762D01*
X163995173Y-99243028D01*
X163742827Y-99444267D01*
X163731486Y-99452314D01*
X163458195Y-99624034D01*
X163446025Y-99630760D01*
X163155233Y-99770798D01*
X163142386Y-99776120D01*
X162837729Y-99882724D01*
X162824366Y-99886573D01*
X162509700Y-99958393D01*
X162495992Y-99960722D01*
X162174402Y-99996957D01*
X162162256Y-99997725D01*
X162000856Y-99999988D01*
X161999118Y-100000000D01*
X103000882Y-100000000D01*
X102999144Y-99999988D01*
X102837743Y-99997725D01*
X102825597Y-99996957D01*
X102504007Y-99960722D01*
X102490299Y-99958393D01*
X102175633Y-99886573D01*
X102162270Y-99882724D01*
X101857613Y-99776120D01*
X101844766Y-99770798D01*
X101553974Y-99630760D01*
X101541804Y-99624034D01*
X101268513Y-99452314D01*
X101257172Y-99444267D01*
X101004826Y-99243028D01*
X100994458Y-99233762D01*
X100766237Y-99005541D01*
X100756971Y-98995173D01*
X100555732Y-98742827D01*
X100547685Y-98731486D01*
X100375965Y-98458195D01*
X100369239Y-98446025D01*
X100229201Y-98155233D01*
X100223879Y-98142386D01*
X100210622Y-98104500D01*
X100117273Y-97837725D01*
X100113426Y-97824366D01*
X100041606Y-97509700D01*
X100039277Y-97495992D01*
X100021807Y-97340941D01*
X100003041Y-97174390D01*
X100002274Y-97162269D01*
X100000012Y-97000855D01*
X100000000Y-96999117D01*
X100000000Y-96373723D01*
X101895500Y-96373723D01*
X101895500Y-96626276D01*
X101935009Y-96875722D01*
X101935009Y-96875725D01*
X102013050Y-97115911D01*
X102013051Y-97115914D01*
X102127709Y-97340941D01*
X102276156Y-97545261D01*
X102454739Y-97723844D01*
X102659059Y-97872291D01*
X102769428Y-97928526D01*
X102884085Y-97986948D01*
X102884088Y-97986949D01*
X103108123Y-98059741D01*
X103124279Y-98064991D01*
X103373723Y-98104500D01*
X103373724Y-98104500D01*
X103626276Y-98104500D01*
X103626277Y-98104500D01*
X103875721Y-98064991D01*
X103875724Y-98064990D01*
X103875725Y-98064990D01*
X104115911Y-97986949D01*
X104115914Y-97986948D01*
X104340941Y-97872291D01*
X104545261Y-97723844D01*
X104723844Y-97545261D01*
X104872291Y-97340941D01*
X104986948Y-97115914D01*
X105024333Y-97000855D01*
X105064990Y-96875725D01*
X105064990Y-96875724D01*
X105064991Y-96875721D01*
X105104500Y-96626277D01*
X105104500Y-96373723D01*
X159895500Y-96373723D01*
X159895500Y-96626276D01*
X159935009Y-96875722D01*
X159935009Y-96875725D01*
X160013050Y-97115911D01*
X160013051Y-97115914D01*
X160127709Y-97340941D01*
X160276156Y-97545261D01*
X160454739Y-97723844D01*
X160659059Y-97872291D01*
X160769428Y-97928526D01*
X160884085Y-97986948D01*
X160884088Y-97986949D01*
X161108123Y-98059741D01*
X161124279Y-98064991D01*
X161373723Y-98104500D01*
X161373724Y-98104500D01*
X161626276Y-98104500D01*
X161626277Y-98104500D01*
X161875721Y-98064991D01*
X161875724Y-98064990D01*
X161875725Y-98064990D01*
X162115911Y-97986949D01*
X162115914Y-97986948D01*
X162340941Y-97872291D01*
X162545261Y-97723844D01*
X162723844Y-97545261D01*
X162872291Y-97340941D01*
X162986948Y-97115914D01*
X163024333Y-97000855D01*
X163064990Y-96875725D01*
X163064990Y-96875724D01*
X163064991Y-96875721D01*
X163104500Y-96626277D01*
X163104500Y-96373723D01*
X163064991Y-96124279D01*
X163064990Y-96124275D01*
X163064990Y-96124274D01*
X162986949Y-95884088D01*
X162986948Y-95884085D01*
X162872290Y-95659058D01*
X162723844Y-95454739D01*
X162545261Y-95276156D01*
X162340941Y-95127709D01*
X162115914Y-95013051D01*
X162115911Y-95013050D01*
X161875723Y-94935009D01*
X161709425Y-94908669D01*
X161626277Y-94895500D01*
X161373723Y-94895500D01*
X161290575Y-94908669D01*
X161124277Y-94935009D01*
X161124274Y-94935009D01*
X160884088Y-95013050D01*
X160884085Y-95013051D01*
X160659058Y-95127709D01*
X160454736Y-95276158D01*
X160276158Y-95454736D01*
X160127709Y-95659058D01*
X160013051Y-95884085D01*
X160013050Y-95884088D01*
X159935009Y-96124274D01*
X159935009Y-96124277D01*
X159895500Y-96373723D01*
X105104500Y-96373723D01*
X105064991Y-96124279D01*
X105064990Y-96124275D01*
X105064990Y-96124274D01*
X104986949Y-95884088D01*
X104986948Y-95884085D01*
X104872290Y-95659058D01*
X104723844Y-95454739D01*
X104545261Y-95276156D01*
X104340941Y-95127709D01*
X104115914Y-95013051D01*
X104115911Y-95013050D01*
X103875723Y-94935009D01*
X103709425Y-94908669D01*
X103626277Y-94895500D01*
X103373723Y-94895500D01*
X103290575Y-94908669D01*
X103124277Y-94935009D01*
X103124274Y-94935009D01*
X102884088Y-95013050D01*
X102884085Y-95013051D01*
X102659058Y-95127709D01*
X102454736Y-95276158D01*
X102276158Y-95454736D01*
X102127709Y-95659058D01*
X102013051Y-95884085D01*
X102013050Y-95884088D01*
X101935009Y-96124274D01*
X101935009Y-96124277D01*
X101895500Y-96373723D01*
X100000000Y-96373723D01*
X100000000Y-86149994D01*
X102967121Y-86149994D01*
X102967121Y-86150005D01*
X102987004Y-86389955D01*
X102987004Y-86389958D01*
X102987005Y-86389959D01*
X103046113Y-86623373D01*
X103142834Y-86843874D01*
X103274529Y-87045448D01*
X103437605Y-87222596D01*
X103437608Y-87222598D01*
X103437611Y-87222601D01*
X103627607Y-87370481D01*
X103627613Y-87370485D01*
X103627616Y-87370487D01*
X103839377Y-87485087D01*
X104067112Y-87563268D01*
X104304609Y-87602900D01*
X104304610Y-87602900D01*
X104545390Y-87602900D01*
X104545391Y-87602900D01*
X104782888Y-87563268D01*
X105010623Y-87485087D01*
X105222384Y-87370487D01*
X105412395Y-87222596D01*
X105575471Y-87045448D01*
X105707166Y-86843874D01*
X105803887Y-86623373D01*
X105862995Y-86389959D01*
X105882879Y-86150000D01*
X105862995Y-85910041D01*
X105803887Y-85676627D01*
X105707166Y-85456126D01*
X105575471Y-85254552D01*
X105412395Y-85077404D01*
X105412390Y-85077400D01*
X105412388Y-85077398D01*
X105222392Y-84929518D01*
X105222386Y-84929514D01*
X105010624Y-84814913D01*
X105010619Y-84814911D01*
X104782890Y-84736732D01*
X104624556Y-84710310D01*
X104545391Y-84697100D01*
X104304609Y-84697100D01*
X104245234Y-84707008D01*
X104067109Y-84736732D01*
X103839380Y-84814911D01*
X103839375Y-84814913D01*
X103627613Y-84929514D01*
X103627607Y-84929518D01*
X103437611Y-85077398D01*
X103437608Y-85077401D01*
X103274529Y-85254552D01*
X103142832Y-85456129D01*
X103046113Y-85676626D01*
X102987004Y-85910044D01*
X102967121Y-86149994D01*
X100000000Y-86149994D01*
X100000000Y-81149994D01*
X102967121Y-81149994D01*
X102967121Y-81150005D01*
X102987004Y-81389955D01*
X102987004Y-81389958D01*
X102987005Y-81389959D01*
X103046113Y-81623373D01*
X103142834Y-81843874D01*
X103274529Y-82045448D01*
X103437605Y-82222596D01*
X103437608Y-82222598D01*
X103437611Y-82222601D01*
X103627607Y-82370481D01*
X103627613Y-82370485D01*
X103627616Y-82370487D01*
X103839377Y-82485087D01*
X104067112Y-82563268D01*
X104304609Y-82602900D01*
X104304610Y-82602900D01*
X104545390Y-82602900D01*
X104545391Y-82602900D01*
X104782888Y-82563268D01*
X105010623Y-82485087D01*
X105222384Y-82370487D01*
X105412395Y-82222596D01*
X105575471Y-82045448D01*
X105707166Y-81843874D01*
X105803887Y-81623373D01*
X105862995Y-81389959D01*
X105882879Y-81150000D01*
X105862995Y-80910041D01*
X105803887Y-80676627D01*
X105707166Y-80456126D01*
X105575471Y-80254552D01*
X105412395Y-80077404D01*
X105412390Y-80077400D01*
X105412388Y-80077398D01*
X105222392Y-79929518D01*
X105222386Y-79929514D01*
X105010624Y-79814913D01*
X105010619Y-79814911D01*
X104782890Y-79736732D01*
X104624556Y-79710310D01*
X104545391Y-79697100D01*
X104304609Y-79697100D01*
X104245234Y-79707008D01*
X104067109Y-79736732D01*
X103839380Y-79814911D01*
X103839375Y-79814913D01*
X103627613Y-79929514D01*
X103627607Y-79929518D01*
X103437611Y-80077398D01*
X103437608Y-80077401D01*
X103274529Y-80254552D01*
X103142832Y-80456129D01*
X103046113Y-80676626D01*
X102987004Y-80910044D01*
X102967121Y-81149994D01*
X100000000Y-81149994D01*
X100000000Y-76149994D01*
X102967121Y-76149994D01*
X102967121Y-76150005D01*
X102987004Y-76389955D01*
X102987004Y-76389958D01*
X102987005Y-76389959D01*
X103046113Y-76623373D01*
X103142834Y-76843874D01*
X103274529Y-77045448D01*
X103437605Y-77222596D01*
X103437608Y-77222598D01*
X103437611Y-77222601D01*
X103627607Y-77370481D01*
X103627613Y-77370485D01*
X103627616Y-77370487D01*
X103839377Y-77485087D01*
X104067112Y-77563268D01*
X104304609Y-77602900D01*
X104304610Y-77602900D01*
X104545390Y-77602900D01*
X104545391Y-77602900D01*
X104782888Y-77563268D01*
X105010623Y-77485087D01*
X105222384Y-77370487D01*
X105412395Y-77222596D01*
X105575471Y-77045448D01*
X105707166Y-76843874D01*
X105803887Y-76623373D01*
X105862995Y-76389959D01*
X105882879Y-76150000D01*
X105862995Y-75910041D01*
X105803887Y-75676627D01*
X105707166Y-75456126D01*
X105575471Y-75254552D01*
X105412395Y-75077404D01*
X105412390Y-75077400D01*
X105412388Y-75077398D01*
X105222392Y-74929518D01*
X105222386Y-74929514D01*
X105010624Y-74814913D01*
X105010619Y-74814911D01*
X104782890Y-74736732D01*
X104624556Y-74710310D01*
X104545391Y-74697100D01*
X104304609Y-74697100D01*
X104245234Y-74707008D01*
X104067109Y-74736732D01*
X103839380Y-74814911D01*
X103839375Y-74814913D01*
X103627613Y-74929514D01*
X103627607Y-74929518D01*
X103437611Y-75077398D01*
X103437608Y-75077401D01*
X103274529Y-75254552D01*
X103142832Y-75456129D01*
X103046113Y-75676626D01*
X102987004Y-75910044D01*
X102967121Y-76149994D01*
X100000000Y-76149994D01*
X100000000Y-69834940D01*
X102972100Y-69834940D01*
X102972100Y-72465054D01*
X102980972Y-72509658D01*
X102980973Y-72509661D01*
X103014765Y-72560233D01*
X103014766Y-72560234D01*
X103065342Y-72594028D01*
X103065343Y-72594028D01*
X103065345Y-72594029D01*
X103087642Y-72598464D01*
X103109943Y-72602900D01*
X105740056Y-72602899D01*
X105784658Y-72594028D01*
X105835234Y-72560234D01*
X105869028Y-72509658D01*
X105877900Y-72465057D01*
X105877899Y-69834944D01*
X105869028Y-69790342D01*
X105869026Y-69790340D01*
X105869026Y-69790338D01*
X105835234Y-69739766D01*
X105784659Y-69705973D01*
X105784658Y-69705972D01*
X105784657Y-69705971D01*
X105784656Y-69705971D01*
X105784654Y-69705970D01*
X105740059Y-69697100D01*
X103109945Y-69697100D01*
X103065341Y-69705972D01*
X103065338Y-69705973D01*
X103014766Y-69739765D01*
X102980971Y-69790343D01*
X102980970Y-69790345D01*
X102972100Y-69834940D01*
X100000000Y-69834940D01*
X100000000Y-47373723D01*
X101895500Y-47373723D01*
X101895500Y-47626277D01*
X101905896Y-47691912D01*
X101935009Y-47875722D01*
X101935009Y-47875725D01*
X102013050Y-48115911D01*
X102013051Y-48115914D01*
X102061051Y-48210118D01*
X102127709Y-48340941D01*
X102276156Y-48545261D01*
X102454739Y-48723844D01*
X102659059Y-48872291D01*
X102769428Y-48928526D01*
X102884085Y-48986948D01*
X102884088Y-48986949D01*
X103108123Y-49059741D01*
X103124279Y-49064991D01*
X103373723Y-49104500D01*
X103373724Y-49104500D01*
X103626276Y-49104500D01*
X103626277Y-49104500D01*
X103875721Y-49064991D01*
X103875724Y-49064990D01*
X103875725Y-49064990D01*
X104115911Y-48986949D01*
X104115914Y-48986948D01*
X104155851Y-48966599D01*
X104340941Y-48872291D01*
X104545261Y-48723844D01*
X104723844Y-48545261D01*
X104872291Y-48340941D01*
X104986948Y-48115914D01*
X105055496Y-47904944D01*
X105064990Y-47875725D01*
X105064990Y-47875724D01*
X105064991Y-47875721D01*
X105104500Y-47626277D01*
X105104500Y-47373723D01*
X105064991Y-47124279D01*
X105064990Y-47124275D01*
X105064990Y-47124274D01*
X104986949Y-46884088D01*
X104986948Y-46884085D01*
X104872290Y-46659058D01*
X104851250Y-46630099D01*
X104723844Y-46454739D01*
X104545261Y-46276156D01*
X104340941Y-46127709D01*
X104115914Y-46013051D01*
X104115911Y-46013050D01*
X104014189Y-45979999D01*
X107039364Y-45979999D01*
X107039364Y-45980000D01*
X107936988Y-45980000D01*
X107904075Y-46037007D01*
X107870000Y-46164174D01*
X107870000Y-46295826D01*
X107904075Y-46422993D01*
X107936988Y-46480000D01*
X107039364Y-46480000D01*
X107096567Y-46693486D01*
X107096570Y-46693492D01*
X107196399Y-46907578D01*
X107331894Y-47101082D01*
X107498917Y-47268105D01*
X107692421Y-47403600D01*
X107906507Y-47503429D01*
X107906518Y-47503434D01*
X107980755Y-47523325D01*
X108040416Y-47559689D01*
X108070946Y-47622536D01*
X108062652Y-47691912D01*
X108018167Y-47745790D01*
X107951615Y-47767065D01*
X107948663Y-47767100D01*
X107504945Y-47767100D01*
X107460341Y-47775972D01*
X107460338Y-47775973D01*
X107409766Y-47809765D01*
X107375971Y-47860343D01*
X107375970Y-47860345D01*
X107367100Y-47904940D01*
X107367100Y-49635054D01*
X107375972Y-49679658D01*
X107375973Y-49679661D01*
X107390260Y-49701042D01*
X107409766Y-49730234D01*
X107460342Y-49764028D01*
X107460343Y-49764028D01*
X107460345Y-49764029D01*
X107482642Y-49768464D01*
X107504943Y-49772900D01*
X109235056Y-49772899D01*
X109279658Y-49764028D01*
X109330234Y-49730234D01*
X109364028Y-49679658D01*
X109372900Y-49635057D01*
X109372899Y-47904944D01*
X109364028Y-47860342D01*
X109364026Y-47860340D01*
X109364026Y-47860338D01*
X109330234Y-47809766D01*
X109288097Y-47781611D01*
X109279658Y-47775972D01*
X109279657Y-47775971D01*
X109279656Y-47775971D01*
X109279654Y-47775970D01*
X109235059Y-47767100D01*
X108791338Y-47767100D01*
X108724299Y-47747415D01*
X108678544Y-47694611D01*
X108668600Y-47625453D01*
X108697625Y-47561897D01*
X108756403Y-47524123D01*
X108759245Y-47523325D01*
X108833483Y-47503433D01*
X108833492Y-47503429D01*
X109047578Y-47403600D01*
X109241082Y-47268105D01*
X109408105Y-47101082D01*
X109538425Y-46914968D01*
X109593002Y-46871344D01*
X109662501Y-46864151D01*
X109724855Y-46895673D01*
X109741575Y-46914968D01*
X109871894Y-47101082D01*
X110038917Y-47268105D01*
X110232421Y-47403600D01*
X110446507Y-47503429D01*
X110446516Y-47503433D01*
X110655718Y-47559488D01*
X110715379Y-47595853D01*
X110745908Y-47658700D01*
X110737613Y-47728075D01*
X110693128Y-47781953D01*
X110659621Y-47797923D01*
X110524354Y-47838956D01*
X110524350Y-47838957D01*
X110524350Y-47838958D01*
X110455571Y-47875721D01*
X110350118Y-47932086D01*
X110197410Y-48057410D01*
X110072086Y-48210118D01*
X109978958Y-48384350D01*
X109921610Y-48573400D01*
X109902247Y-48770000D01*
X109921610Y-48966599D01*
X109921610Y-48966601D01*
X109921611Y-48966603D01*
X109978958Y-49155650D01*
X110072084Y-49329878D01*
X110072086Y-49329881D01*
X110197410Y-49482589D01*
X110350118Y-49607913D01*
X110350122Y-49607916D01*
X110524350Y-49701042D01*
X110713397Y-49758389D01*
X110910000Y-49777753D01*
X111106603Y-49758389D01*
X111295650Y-49701042D01*
X111469878Y-49607916D01*
X111622589Y-49482589D01*
X111747916Y-49329878D01*
X111841042Y-49155650D01*
X111898389Y-48966603D01*
X111917753Y-48770000D01*
X112442247Y-48770000D01*
X112461610Y-48966599D01*
X112461610Y-48966601D01*
X112461611Y-48966603D01*
X112518958Y-49155650D01*
X112612084Y-49329878D01*
X112612086Y-49329881D01*
X112737410Y-49482589D01*
X112890118Y-49607913D01*
X112890122Y-49607916D01*
X113064350Y-49701042D01*
X113253397Y-49758389D01*
X113450000Y-49777753D01*
X113646603Y-49758389D01*
X113835650Y-49701042D01*
X114009878Y-49607916D01*
X114162589Y-49482589D01*
X114287916Y-49329878D01*
X114381042Y-49155650D01*
X114438389Y-48966603D01*
X114457753Y-48770000D01*
X114982247Y-48770000D01*
X115001610Y-48966599D01*
X115001610Y-48966601D01*
X115001611Y-48966603D01*
X115058958Y-49155650D01*
X115152084Y-49329878D01*
X115152086Y-49329881D01*
X115277410Y-49482589D01*
X115430118Y-49607913D01*
X115430122Y-49607916D01*
X115604350Y-49701042D01*
X115793397Y-49758389D01*
X115990000Y-49777753D01*
X116186603Y-49758389D01*
X116375650Y-49701042D01*
X116549878Y-49607916D01*
X116702589Y-49482589D01*
X116827916Y-49329878D01*
X116921042Y-49155650D01*
X116978389Y-48966603D01*
X116997753Y-48770000D01*
X117522247Y-48770000D01*
X117541610Y-48966599D01*
X117541610Y-48966601D01*
X117541611Y-48966603D01*
X117598958Y-49155650D01*
X117692084Y-49329878D01*
X117692086Y-49329881D01*
X117817410Y-49482589D01*
X117970118Y-49607913D01*
X117970122Y-49607916D01*
X118144350Y-49701042D01*
X118333397Y-49758389D01*
X118530000Y-49777753D01*
X118726603Y-49758389D01*
X118915650Y-49701042D01*
X119089878Y-49607916D01*
X119242589Y-49482589D01*
X119367916Y-49329878D01*
X119461042Y-49155650D01*
X119518389Y-48966603D01*
X119537753Y-48770000D01*
X120062247Y-48770000D01*
X120081610Y-48966599D01*
X120081610Y-48966601D01*
X120081611Y-48966603D01*
X120138958Y-49155650D01*
X120232084Y-49329878D01*
X120232086Y-49329881D01*
X120357410Y-49482589D01*
X120510118Y-49607913D01*
X120510122Y-49607916D01*
X120684350Y-49701042D01*
X120873397Y-49758389D01*
X121070000Y-49777753D01*
X121266603Y-49758389D01*
X121455650Y-49701042D01*
X121629878Y-49607916D01*
X121782589Y-49482589D01*
X121907916Y-49329878D01*
X122001042Y-49155650D01*
X122058389Y-48966603D01*
X122077753Y-48770000D01*
X122602247Y-48770000D01*
X122621610Y-48966599D01*
X122621610Y-48966601D01*
X122621611Y-48966603D01*
X122678958Y-49155650D01*
X122772084Y-49329878D01*
X122772086Y-49329881D01*
X122897410Y-49482589D01*
X123050118Y-49607913D01*
X123050122Y-49607916D01*
X123224350Y-49701042D01*
X123413397Y-49758389D01*
X123610000Y-49777753D01*
X123806603Y-49758389D01*
X123995650Y-49701042D01*
X124169878Y-49607916D01*
X124322589Y-49482589D01*
X124447916Y-49329878D01*
X124541042Y-49155650D01*
X124598389Y-48966603D01*
X124617753Y-48770000D01*
X125142247Y-48770000D01*
X125161610Y-48966599D01*
X125161610Y-48966601D01*
X125161611Y-48966603D01*
X125218958Y-49155650D01*
X125312084Y-49329878D01*
X125312086Y-49329881D01*
X125437410Y-49482589D01*
X125590118Y-49607913D01*
X125590122Y-49607916D01*
X125764350Y-49701042D01*
X125953397Y-49758389D01*
X126150000Y-49777753D01*
X126346603Y-49758389D01*
X126535650Y-49701042D01*
X126709878Y-49607916D01*
X126862589Y-49482589D01*
X126987916Y-49329878D01*
X127081042Y-49155650D01*
X127138389Y-48966603D01*
X127157753Y-48770000D01*
X127682247Y-48770000D01*
X127701610Y-48966599D01*
X127701610Y-48966601D01*
X127701611Y-48966603D01*
X127758958Y-49155650D01*
X127852084Y-49329878D01*
X127852086Y-49329881D01*
X127977410Y-49482589D01*
X128130118Y-49607913D01*
X128130122Y-49607916D01*
X128304350Y-49701042D01*
X128493397Y-49758389D01*
X128690000Y-49777753D01*
X128886603Y-49758389D01*
X129075650Y-49701042D01*
X129249878Y-49607916D01*
X129402589Y-49482589D01*
X129527916Y-49329878D01*
X129621042Y-49155650D01*
X129678389Y-48966603D01*
X129697753Y-48770000D01*
X130222247Y-48770000D01*
X130241610Y-48966599D01*
X130241610Y-48966601D01*
X130241611Y-48966603D01*
X130298958Y-49155650D01*
X130392084Y-49329878D01*
X130392086Y-49329881D01*
X130517410Y-49482589D01*
X130670118Y-49607913D01*
X130670122Y-49607916D01*
X130844350Y-49701042D01*
X131033397Y-49758389D01*
X131230000Y-49777753D01*
X131426603Y-49758389D01*
X131615650Y-49701042D01*
X131789878Y-49607916D01*
X131942589Y-49482589D01*
X132067916Y-49329878D01*
X132161042Y-49155650D01*
X132218389Y-48966603D01*
X132237753Y-48770000D01*
X132762247Y-48770000D01*
X132781610Y-48966599D01*
X132781610Y-48966601D01*
X132781611Y-48966603D01*
X132838958Y-49155650D01*
X132932084Y-49329878D01*
X132932086Y-49329881D01*
X133057410Y-49482589D01*
X133210118Y-49607913D01*
X133210122Y-49607916D01*
X133384350Y-49701042D01*
X133573397Y-49758389D01*
X133770000Y-49777753D01*
X133966603Y-49758389D01*
X134155650Y-49701042D01*
X134329878Y-49607916D01*
X134482589Y-49482589D01*
X134607916Y-49329878D01*
X134701042Y-49155650D01*
X134758389Y-48966603D01*
X134777753Y-48770000D01*
X135302247Y-48770000D01*
X135321610Y-48966599D01*
X135321610Y-48966601D01*
X135321611Y-48966603D01*
X135378958Y-49155650D01*
X135472084Y-49329878D01*
X135472086Y-49329881D01*
X135597410Y-49482589D01*
X135750118Y-49607913D01*
X135750122Y-49607916D01*
X135924350Y-49701042D01*
X136113397Y-49758389D01*
X136310000Y-49777753D01*
X136506603Y-49758389D01*
X136695650Y-49701042D01*
X136869878Y-49607916D01*
X137022589Y-49482589D01*
X137147916Y-49329878D01*
X137241042Y-49155650D01*
X137298389Y-48966603D01*
X137317753Y-48770000D01*
X137842247Y-48770000D01*
X137861610Y-48966599D01*
X137861610Y-48966601D01*
X137861611Y-48966603D01*
X137918958Y-49155650D01*
X138012084Y-49329878D01*
X138012086Y-49329881D01*
X138137410Y-49482589D01*
X138290118Y-49607913D01*
X138290122Y-49607916D01*
X138464350Y-49701042D01*
X138653397Y-49758389D01*
X138850000Y-49777753D01*
X139046603Y-49758389D01*
X139235650Y-49701042D01*
X139409878Y-49607916D01*
X139562589Y-49482589D01*
X139687916Y-49329878D01*
X139781042Y-49155650D01*
X139838389Y-48966603D01*
X139857753Y-48770000D01*
X140382247Y-48770000D01*
X140401610Y-48966599D01*
X140401610Y-48966601D01*
X140401611Y-48966603D01*
X140458958Y-49155650D01*
X140552084Y-49329878D01*
X140552086Y-49329881D01*
X140677410Y-49482589D01*
X140830118Y-49607913D01*
X140830122Y-49607916D01*
X141004350Y-49701042D01*
X141193397Y-49758389D01*
X141390000Y-49777753D01*
X141586603Y-49758389D01*
X141775650Y-49701042D01*
X141949878Y-49607916D01*
X142102589Y-49482589D01*
X142227916Y-49329878D01*
X142321042Y-49155650D01*
X142378389Y-48966603D01*
X142397753Y-48770000D01*
X142922247Y-48770000D01*
X142941610Y-48966599D01*
X142941610Y-48966601D01*
X142941611Y-48966603D01*
X142998958Y-49155650D01*
X143092084Y-49329878D01*
X143092086Y-49329881D01*
X143217410Y-49482589D01*
X143370118Y-49607913D01*
X143370122Y-49607916D01*
X143544350Y-49701042D01*
X143733397Y-49758389D01*
X143930000Y-49777753D01*
X144126603Y-49758389D01*
X144315650Y-49701042D01*
X144489878Y-49607916D01*
X144642589Y-49482589D01*
X144767916Y-49329878D01*
X144861042Y-49155650D01*
X144918389Y-48966603D01*
X144937753Y-48770000D01*
X145462247Y-48770000D01*
X145481610Y-48966599D01*
X145481610Y-48966601D01*
X145481611Y-48966603D01*
X145538958Y-49155650D01*
X145632084Y-49329878D01*
X145632086Y-49329881D01*
X145757410Y-49482589D01*
X145910118Y-49607913D01*
X145910122Y-49607916D01*
X146084350Y-49701042D01*
X146273397Y-49758389D01*
X146470000Y-49777753D01*
X146666603Y-49758389D01*
X146855650Y-49701042D01*
X147029878Y-49607916D01*
X147182589Y-49482589D01*
X147307916Y-49329878D01*
X147401042Y-49155650D01*
X147458389Y-48966603D01*
X147477753Y-48770000D01*
X148002247Y-48770000D01*
X148021610Y-48966599D01*
X148021610Y-48966601D01*
X148021611Y-48966603D01*
X148078958Y-49155650D01*
X148172084Y-49329878D01*
X148172086Y-49329881D01*
X148297410Y-49482589D01*
X148450118Y-49607913D01*
X148450122Y-49607916D01*
X148624350Y-49701042D01*
X148813397Y-49758389D01*
X149010000Y-49777753D01*
X149206603Y-49758389D01*
X149395650Y-49701042D01*
X149569878Y-49607916D01*
X149722589Y-49482589D01*
X149847916Y-49329878D01*
X149941042Y-49155650D01*
X149998389Y-48966603D01*
X150017753Y-48770000D01*
X150542247Y-48770000D01*
X150561610Y-48966599D01*
X150561610Y-48966601D01*
X150561611Y-48966603D01*
X150618958Y-49155650D01*
X150712084Y-49329878D01*
X150712086Y-49329881D01*
X150837410Y-49482589D01*
X150990118Y-49607913D01*
X150990122Y-49607916D01*
X151164350Y-49701042D01*
X151353397Y-49758389D01*
X151550000Y-49777753D01*
X151746603Y-49758389D01*
X151935650Y-49701042D01*
X152109878Y-49607916D01*
X152262589Y-49482589D01*
X152387916Y-49329878D01*
X152481042Y-49155650D01*
X152538389Y-48966603D01*
X152557753Y-48770000D01*
X153082247Y-48770000D01*
X153101610Y-48966599D01*
X153101610Y-48966601D01*
X153101611Y-48966603D01*
X153158958Y-49155650D01*
X153252084Y-49329878D01*
X153252086Y-49329881D01*
X153377410Y-49482589D01*
X153530118Y-49607913D01*
X153530122Y-49607916D01*
X153704350Y-49701042D01*
X153893397Y-49758389D01*
X154090000Y-49777753D01*
X154286603Y-49758389D01*
X154475650Y-49701042D01*
X154649878Y-49607916D01*
X154802589Y-49482589D01*
X154927916Y-49329878D01*
X155021042Y-49155650D01*
X155078389Y-48966603D01*
X155097753Y-48770000D01*
X155622247Y-48770000D01*
X155641610Y-48966599D01*
X155641610Y-48966601D01*
X155641611Y-48966603D01*
X155698958Y-49155650D01*
X155792084Y-49329878D01*
X155792086Y-49329881D01*
X155917410Y-49482589D01*
X156070118Y-49607913D01*
X156070122Y-49607916D01*
X156244350Y-49701042D01*
X156433397Y-49758389D01*
X156630000Y-49777753D01*
X156826603Y-49758389D01*
X157015650Y-49701042D01*
X157189878Y-49607916D01*
X157342589Y-49482589D01*
X157467916Y-49329878D01*
X157561042Y-49155650D01*
X157618389Y-48966603D01*
X157637753Y-48770000D01*
X157618389Y-48573397D01*
X157561042Y-48384350D01*
X157467916Y-48210122D01*
X157467913Y-48210118D01*
X157342589Y-48057410D01*
X157189881Y-47932086D01*
X157189879Y-47932085D01*
X157189878Y-47932084D01*
X157015650Y-47838958D01*
X156826603Y-47781611D01*
X156826601Y-47781610D01*
X156826599Y-47781610D01*
X156630000Y-47762247D01*
X156433400Y-47781610D01*
X156244350Y-47838958D01*
X156070118Y-47932086D01*
X155917410Y-48057410D01*
X155792086Y-48210118D01*
X155698958Y-48384350D01*
X155641610Y-48573400D01*
X155622247Y-48770000D01*
X155097753Y-48770000D01*
X155078389Y-48573397D01*
X155021042Y-48384350D01*
X154927916Y-48210122D01*
X154927913Y-48210118D01*
X154802589Y-48057410D01*
X154649881Y-47932086D01*
X154649879Y-47932085D01*
X154649878Y-47932084D01*
X154475650Y-47838958D01*
X154286603Y-47781611D01*
X154286601Y-47781610D01*
X154286599Y-47781610D01*
X154090000Y-47762247D01*
X153893400Y-47781610D01*
X153704350Y-47838958D01*
X153530118Y-47932086D01*
X153377410Y-48057410D01*
X153252086Y-48210118D01*
X153158958Y-48384350D01*
X153101610Y-48573400D01*
X153082247Y-48770000D01*
X152557753Y-48770000D01*
X152538389Y-48573397D01*
X152481042Y-48384350D01*
X152387916Y-48210122D01*
X152387913Y-48210118D01*
X152262589Y-48057410D01*
X152109881Y-47932086D01*
X152109879Y-47932085D01*
X152109878Y-47932084D01*
X151935650Y-47838958D01*
X151746603Y-47781611D01*
X151746601Y-47781610D01*
X151746599Y-47781610D01*
X151550000Y-47762247D01*
X151353400Y-47781610D01*
X151164350Y-47838958D01*
X150990118Y-47932086D01*
X150837410Y-48057410D01*
X150712086Y-48210118D01*
X150618958Y-48384350D01*
X150561610Y-48573400D01*
X150542247Y-48770000D01*
X150017753Y-48770000D01*
X149998389Y-48573397D01*
X149941042Y-48384350D01*
X149847916Y-48210122D01*
X149847913Y-48210118D01*
X149722589Y-48057410D01*
X149569881Y-47932086D01*
X149569879Y-47932085D01*
X149569878Y-47932084D01*
X149395650Y-47838958D01*
X149206603Y-47781611D01*
X149206601Y-47781610D01*
X149206599Y-47781610D01*
X149010000Y-47762247D01*
X148813400Y-47781610D01*
X148624350Y-47838958D01*
X148450118Y-47932086D01*
X148297410Y-48057410D01*
X148172086Y-48210118D01*
X148078958Y-48384350D01*
X148021610Y-48573400D01*
X148002247Y-48770000D01*
X147477753Y-48770000D01*
X147458389Y-48573397D01*
X147401042Y-48384350D01*
X147307916Y-48210122D01*
X147307913Y-48210118D01*
X147182589Y-48057410D01*
X147029881Y-47932086D01*
X147029879Y-47932085D01*
X147029878Y-47932084D01*
X146855650Y-47838958D01*
X146666603Y-47781611D01*
X146666601Y-47781610D01*
X146666599Y-47781610D01*
X146470000Y-47762247D01*
X146273400Y-47781610D01*
X146084350Y-47838958D01*
X145910118Y-47932086D01*
X145757410Y-48057410D01*
X145632086Y-48210118D01*
X145538958Y-48384350D01*
X145481610Y-48573400D01*
X145462247Y-48770000D01*
X144937753Y-48770000D01*
X144918389Y-48573397D01*
X144861042Y-48384350D01*
X144767916Y-48210122D01*
X144767913Y-48210118D01*
X144642589Y-48057410D01*
X144489881Y-47932086D01*
X144489879Y-47932085D01*
X144489878Y-47932084D01*
X144315650Y-47838958D01*
X144126603Y-47781611D01*
X144126601Y-47781610D01*
X144126599Y-47781610D01*
X143930000Y-47762247D01*
X143733400Y-47781610D01*
X143544350Y-47838958D01*
X143370118Y-47932086D01*
X143217410Y-48057410D01*
X143092086Y-48210118D01*
X142998958Y-48384350D01*
X142941610Y-48573400D01*
X142922247Y-48770000D01*
X142397753Y-48770000D01*
X142378389Y-48573397D01*
X142321042Y-48384350D01*
X142227916Y-48210122D01*
X142227913Y-48210118D01*
X142102589Y-48057410D01*
X141949881Y-47932086D01*
X141949879Y-47932085D01*
X141949878Y-47932084D01*
X141775650Y-47838958D01*
X141586603Y-47781611D01*
X141586601Y-47781610D01*
X141586599Y-47781610D01*
X141390000Y-47762247D01*
X141193400Y-47781610D01*
X141004350Y-47838958D01*
X140830118Y-47932086D01*
X140677410Y-48057410D01*
X140552086Y-48210118D01*
X140458958Y-48384350D01*
X140401610Y-48573400D01*
X140382247Y-48770000D01*
X139857753Y-48770000D01*
X139838389Y-48573397D01*
X139781042Y-48384350D01*
X139687916Y-48210122D01*
X139687913Y-48210118D01*
X139562589Y-48057410D01*
X139409881Y-47932086D01*
X139409879Y-47932085D01*
X139409878Y-47932084D01*
X139235650Y-47838958D01*
X139046603Y-47781611D01*
X139046601Y-47781610D01*
X139046599Y-47781610D01*
X138850000Y-47762247D01*
X138653400Y-47781610D01*
X138464350Y-47838958D01*
X138290118Y-47932086D01*
X138137410Y-48057410D01*
X138012086Y-48210118D01*
X137918958Y-48384350D01*
X137861610Y-48573400D01*
X137842247Y-48770000D01*
X137317753Y-48770000D01*
X137298389Y-48573397D01*
X137241042Y-48384350D01*
X137147916Y-48210122D01*
X137147913Y-48210118D01*
X137022589Y-48057410D01*
X136869881Y-47932086D01*
X136869879Y-47932085D01*
X136869878Y-47932084D01*
X136695650Y-47838958D01*
X136506603Y-47781611D01*
X136506601Y-47781610D01*
X136506599Y-47781610D01*
X136310000Y-47762247D01*
X136113400Y-47781610D01*
X135924350Y-47838958D01*
X135750118Y-47932086D01*
X135597410Y-48057410D01*
X135472086Y-48210118D01*
X135378958Y-48384350D01*
X135321610Y-48573400D01*
X135302247Y-48770000D01*
X134777753Y-48770000D01*
X134758389Y-48573397D01*
X134701042Y-48384350D01*
X134607916Y-48210122D01*
X134607913Y-48210118D01*
X134482589Y-48057410D01*
X134329881Y-47932086D01*
X134329879Y-47932085D01*
X134329878Y-47932084D01*
X134155650Y-47838958D01*
X133966603Y-47781611D01*
X133966601Y-47781610D01*
X133966599Y-47781610D01*
X133770000Y-47762247D01*
X133573400Y-47781610D01*
X133384350Y-47838958D01*
X133210118Y-47932086D01*
X133057410Y-48057410D01*
X132932086Y-48210118D01*
X132838958Y-48384350D01*
X132781610Y-48573400D01*
X132762247Y-48770000D01*
X132237753Y-48770000D01*
X132218389Y-48573397D01*
X132161042Y-48384350D01*
X132067916Y-48210122D01*
X132067913Y-48210118D01*
X131942589Y-48057410D01*
X131789881Y-47932086D01*
X131789879Y-47932085D01*
X131789878Y-47932084D01*
X131615650Y-47838958D01*
X131426603Y-47781611D01*
X131426601Y-47781610D01*
X131426599Y-47781610D01*
X131230000Y-47762247D01*
X131033400Y-47781610D01*
X130844350Y-47838958D01*
X130670118Y-47932086D01*
X130517410Y-48057410D01*
X130392086Y-48210118D01*
X130298958Y-48384350D01*
X130241610Y-48573400D01*
X130222247Y-48770000D01*
X129697753Y-48770000D01*
X129678389Y-48573397D01*
X129621042Y-48384350D01*
X129527916Y-48210122D01*
X129527913Y-48210118D01*
X129402589Y-48057410D01*
X129249881Y-47932086D01*
X129249879Y-47932085D01*
X129249878Y-47932084D01*
X129075650Y-47838958D01*
X128886603Y-47781611D01*
X128886601Y-47781610D01*
X128886599Y-47781610D01*
X128690000Y-47762247D01*
X128493400Y-47781610D01*
X128304350Y-47838958D01*
X128130118Y-47932086D01*
X127977410Y-48057410D01*
X127852086Y-48210118D01*
X127758958Y-48384350D01*
X127701610Y-48573400D01*
X127682247Y-48770000D01*
X127157753Y-48770000D01*
X127138389Y-48573397D01*
X127081042Y-48384350D01*
X126987916Y-48210122D01*
X126987913Y-48210118D01*
X126862589Y-48057410D01*
X126709881Y-47932086D01*
X126709879Y-47932085D01*
X126709878Y-47932084D01*
X126535650Y-47838958D01*
X126346603Y-47781611D01*
X126346601Y-47781610D01*
X126346599Y-47781610D01*
X126150000Y-47762247D01*
X125953400Y-47781610D01*
X125764350Y-47838958D01*
X125590118Y-47932086D01*
X125437410Y-48057410D01*
X125312086Y-48210118D01*
X125218958Y-48384350D01*
X125161610Y-48573400D01*
X125142247Y-48770000D01*
X124617753Y-48770000D01*
X124598389Y-48573397D01*
X124541042Y-48384350D01*
X124447916Y-48210122D01*
X124447913Y-48210118D01*
X124322589Y-48057410D01*
X124169881Y-47932086D01*
X124169879Y-47932085D01*
X124169878Y-47932084D01*
X123995650Y-47838958D01*
X123806603Y-47781611D01*
X123806601Y-47781610D01*
X123806599Y-47781610D01*
X123610000Y-47762247D01*
X123413400Y-47781610D01*
X123224350Y-47838958D01*
X123050118Y-47932086D01*
X122897410Y-48057410D01*
X122772086Y-48210118D01*
X122678958Y-48384350D01*
X122621610Y-48573400D01*
X122602247Y-48770000D01*
X122077753Y-48770000D01*
X122058389Y-48573397D01*
X122001042Y-48384350D01*
X121907916Y-48210122D01*
X121907913Y-48210118D01*
X121782589Y-48057410D01*
X121629881Y-47932086D01*
X121629879Y-47932085D01*
X121629878Y-47932084D01*
X121455650Y-47838958D01*
X121266603Y-47781611D01*
X121266601Y-47781610D01*
X121266599Y-47781610D01*
X121070000Y-47762247D01*
X120873400Y-47781610D01*
X120684350Y-47838958D01*
X120510118Y-47932086D01*
X120357410Y-48057410D01*
X120232086Y-48210118D01*
X120138958Y-48384350D01*
X120081610Y-48573400D01*
X120062247Y-48770000D01*
X119537753Y-48770000D01*
X119518389Y-48573397D01*
X119461042Y-48384350D01*
X119367916Y-48210122D01*
X119367913Y-48210118D01*
X119242589Y-48057410D01*
X119089881Y-47932086D01*
X119089879Y-47932085D01*
X119089878Y-47932084D01*
X118915650Y-47838958D01*
X118726603Y-47781611D01*
X118726601Y-47781610D01*
X118726599Y-47781610D01*
X118530000Y-47762247D01*
X118333400Y-47781610D01*
X118144350Y-47838958D01*
X117970118Y-47932086D01*
X117817410Y-48057410D01*
X117692086Y-48210118D01*
X117598958Y-48384350D01*
X117541610Y-48573400D01*
X117522247Y-48770000D01*
X116997753Y-48770000D01*
X116978389Y-48573397D01*
X116921042Y-48384350D01*
X116827916Y-48210122D01*
X116827913Y-48210118D01*
X116702589Y-48057410D01*
X116549881Y-47932086D01*
X116549879Y-47932085D01*
X116549878Y-47932084D01*
X116375650Y-47838958D01*
X116186603Y-47781611D01*
X116186601Y-47781610D01*
X116186599Y-47781610D01*
X115990000Y-47762247D01*
X115793400Y-47781610D01*
X115604350Y-47838958D01*
X115430118Y-47932086D01*
X115277410Y-48057410D01*
X115152086Y-48210118D01*
X115058958Y-48384350D01*
X115001610Y-48573400D01*
X114982247Y-48770000D01*
X114457753Y-48770000D01*
X114438389Y-48573397D01*
X114381042Y-48384350D01*
X114287916Y-48210122D01*
X114287913Y-48210118D01*
X114162589Y-48057410D01*
X114009881Y-47932086D01*
X114009879Y-47932085D01*
X114009878Y-47932084D01*
X113835650Y-47838958D01*
X113646603Y-47781611D01*
X113646601Y-47781610D01*
X113646599Y-47781610D01*
X113450000Y-47762247D01*
X113253400Y-47781610D01*
X113064350Y-47838958D01*
X112890118Y-47932086D01*
X112737410Y-48057410D01*
X112612086Y-48210118D01*
X112518958Y-48384350D01*
X112461610Y-48573400D01*
X112442247Y-48770000D01*
X111917753Y-48770000D01*
X111898389Y-48573397D01*
X111841042Y-48384350D01*
X111747916Y-48210122D01*
X111747913Y-48210118D01*
X111622589Y-48057410D01*
X111469881Y-47932086D01*
X111469879Y-47932085D01*
X111469878Y-47932084D01*
X111295650Y-47838958D01*
X111295647Y-47838957D01*
X111295645Y-47838956D01*
X111160378Y-47797923D01*
X111101940Y-47759626D01*
X111073483Y-47695814D01*
X111084044Y-47626747D01*
X111130269Y-47574353D01*
X111164281Y-47559488D01*
X111373483Y-47503433D01*
X111373492Y-47503429D01*
X111587578Y-47403600D01*
X111630246Y-47373723D01*
X159895500Y-47373723D01*
X159895500Y-47626277D01*
X159905896Y-47691912D01*
X159935009Y-47875722D01*
X159935009Y-47875725D01*
X160013050Y-48115911D01*
X160013051Y-48115914D01*
X160061051Y-48210118D01*
X160127709Y-48340941D01*
X160276156Y-48545261D01*
X160454739Y-48723844D01*
X160659059Y-48872291D01*
X160769428Y-48928526D01*
X160884085Y-48986948D01*
X160884088Y-48986949D01*
X161108123Y-49059741D01*
X161124279Y-49064991D01*
X161373723Y-49104500D01*
X161373724Y-49104500D01*
X161626276Y-49104500D01*
X161626277Y-49104500D01*
X161875721Y-49064991D01*
X161875724Y-49064990D01*
X161875725Y-49064990D01*
X162115911Y-48986949D01*
X162115914Y-48986948D01*
X162155851Y-48966599D01*
X162340941Y-48872291D01*
X162545261Y-48723844D01*
X162723844Y-48545261D01*
X162872291Y-48340941D01*
X162986948Y-48115914D01*
X163055496Y-47904944D01*
X163064990Y-47875725D01*
X163064990Y-47875724D01*
X163064991Y-47875721D01*
X163104500Y-47626277D01*
X163104500Y-47373723D01*
X163064991Y-47124279D01*
X163064990Y-47124275D01*
X163064990Y-47124274D01*
X162986949Y-46884088D01*
X162986948Y-46884085D01*
X162872290Y-46659058D01*
X162851250Y-46630099D01*
X162723844Y-46454739D01*
X162545261Y-46276156D01*
X162340941Y-46127709D01*
X162115914Y-46013051D01*
X162115911Y-46013050D01*
X161875723Y-45935009D01*
X161709425Y-45908669D01*
X161626277Y-45895500D01*
X161373723Y-45895500D01*
X161290575Y-45908669D01*
X161124277Y-45935009D01*
X161124274Y-45935009D01*
X160884088Y-46013050D01*
X160884085Y-46013051D01*
X160659058Y-46127709D01*
X160454736Y-46276158D01*
X160276158Y-46454736D01*
X160127709Y-46659058D01*
X160013051Y-46884085D01*
X160013050Y-46884088D01*
X159935009Y-47124274D01*
X159935009Y-47124277D01*
X159935009Y-47124279D01*
X159895500Y-47373723D01*
X111630246Y-47373723D01*
X111781082Y-47268105D01*
X111948105Y-47101082D01*
X112083600Y-46907578D01*
X112183429Y-46693492D01*
X112183433Y-46693483D01*
X112239488Y-46484281D01*
X112275853Y-46424620D01*
X112338700Y-46394091D01*
X112408075Y-46402386D01*
X112461953Y-46446871D01*
X112477923Y-46480378D01*
X112518956Y-46615645D01*
X112518958Y-46615650D01*
X112561866Y-46695925D01*
X112612086Y-46789881D01*
X112737410Y-46942589D01*
X112890118Y-47067913D01*
X112890122Y-47067916D01*
X113064350Y-47161042D01*
X113253397Y-47218389D01*
X113450000Y-47237753D01*
X113646603Y-47218389D01*
X113835650Y-47161042D01*
X114009878Y-47067916D01*
X114162589Y-46942589D01*
X114287916Y-46789878D01*
X114381042Y-46615650D01*
X114438389Y-46426603D01*
X114457753Y-46230000D01*
X114982247Y-46230000D01*
X115001610Y-46426599D01*
X115001610Y-46426601D01*
X115001611Y-46426603D01*
X115058958Y-46615650D01*
X115101866Y-46695925D01*
X115152086Y-46789881D01*
X115277410Y-46942589D01*
X115430118Y-47067913D01*
X115430122Y-47067916D01*
X115604350Y-47161042D01*
X115793397Y-47218389D01*
X115990000Y-47237753D01*
X116186603Y-47218389D01*
X116375650Y-47161042D01*
X116549878Y-47067916D01*
X116702589Y-46942589D01*
X116827916Y-46789878D01*
X116921042Y-46615650D01*
X116978389Y-46426603D01*
X116997753Y-46230000D01*
X117522247Y-46230000D01*
X117541610Y-46426599D01*
X117541610Y-46426601D01*
X117541611Y-46426603D01*
X117598958Y-46615650D01*
X117641866Y-46695925D01*
X117692086Y-46789881D01*
X117817410Y-46942589D01*
X117970118Y-47067913D01*
X117970122Y-47067916D01*
X118144350Y-47161042D01*
X118333397Y-47218389D01*
X118530000Y-47237753D01*
X118726603Y-47218389D01*
X118915650Y-47161042D01*
X119089878Y-47067916D01*
X119242589Y-46942589D01*
X119367916Y-46789878D01*
X119461042Y-46615650D01*
X119518389Y-46426603D01*
X119537753Y-46230000D01*
X120062247Y-46230000D01*
X120081610Y-46426599D01*
X120081610Y-46426601D01*
X120081611Y-46426603D01*
X120138958Y-46615650D01*
X120181866Y-46695925D01*
X120232086Y-46789881D01*
X120357410Y-46942589D01*
X120510118Y-47067913D01*
X120510122Y-47067916D01*
X120684350Y-47161042D01*
X120873397Y-47218389D01*
X121070000Y-47237753D01*
X121266603Y-47218389D01*
X121455650Y-47161042D01*
X121629878Y-47067916D01*
X121782589Y-46942589D01*
X121907916Y-46789878D01*
X122001042Y-46615650D01*
X122058389Y-46426603D01*
X122077753Y-46230000D01*
X122602247Y-46230000D01*
X122621610Y-46426599D01*
X122621610Y-46426601D01*
X122621611Y-46426603D01*
X122678958Y-46615650D01*
X122721866Y-46695925D01*
X122772086Y-46789881D01*
X122897410Y-46942589D01*
X123050118Y-47067913D01*
X123050122Y-47067916D01*
X123224350Y-47161042D01*
X123413397Y-47218389D01*
X123610000Y-47237753D01*
X123806603Y-47218389D01*
X123995650Y-47161042D01*
X124169878Y-47067916D01*
X124322589Y-46942589D01*
X124447916Y-46789878D01*
X124541042Y-46615650D01*
X124598389Y-46426603D01*
X124617753Y-46230000D01*
X125142247Y-46230000D01*
X125161610Y-46426599D01*
X125161610Y-46426601D01*
X125161611Y-46426603D01*
X125218958Y-46615650D01*
X125261866Y-46695925D01*
X125312086Y-46789881D01*
X125437410Y-46942589D01*
X125590118Y-47067913D01*
X125590122Y-47067916D01*
X125764350Y-47161042D01*
X125953397Y-47218389D01*
X126150000Y-47237753D01*
X126346603Y-47218389D01*
X126535650Y-47161042D01*
X126709878Y-47067916D01*
X126862589Y-46942589D01*
X126987916Y-46789878D01*
X127081042Y-46615650D01*
X127138389Y-46426603D01*
X127157753Y-46230000D01*
X127682247Y-46230000D01*
X127701610Y-46426599D01*
X127701610Y-46426601D01*
X127701611Y-46426603D01*
X127758958Y-46615650D01*
X127801866Y-46695925D01*
X127852086Y-46789881D01*
X127977410Y-46942589D01*
X128130118Y-47067913D01*
X128130122Y-47067916D01*
X128304350Y-47161042D01*
X128493397Y-47218389D01*
X128690000Y-47237753D01*
X128886603Y-47218389D01*
X129075650Y-47161042D01*
X129249878Y-47067916D01*
X129402589Y-46942589D01*
X129527916Y-46789878D01*
X129621042Y-46615650D01*
X129678389Y-46426603D01*
X129697753Y-46230000D01*
X130222247Y-46230000D01*
X130241610Y-46426599D01*
X130241610Y-46426601D01*
X130241611Y-46426603D01*
X130298958Y-46615650D01*
X130341866Y-46695925D01*
X130392086Y-46789881D01*
X130517410Y-46942589D01*
X130670118Y-47067913D01*
X130670122Y-47067916D01*
X130844350Y-47161042D01*
X131033397Y-47218389D01*
X131230000Y-47237753D01*
X131426603Y-47218389D01*
X131615650Y-47161042D01*
X131789878Y-47067916D01*
X131942589Y-46942589D01*
X132067916Y-46789878D01*
X132161042Y-46615650D01*
X132218389Y-46426603D01*
X132237753Y-46230000D01*
X132762247Y-46230000D01*
X132781610Y-46426599D01*
X132781610Y-46426601D01*
X132781611Y-46426603D01*
X132838958Y-46615650D01*
X132881866Y-46695925D01*
X132932086Y-46789881D01*
X133057410Y-46942589D01*
X133210118Y-47067913D01*
X133210122Y-47067916D01*
X133384350Y-47161042D01*
X133573397Y-47218389D01*
X133770000Y-47237753D01*
X133966603Y-47218389D01*
X134155650Y-47161042D01*
X134329878Y-47067916D01*
X134482589Y-46942589D01*
X134607916Y-46789878D01*
X134701042Y-46615650D01*
X134758389Y-46426603D01*
X134777753Y-46230000D01*
X135302247Y-46230000D01*
X135321610Y-46426599D01*
X135321610Y-46426601D01*
X135321611Y-46426603D01*
X135378958Y-46615650D01*
X135421866Y-46695925D01*
X135472086Y-46789881D01*
X135597410Y-46942589D01*
X135750118Y-47067913D01*
X135750122Y-47067916D01*
X135924350Y-47161042D01*
X136113397Y-47218389D01*
X136310000Y-47237753D01*
X136506603Y-47218389D01*
X136695650Y-47161042D01*
X136869878Y-47067916D01*
X137022589Y-46942589D01*
X137147916Y-46789878D01*
X137241042Y-46615650D01*
X137298389Y-46426603D01*
X137317753Y-46230000D01*
X137842247Y-46230000D01*
X137861610Y-46426599D01*
X137861610Y-46426601D01*
X137861611Y-46426603D01*
X137918958Y-46615650D01*
X137961866Y-46695925D01*
X138012086Y-46789881D01*
X138137410Y-46942589D01*
X138290118Y-47067913D01*
X138290122Y-47067916D01*
X138464350Y-47161042D01*
X138653397Y-47218389D01*
X138850000Y-47237753D01*
X139046603Y-47218389D01*
X139235650Y-47161042D01*
X139409878Y-47067916D01*
X139562589Y-46942589D01*
X139687916Y-46789878D01*
X139781042Y-46615650D01*
X139838389Y-46426603D01*
X139857753Y-46230000D01*
X140382247Y-46230000D01*
X140401610Y-46426599D01*
X140401610Y-46426601D01*
X140401611Y-46426603D01*
X140458958Y-46615650D01*
X140501866Y-46695925D01*
X140552086Y-46789881D01*
X140677410Y-46942589D01*
X140830118Y-47067913D01*
X140830122Y-47067916D01*
X141004350Y-47161042D01*
X141193397Y-47218389D01*
X141390000Y-47237753D01*
X141586603Y-47218389D01*
X141775650Y-47161042D01*
X141949878Y-47067916D01*
X142102589Y-46942589D01*
X142227916Y-46789878D01*
X142321042Y-46615650D01*
X142378389Y-46426603D01*
X142397753Y-46230000D01*
X142922247Y-46230000D01*
X142941610Y-46426599D01*
X142941610Y-46426601D01*
X142941611Y-46426603D01*
X142998958Y-46615650D01*
X143041866Y-46695925D01*
X143092086Y-46789881D01*
X143217410Y-46942589D01*
X143370118Y-47067913D01*
X143370122Y-47067916D01*
X143544350Y-47161042D01*
X143733397Y-47218389D01*
X143930000Y-47237753D01*
X144126603Y-47218389D01*
X144315650Y-47161042D01*
X144489878Y-47067916D01*
X144642589Y-46942589D01*
X144767916Y-46789878D01*
X144861042Y-46615650D01*
X144918389Y-46426603D01*
X144937753Y-46230000D01*
X145462247Y-46230000D01*
X145481610Y-46426599D01*
X145481610Y-46426601D01*
X145481611Y-46426603D01*
X145538958Y-46615650D01*
X145581866Y-46695925D01*
X145632086Y-46789881D01*
X145757410Y-46942589D01*
X145910118Y-47067913D01*
X145910122Y-47067916D01*
X146084350Y-47161042D01*
X146273397Y-47218389D01*
X146470000Y-47237753D01*
X146666603Y-47218389D01*
X146855650Y-47161042D01*
X147029878Y-47067916D01*
X147182589Y-46942589D01*
X147307916Y-46789878D01*
X147401042Y-46615650D01*
X147458389Y-46426603D01*
X147477753Y-46230000D01*
X148002247Y-46230000D01*
X148021610Y-46426599D01*
X148021610Y-46426601D01*
X148021611Y-46426603D01*
X148078958Y-46615650D01*
X148121866Y-46695925D01*
X148172086Y-46789881D01*
X148297410Y-46942589D01*
X148450118Y-47067913D01*
X148450122Y-47067916D01*
X148624350Y-47161042D01*
X148813397Y-47218389D01*
X149010000Y-47237753D01*
X149206603Y-47218389D01*
X149395650Y-47161042D01*
X149569878Y-47067916D01*
X149722589Y-46942589D01*
X149847916Y-46789878D01*
X149941042Y-46615650D01*
X149998389Y-46426603D01*
X150017753Y-46230000D01*
X150542247Y-46230000D01*
X150561610Y-46426599D01*
X150561610Y-46426601D01*
X150561611Y-46426603D01*
X150618958Y-46615650D01*
X150661866Y-46695925D01*
X150712086Y-46789881D01*
X150837410Y-46942589D01*
X150990118Y-47067913D01*
X150990122Y-47067916D01*
X151164350Y-47161042D01*
X151353397Y-47218389D01*
X151550000Y-47237753D01*
X151746603Y-47218389D01*
X151935650Y-47161042D01*
X152109878Y-47067916D01*
X152262589Y-46942589D01*
X152387916Y-46789878D01*
X152481042Y-46615650D01*
X152538389Y-46426603D01*
X152557753Y-46230000D01*
X153082247Y-46230000D01*
X153101610Y-46426599D01*
X153101610Y-46426601D01*
X153101611Y-46426603D01*
X153158958Y-46615650D01*
X153201866Y-46695925D01*
X153252086Y-46789881D01*
X153377410Y-46942589D01*
X153530118Y-47067913D01*
X153530122Y-47067916D01*
X153704350Y-47161042D01*
X153893397Y-47218389D01*
X154090000Y-47237753D01*
X154286603Y-47218389D01*
X154475650Y-47161042D01*
X154649878Y-47067916D01*
X154802589Y-46942589D01*
X154927916Y-46789878D01*
X155021042Y-46615650D01*
X155078389Y-46426603D01*
X155097753Y-46230000D01*
X155622247Y-46230000D01*
X155641610Y-46426599D01*
X155641610Y-46426601D01*
X155641611Y-46426603D01*
X155698958Y-46615650D01*
X155741866Y-46695925D01*
X155792086Y-46789881D01*
X155917410Y-46942589D01*
X156070118Y-47067913D01*
X156070122Y-47067916D01*
X156244350Y-47161042D01*
X156433397Y-47218389D01*
X156630000Y-47237753D01*
X156826603Y-47218389D01*
X157015650Y-47161042D01*
X157189878Y-47067916D01*
X157342589Y-46942589D01*
X157467916Y-46789878D01*
X157561042Y-46615650D01*
X157618389Y-46426603D01*
X157637753Y-46230000D01*
X157618389Y-46033397D01*
X157561042Y-45844350D01*
X157467916Y-45670122D01*
X157467913Y-45670118D01*
X157342589Y-45517410D01*
X157189881Y-45392086D01*
X157189879Y-45392085D01*
X157189878Y-45392084D01*
X157015650Y-45298958D01*
X156826603Y-45241611D01*
X156826601Y-45241610D01*
X156826599Y-45241610D01*
X156630000Y-45222247D01*
X156433400Y-45241610D01*
X156244350Y-45298958D01*
X156070118Y-45392086D01*
X155917410Y-45517410D01*
X155792086Y-45670118D01*
X155698958Y-45844350D01*
X155641610Y-46033400D01*
X155622247Y-46230000D01*
X155097753Y-46230000D01*
X155078389Y-46033397D01*
X155021042Y-45844350D01*
X154927916Y-45670122D01*
X154927913Y-45670118D01*
X154802589Y-45517410D01*
X154649881Y-45392086D01*
X154649879Y-45392085D01*
X154649878Y-45392084D01*
X154475650Y-45298958D01*
X154286603Y-45241611D01*
X154286601Y-45241610D01*
X154286599Y-45241610D01*
X154090000Y-45222247D01*
X153893400Y-45241610D01*
X153704350Y-45298958D01*
X153530118Y-45392086D01*
X153377410Y-45517410D01*
X153252086Y-45670118D01*
X153158958Y-45844350D01*
X153101610Y-46033400D01*
X153082247Y-46230000D01*
X152557753Y-46230000D01*
X152538389Y-46033397D01*
X152481042Y-45844350D01*
X152387916Y-45670122D01*
X152387913Y-45670118D01*
X152262589Y-45517410D01*
X152109881Y-45392086D01*
X152109879Y-45392085D01*
X152109878Y-45392084D01*
X151935650Y-45298958D01*
X151746603Y-45241611D01*
X151746601Y-45241610D01*
X151746599Y-45241610D01*
X151550000Y-45222247D01*
X151353400Y-45241610D01*
X151164350Y-45298958D01*
X150990118Y-45392086D01*
X150837410Y-45517410D01*
X150712086Y-45670118D01*
X150618958Y-45844350D01*
X150561610Y-46033400D01*
X150542247Y-46230000D01*
X150017753Y-46230000D01*
X149998389Y-46033397D01*
X149941042Y-45844350D01*
X149847916Y-45670122D01*
X149847913Y-45670118D01*
X149722589Y-45517410D01*
X149569881Y-45392086D01*
X149569879Y-45392085D01*
X149569878Y-45392084D01*
X149395650Y-45298958D01*
X149206603Y-45241611D01*
X149206601Y-45241610D01*
X149206599Y-45241610D01*
X149010000Y-45222247D01*
X148813400Y-45241610D01*
X148624350Y-45298958D01*
X148450118Y-45392086D01*
X148297410Y-45517410D01*
X148172086Y-45670118D01*
X148078958Y-45844350D01*
X148021610Y-46033400D01*
X148002247Y-46230000D01*
X147477753Y-46230000D01*
X147458389Y-46033397D01*
X147401042Y-45844350D01*
X147307916Y-45670122D01*
X147307913Y-45670118D01*
X147182589Y-45517410D01*
X147029881Y-45392086D01*
X147029879Y-45392085D01*
X147029878Y-45392084D01*
X146855650Y-45298958D01*
X146666603Y-45241611D01*
X146666601Y-45241610D01*
X146666599Y-45241610D01*
X146470000Y-45222247D01*
X146273400Y-45241610D01*
X146084350Y-45298958D01*
X145910118Y-45392086D01*
X145757410Y-45517410D01*
X145632086Y-45670118D01*
X145538958Y-45844350D01*
X145481610Y-46033400D01*
X145462247Y-46230000D01*
X144937753Y-46230000D01*
X144918389Y-46033397D01*
X144861042Y-45844350D01*
X144767916Y-45670122D01*
X144767913Y-45670118D01*
X144642589Y-45517410D01*
X144489881Y-45392086D01*
X144489879Y-45392085D01*
X144489878Y-45392084D01*
X144315650Y-45298958D01*
X144126603Y-45241611D01*
X144126601Y-45241610D01*
X144126599Y-45241610D01*
X143930000Y-45222247D01*
X143733400Y-45241610D01*
X143544350Y-45298958D01*
X143370118Y-45392086D01*
X143217410Y-45517410D01*
X143092086Y-45670118D01*
X142998958Y-45844350D01*
X142941610Y-46033400D01*
X142922247Y-46230000D01*
X142397753Y-46230000D01*
X142378389Y-46033397D01*
X142321042Y-45844350D01*
X142227916Y-45670122D01*
X142227913Y-45670118D01*
X142102589Y-45517410D01*
X141949881Y-45392086D01*
X141949879Y-45392085D01*
X141949878Y-45392084D01*
X141775650Y-45298958D01*
X141586603Y-45241611D01*
X141586601Y-45241610D01*
X141586599Y-45241610D01*
X141390000Y-45222247D01*
X141193400Y-45241610D01*
X141004350Y-45298958D01*
X140830118Y-45392086D01*
X140677410Y-45517410D01*
X140552086Y-45670118D01*
X140458958Y-45844350D01*
X140401610Y-46033400D01*
X140382247Y-46230000D01*
X139857753Y-46230000D01*
X139838389Y-46033397D01*
X139781042Y-45844350D01*
X139687916Y-45670122D01*
X139687913Y-45670118D01*
X139562589Y-45517410D01*
X139409881Y-45392086D01*
X139409879Y-45392085D01*
X139409878Y-45392084D01*
X139235650Y-45298958D01*
X139046603Y-45241611D01*
X139046601Y-45241610D01*
X139046599Y-45241610D01*
X138850000Y-45222247D01*
X138653400Y-45241610D01*
X138464350Y-45298958D01*
X138290118Y-45392086D01*
X138137410Y-45517410D01*
X138012086Y-45670118D01*
X137918958Y-45844350D01*
X137861610Y-46033400D01*
X137842247Y-46230000D01*
X137317753Y-46230000D01*
X137298389Y-46033397D01*
X137241042Y-45844350D01*
X137147916Y-45670122D01*
X137147913Y-45670118D01*
X137022589Y-45517410D01*
X136869881Y-45392086D01*
X136869879Y-45392085D01*
X136869878Y-45392084D01*
X136695650Y-45298958D01*
X136506603Y-45241611D01*
X136506601Y-45241610D01*
X136506599Y-45241610D01*
X136310000Y-45222247D01*
X136113400Y-45241610D01*
X135924350Y-45298958D01*
X135750118Y-45392086D01*
X135597410Y-45517410D01*
X135472086Y-45670118D01*
X135378958Y-45844350D01*
X135321610Y-46033400D01*
X135302247Y-46230000D01*
X134777753Y-46230000D01*
X134758389Y-46033397D01*
X134701042Y-45844350D01*
X134607916Y-45670122D01*
X134607913Y-45670118D01*
X134482589Y-45517410D01*
X134329881Y-45392086D01*
X134329879Y-45392085D01*
X134329878Y-45392084D01*
X134155650Y-45298958D01*
X133966603Y-45241611D01*
X133966601Y-45241610D01*
X133966599Y-45241610D01*
X133770000Y-45222247D01*
X133573400Y-45241610D01*
X133384350Y-45298958D01*
X133210118Y-45392086D01*
X133057410Y-45517410D01*
X132932086Y-45670118D01*
X132838958Y-45844350D01*
X132781610Y-46033400D01*
X132762247Y-46230000D01*
X132237753Y-46230000D01*
X132218389Y-46033397D01*
X132161042Y-45844350D01*
X132067916Y-45670122D01*
X132067913Y-45670118D01*
X131942589Y-45517410D01*
X131789881Y-45392086D01*
X131789879Y-45392085D01*
X131789878Y-45392084D01*
X131615650Y-45298958D01*
X131426603Y-45241611D01*
X131426601Y-45241610D01*
X131426599Y-45241610D01*
X131230000Y-45222247D01*
X131033400Y-45241610D01*
X130844350Y-45298958D01*
X130670118Y-45392086D01*
X130517410Y-45517410D01*
X130392086Y-45670118D01*
X130298958Y-45844350D01*
X130241610Y-46033400D01*
X130222247Y-46230000D01*
X129697753Y-46230000D01*
X129678389Y-46033397D01*
X129621042Y-45844350D01*
X129527916Y-45670122D01*
X129527913Y-45670118D01*
X129402589Y-45517410D01*
X129249881Y-45392086D01*
X129249879Y-45392085D01*
X129249878Y-45392084D01*
X129075650Y-45298958D01*
X128886603Y-45241611D01*
X128886601Y-45241610D01*
X128886599Y-45241610D01*
X128690000Y-45222247D01*
X128493400Y-45241610D01*
X128304350Y-45298958D01*
X128130118Y-45392086D01*
X127977410Y-45517410D01*
X127852086Y-45670118D01*
X127758958Y-45844350D01*
X127701610Y-46033400D01*
X127682247Y-46230000D01*
X127157753Y-46230000D01*
X127138389Y-46033397D01*
X127081042Y-45844350D01*
X126987916Y-45670122D01*
X126987913Y-45670118D01*
X126862589Y-45517410D01*
X126709881Y-45392086D01*
X126709879Y-45392085D01*
X126709878Y-45392084D01*
X126535650Y-45298958D01*
X126346603Y-45241611D01*
X126346601Y-45241610D01*
X126346599Y-45241610D01*
X126150000Y-45222247D01*
X125953400Y-45241610D01*
X125764350Y-45298958D01*
X125590118Y-45392086D01*
X125437410Y-45517410D01*
X125312086Y-45670118D01*
X125218958Y-45844350D01*
X125161610Y-46033400D01*
X125142247Y-46230000D01*
X124617753Y-46230000D01*
X124598389Y-46033397D01*
X124541042Y-45844350D01*
X124447916Y-45670122D01*
X124447913Y-45670118D01*
X124322589Y-45517410D01*
X124169881Y-45392086D01*
X124169879Y-45392085D01*
X124169878Y-45392084D01*
X123995650Y-45298958D01*
X123806603Y-45241611D01*
X123806601Y-45241610D01*
X123806599Y-45241610D01*
X123610000Y-45222247D01*
X123413400Y-45241610D01*
X123224350Y-45298958D01*
X123050118Y-45392086D01*
X122897410Y-45517410D01*
X122772086Y-45670118D01*
X122678958Y-45844350D01*
X122621610Y-46033400D01*
X122602247Y-46230000D01*
X122077753Y-46230000D01*
X122058389Y-46033397D01*
X122001042Y-45844350D01*
X121907916Y-45670122D01*
X121907913Y-45670118D01*
X121782589Y-45517410D01*
X121629881Y-45392086D01*
X121629879Y-45392085D01*
X121629878Y-45392084D01*
X121455650Y-45298958D01*
X121266603Y-45241611D01*
X121266601Y-45241610D01*
X121266599Y-45241610D01*
X121070000Y-45222247D01*
X120873400Y-45241610D01*
X120684350Y-45298958D01*
X120510118Y-45392086D01*
X120357410Y-45517410D01*
X120232086Y-45670118D01*
X120138958Y-45844350D01*
X120081610Y-46033400D01*
X120062247Y-46230000D01*
X119537753Y-46230000D01*
X119518389Y-46033397D01*
X119461042Y-45844350D01*
X119367916Y-45670122D01*
X119367913Y-45670118D01*
X119242589Y-45517410D01*
X119089881Y-45392086D01*
X119089879Y-45392085D01*
X119089878Y-45392084D01*
X118915650Y-45298958D01*
X118726603Y-45241611D01*
X118726601Y-45241610D01*
X118726599Y-45241610D01*
X118530000Y-45222247D01*
X118333400Y-45241610D01*
X118144350Y-45298958D01*
X117970118Y-45392086D01*
X117817410Y-45517410D01*
X117692086Y-45670118D01*
X117598958Y-45844350D01*
X117541610Y-46033400D01*
X117522247Y-46230000D01*
X116997753Y-46230000D01*
X116978389Y-46033397D01*
X116921042Y-45844350D01*
X116827916Y-45670122D01*
X116827913Y-45670118D01*
X116702589Y-45517410D01*
X116549881Y-45392086D01*
X116549879Y-45392085D01*
X116549878Y-45392084D01*
X116375650Y-45298958D01*
X116186603Y-45241611D01*
X116186601Y-45241610D01*
X116186599Y-45241610D01*
X115990000Y-45222247D01*
X115793400Y-45241610D01*
X115604350Y-45298958D01*
X115430118Y-45392086D01*
X115277410Y-45517410D01*
X115152086Y-45670118D01*
X115058958Y-45844350D01*
X115001610Y-46033400D01*
X114982247Y-46230000D01*
X114457753Y-46230000D01*
X114438389Y-46033397D01*
X114381042Y-45844350D01*
X114287916Y-45670122D01*
X114287913Y-45670118D01*
X114162589Y-45517410D01*
X114009881Y-45392086D01*
X114009879Y-45392085D01*
X114009878Y-45392084D01*
X113835650Y-45298958D01*
X113646603Y-45241611D01*
X113646601Y-45241610D01*
X113646599Y-45241610D01*
X113450000Y-45222247D01*
X113253400Y-45241610D01*
X113064350Y-45298958D01*
X112890118Y-45392086D01*
X112737410Y-45517410D01*
X112612086Y-45670118D01*
X112518956Y-45844354D01*
X112477923Y-45979621D01*
X112439626Y-46038059D01*
X112375813Y-46066516D01*
X112306746Y-46055955D01*
X112254353Y-46009730D01*
X112239488Y-45975718D01*
X112183433Y-45766516D01*
X112183429Y-45766507D01*
X112083600Y-45552422D01*
X112083599Y-45552420D01*
X111948113Y-45358926D01*
X111948108Y-45358920D01*
X111781082Y-45191894D01*
X111587578Y-45056399D01*
X111373492Y-44956570D01*
X111373486Y-44956567D01*
X111160000Y-44899364D01*
X111160000Y-45796988D01*
X111102993Y-45764075D01*
X110975826Y-45730000D01*
X110844174Y-45730000D01*
X110717007Y-45764075D01*
X110660000Y-45796988D01*
X110660000Y-44899364D01*
X110659999Y-44899364D01*
X110446513Y-44956567D01*
X110446507Y-44956570D01*
X110232422Y-45056399D01*
X110232420Y-45056400D01*
X110038926Y-45191886D01*
X110038920Y-45191891D01*
X109871891Y-45358920D01*
X109871890Y-45358922D01*
X109741575Y-45545031D01*
X109686998Y-45588655D01*
X109617499Y-45595848D01*
X109555145Y-45564326D01*
X109538425Y-45545031D01*
X109408109Y-45358922D01*
X109408108Y-45358920D01*
X109241082Y-45191894D01*
X109047578Y-45056399D01*
X108833492Y-44956570D01*
X108833486Y-44956567D01*
X108620000Y-44899364D01*
X108620000Y-45796988D01*
X108562993Y-45764075D01*
X108435826Y-45730000D01*
X108304174Y-45730000D01*
X108177007Y-45764075D01*
X108120000Y-45796988D01*
X108120000Y-44899364D01*
X108119999Y-44899364D01*
X107906513Y-44956567D01*
X107906507Y-44956570D01*
X107692422Y-45056399D01*
X107692420Y-45056400D01*
X107498926Y-45191886D01*
X107498920Y-45191891D01*
X107331891Y-45358920D01*
X107331886Y-45358926D01*
X107196400Y-45552420D01*
X107196399Y-45552422D01*
X107096570Y-45766507D01*
X107096567Y-45766513D01*
X107039364Y-45979999D01*
X104014189Y-45979999D01*
X103875723Y-45935009D01*
X103709425Y-45908669D01*
X103626277Y-45895500D01*
X103373723Y-45895500D01*
X103290575Y-45908669D01*
X103124277Y-45935009D01*
X103124274Y-45935009D01*
X102884088Y-46013050D01*
X102884085Y-46013051D01*
X102659058Y-46127709D01*
X102454736Y-46276158D01*
X102276158Y-46454736D01*
X102127709Y-46659058D01*
X102013051Y-46884085D01*
X102013050Y-46884088D01*
X101935009Y-47124274D01*
X101935009Y-47124277D01*
X101935009Y-47124279D01*
X101895500Y-47373723D01*
X100000000Y-47373723D01*
X100000000Y-46500882D01*
X100000012Y-46499144D01*
X100000437Y-46468794D01*
X100002274Y-46337729D01*
X100003041Y-46325610D01*
X100039277Y-46004005D01*
X100041606Y-45990299D01*
X100092683Y-45766516D01*
X100113427Y-45675627D01*
X100117272Y-45662279D01*
X100223883Y-45357601D01*
X100229196Y-45344777D01*
X100369243Y-45053965D01*
X100375959Y-45041813D01*
X100547693Y-44768501D01*
X100555723Y-44757183D01*
X100756979Y-44504816D01*
X100766228Y-44494467D01*
X100994467Y-44266228D01*
X101004816Y-44256979D01*
X101257183Y-44055723D01*
X101268501Y-44047693D01*
X101541813Y-43875959D01*
X101553965Y-43869243D01*
X101844777Y-43729196D01*
X101857601Y-43723883D01*
X102162279Y-43617272D01*
X102175627Y-43613427D01*
X102393293Y-43563746D01*
X102490299Y-43541606D01*
X102504005Y-43539277D01*
X102825610Y-43503041D01*
X102837729Y-43502274D01*
X102999144Y-43500011D01*
X103000882Y-43500000D01*
X161999118Y-43500000D01*
X162000855Y-43500011D01*
G37*
G04 #@! TD.AperFunction*
M02*
