G04 #@! TF.GenerationSoftware,KiCad,Pcbnew,8.0.6-8.0.6-0~ubuntu22.04.1*
G04 #@! TF.CreationDate,2024-11-13T10:01:41+01:00*
G04 #@! TF.ProjectId,INA228_hat,494e4132-3238-45f6-9861-742e6b696361,rev?*
G04 #@! TF.SameCoordinates,Original*
G04 #@! TF.FileFunction,OtherDrawing,Comment*
%FSLAX46Y46*%
G04 Gerber Fmt 4.6, Leading zero omitted, Abs format (unit mm)*
G04 Created by KiCad (PCBNEW 8.0.6-8.0.6-0~ubuntu22.04.1) date 2024-11-13 10:01:41*
%MOMM*%
%LPD*%
G01*
G04 APERTURE LIST*
%ADD10C,0.150000*%
%ADD11C,0.100000*%
G04 APERTURE END LIST*
D10*
X91588152Y-76142856D02*
X92254819Y-76142856D01*
X91207200Y-76380951D02*
X91921485Y-76619046D01*
X91921485Y-76619046D02*
X91921485Y-75999999D01*
X92254819Y-75571427D02*
X92254819Y-75380951D01*
X92254819Y-75380951D02*
X92207200Y-75285713D01*
X92207200Y-75285713D02*
X92159580Y-75238094D01*
X92159580Y-75238094D02*
X92016723Y-75142856D01*
X92016723Y-75142856D02*
X91826247Y-75095237D01*
X91826247Y-75095237D02*
X91445295Y-75095237D01*
X91445295Y-75095237D02*
X91350057Y-75142856D01*
X91350057Y-75142856D02*
X91302438Y-75190475D01*
X91302438Y-75190475D02*
X91254819Y-75285713D01*
X91254819Y-75285713D02*
X91254819Y-75476189D01*
X91254819Y-75476189D02*
X91302438Y-75571427D01*
X91302438Y-75571427D02*
X91350057Y-75619046D01*
X91350057Y-75619046D02*
X91445295Y-75666665D01*
X91445295Y-75666665D02*
X91683390Y-75666665D01*
X91683390Y-75666665D02*
X91778628Y-75619046D01*
X91778628Y-75619046D02*
X91826247Y-75571427D01*
X91826247Y-75571427D02*
X91873866Y-75476189D01*
X91873866Y-75476189D02*
X91873866Y-75285713D01*
X91873866Y-75285713D02*
X91826247Y-75190475D01*
X91826247Y-75190475D02*
X91778628Y-75142856D01*
X91778628Y-75142856D02*
X91683390Y-75095237D01*
X92207200Y-74619046D02*
X92254819Y-74619046D01*
X92254819Y-74619046D02*
X92350057Y-74666665D01*
X92350057Y-74666665D02*
X92397676Y-74714284D01*
X91254819Y-73999999D02*
X91254819Y-73904761D01*
X91254819Y-73904761D02*
X91302438Y-73809523D01*
X91302438Y-73809523D02*
X91350057Y-73761904D01*
X91350057Y-73761904D02*
X91445295Y-73714285D01*
X91445295Y-73714285D02*
X91635771Y-73666666D01*
X91635771Y-73666666D02*
X91873866Y-73666666D01*
X91873866Y-73666666D02*
X92064342Y-73714285D01*
X92064342Y-73714285D02*
X92159580Y-73761904D01*
X92159580Y-73761904D02*
X92207200Y-73809523D01*
X92207200Y-73809523D02*
X92254819Y-73904761D01*
X92254819Y-73904761D02*
X92254819Y-73999999D01*
X92254819Y-73999999D02*
X92207200Y-74095237D01*
X92207200Y-74095237D02*
X92159580Y-74142856D01*
X92159580Y-74142856D02*
X92064342Y-74190475D01*
X92064342Y-74190475D02*
X91873866Y-74238094D01*
X91873866Y-74238094D02*
X91635771Y-74238094D01*
X91635771Y-74238094D02*
X91445295Y-74190475D01*
X91445295Y-74190475D02*
X91350057Y-74142856D01*
X91350057Y-74142856D02*
X91302438Y-74095237D01*
X91302438Y-74095237D02*
X91254819Y-73999999D01*
X91254819Y-73047618D02*
X91254819Y-72952380D01*
X91254819Y-72952380D02*
X91302438Y-72857142D01*
X91302438Y-72857142D02*
X91350057Y-72809523D01*
X91350057Y-72809523D02*
X91445295Y-72761904D01*
X91445295Y-72761904D02*
X91635771Y-72714285D01*
X91635771Y-72714285D02*
X91873866Y-72714285D01*
X91873866Y-72714285D02*
X92064342Y-72761904D01*
X92064342Y-72761904D02*
X92159580Y-72809523D01*
X92159580Y-72809523D02*
X92207200Y-72857142D01*
X92207200Y-72857142D02*
X92254819Y-72952380D01*
X92254819Y-72952380D02*
X92254819Y-73047618D01*
X92254819Y-73047618D02*
X92207200Y-73142856D01*
X92207200Y-73142856D02*
X92159580Y-73190475D01*
X92159580Y-73190475D02*
X92064342Y-73238094D01*
X92064342Y-73238094D02*
X91873866Y-73285713D01*
X91873866Y-73285713D02*
X91635771Y-73285713D01*
X91635771Y-73285713D02*
X91445295Y-73238094D01*
X91445295Y-73238094D02*
X91350057Y-73190475D01*
X91350057Y-73190475D02*
X91302438Y-73142856D01*
X91302438Y-73142856D02*
X91254819Y-73047618D01*
X91254819Y-72095237D02*
X91254819Y-71999999D01*
X91254819Y-71999999D02*
X91302438Y-71904761D01*
X91302438Y-71904761D02*
X91350057Y-71857142D01*
X91350057Y-71857142D02*
X91445295Y-71809523D01*
X91445295Y-71809523D02*
X91635771Y-71761904D01*
X91635771Y-71761904D02*
X91873866Y-71761904D01*
X91873866Y-71761904D02*
X92064342Y-71809523D01*
X92064342Y-71809523D02*
X92159580Y-71857142D01*
X92159580Y-71857142D02*
X92207200Y-71904761D01*
X92207200Y-71904761D02*
X92254819Y-71999999D01*
X92254819Y-71999999D02*
X92254819Y-72095237D01*
X92254819Y-72095237D02*
X92207200Y-72190475D01*
X92207200Y-72190475D02*
X92159580Y-72238094D01*
X92159580Y-72238094D02*
X92064342Y-72285713D01*
X92064342Y-72285713D02*
X91873866Y-72333332D01*
X91873866Y-72333332D02*
X91635771Y-72333332D01*
X91635771Y-72333332D02*
X91445295Y-72285713D01*
X91445295Y-72285713D02*
X91350057Y-72238094D01*
X91350057Y-72238094D02*
X91302438Y-72190475D01*
X91302438Y-72190475D02*
X91254819Y-72095237D01*
X91254819Y-71142856D02*
X91254819Y-71047618D01*
X91254819Y-71047618D02*
X91302438Y-70952380D01*
X91302438Y-70952380D02*
X91350057Y-70904761D01*
X91350057Y-70904761D02*
X91445295Y-70857142D01*
X91445295Y-70857142D02*
X91635771Y-70809523D01*
X91635771Y-70809523D02*
X91873866Y-70809523D01*
X91873866Y-70809523D02*
X92064342Y-70857142D01*
X92064342Y-70857142D02*
X92159580Y-70904761D01*
X92159580Y-70904761D02*
X92207200Y-70952380D01*
X92207200Y-70952380D02*
X92254819Y-71047618D01*
X92254819Y-71047618D02*
X92254819Y-71142856D01*
X92254819Y-71142856D02*
X92207200Y-71238094D01*
X92207200Y-71238094D02*
X92159580Y-71285713D01*
X92159580Y-71285713D02*
X92064342Y-71333332D01*
X92064342Y-71333332D02*
X91873866Y-71380951D01*
X91873866Y-71380951D02*
X91635771Y-71380951D01*
X91635771Y-71380951D02*
X91445295Y-71333332D01*
X91445295Y-71333332D02*
X91350057Y-71285713D01*
X91350057Y-71285713D02*
X91302438Y-71238094D01*
X91302438Y-71238094D02*
X91254819Y-71142856D01*
X92254819Y-69619046D02*
X91588152Y-69619046D01*
X91683390Y-69619046D02*
X91635771Y-69571427D01*
X91635771Y-69571427D02*
X91588152Y-69476189D01*
X91588152Y-69476189D02*
X91588152Y-69333332D01*
X91588152Y-69333332D02*
X91635771Y-69238094D01*
X91635771Y-69238094D02*
X91731009Y-69190475D01*
X91731009Y-69190475D02*
X92254819Y-69190475D01*
X91731009Y-69190475D02*
X91635771Y-69142856D01*
X91635771Y-69142856D02*
X91588152Y-69047618D01*
X91588152Y-69047618D02*
X91588152Y-68904761D01*
X91588152Y-68904761D02*
X91635771Y-68809522D01*
X91635771Y-68809522D02*
X91731009Y-68761903D01*
X91731009Y-68761903D02*
X92254819Y-68761903D01*
X92254819Y-68285713D02*
X91588152Y-68285713D01*
X91683390Y-68285713D02*
X91635771Y-68238094D01*
X91635771Y-68238094D02*
X91588152Y-68142856D01*
X91588152Y-68142856D02*
X91588152Y-67999999D01*
X91588152Y-67999999D02*
X91635771Y-67904761D01*
X91635771Y-67904761D02*
X91731009Y-67857142D01*
X91731009Y-67857142D02*
X92254819Y-67857142D01*
X91731009Y-67857142D02*
X91635771Y-67809523D01*
X91635771Y-67809523D02*
X91588152Y-67714285D01*
X91588152Y-67714285D02*
X91588152Y-67571428D01*
X91588152Y-67571428D02*
X91635771Y-67476189D01*
X91635771Y-67476189D02*
X91731009Y-67428570D01*
X91731009Y-67428570D02*
X92254819Y-67428570D01*
D11*
X103000000Y-47500000D02*
X92363580Y-47500000D01*
X103000000Y-96500000D02*
X92363580Y-96500000D01*
X92950000Y-47500000D02*
X92950000Y-96500000D01*
X92950000Y-47500000D02*
X92950000Y-96500000D01*
X92950000Y-47500000D02*
X93536421Y-48626504D01*
X92950000Y-47500000D02*
X92363579Y-48626504D01*
X92950000Y-96500000D02*
X92363579Y-95373496D01*
X92950000Y-96500000D02*
X93536421Y-95373496D01*
D10*
X81504819Y-75845237D02*
X81504819Y-76321427D01*
X81504819Y-76321427D02*
X81981009Y-76369046D01*
X81981009Y-76369046D02*
X81933390Y-76321427D01*
X81933390Y-76321427D02*
X81885771Y-76226189D01*
X81885771Y-76226189D02*
X81885771Y-75988094D01*
X81885771Y-75988094D02*
X81933390Y-75892856D01*
X81933390Y-75892856D02*
X81981009Y-75845237D01*
X81981009Y-75845237D02*
X82076247Y-75797618D01*
X82076247Y-75797618D02*
X82314342Y-75797618D01*
X82314342Y-75797618D02*
X82409580Y-75845237D01*
X82409580Y-75845237D02*
X82457200Y-75892856D01*
X82457200Y-75892856D02*
X82504819Y-75988094D01*
X82504819Y-75988094D02*
X82504819Y-76226189D01*
X82504819Y-76226189D02*
X82457200Y-76321427D01*
X82457200Y-76321427D02*
X82409580Y-76369046D01*
X81504819Y-74940475D02*
X81504819Y-75130951D01*
X81504819Y-75130951D02*
X81552438Y-75226189D01*
X81552438Y-75226189D02*
X81600057Y-75273808D01*
X81600057Y-75273808D02*
X81742914Y-75369046D01*
X81742914Y-75369046D02*
X81933390Y-75416665D01*
X81933390Y-75416665D02*
X82314342Y-75416665D01*
X82314342Y-75416665D02*
X82409580Y-75369046D01*
X82409580Y-75369046D02*
X82457200Y-75321427D01*
X82457200Y-75321427D02*
X82504819Y-75226189D01*
X82504819Y-75226189D02*
X82504819Y-75035713D01*
X82504819Y-75035713D02*
X82457200Y-74940475D01*
X82457200Y-74940475D02*
X82409580Y-74892856D01*
X82409580Y-74892856D02*
X82314342Y-74845237D01*
X82314342Y-74845237D02*
X82076247Y-74845237D01*
X82076247Y-74845237D02*
X81981009Y-74892856D01*
X81981009Y-74892856D02*
X81933390Y-74940475D01*
X81933390Y-74940475D02*
X81885771Y-75035713D01*
X81885771Y-75035713D02*
X81885771Y-75226189D01*
X81885771Y-75226189D02*
X81933390Y-75321427D01*
X81933390Y-75321427D02*
X81981009Y-75369046D01*
X81981009Y-75369046D02*
X82076247Y-75416665D01*
X82457200Y-74369046D02*
X82504819Y-74369046D01*
X82504819Y-74369046D02*
X82600057Y-74416665D01*
X82600057Y-74416665D02*
X82647676Y-74464284D01*
X81504819Y-73464285D02*
X81504819Y-73940475D01*
X81504819Y-73940475D02*
X81981009Y-73988094D01*
X81981009Y-73988094D02*
X81933390Y-73940475D01*
X81933390Y-73940475D02*
X81885771Y-73845237D01*
X81885771Y-73845237D02*
X81885771Y-73607142D01*
X81885771Y-73607142D02*
X81933390Y-73511904D01*
X81933390Y-73511904D02*
X81981009Y-73464285D01*
X81981009Y-73464285D02*
X82076247Y-73416666D01*
X82076247Y-73416666D02*
X82314342Y-73416666D01*
X82314342Y-73416666D02*
X82409580Y-73464285D01*
X82409580Y-73464285D02*
X82457200Y-73511904D01*
X82457200Y-73511904D02*
X82504819Y-73607142D01*
X82504819Y-73607142D02*
X82504819Y-73845237D01*
X82504819Y-73845237D02*
X82457200Y-73940475D01*
X82457200Y-73940475D02*
X82409580Y-73988094D01*
X81504819Y-72797618D02*
X81504819Y-72702380D01*
X81504819Y-72702380D02*
X81552438Y-72607142D01*
X81552438Y-72607142D02*
X81600057Y-72559523D01*
X81600057Y-72559523D02*
X81695295Y-72511904D01*
X81695295Y-72511904D02*
X81885771Y-72464285D01*
X81885771Y-72464285D02*
X82123866Y-72464285D01*
X82123866Y-72464285D02*
X82314342Y-72511904D01*
X82314342Y-72511904D02*
X82409580Y-72559523D01*
X82409580Y-72559523D02*
X82457200Y-72607142D01*
X82457200Y-72607142D02*
X82504819Y-72702380D01*
X82504819Y-72702380D02*
X82504819Y-72797618D01*
X82504819Y-72797618D02*
X82457200Y-72892856D01*
X82457200Y-72892856D02*
X82409580Y-72940475D01*
X82409580Y-72940475D02*
X82314342Y-72988094D01*
X82314342Y-72988094D02*
X82123866Y-73035713D01*
X82123866Y-73035713D02*
X81885771Y-73035713D01*
X81885771Y-73035713D02*
X81695295Y-72988094D01*
X81695295Y-72988094D02*
X81600057Y-72940475D01*
X81600057Y-72940475D02*
X81552438Y-72892856D01*
X81552438Y-72892856D02*
X81504819Y-72797618D01*
X81504819Y-71845237D02*
X81504819Y-71749999D01*
X81504819Y-71749999D02*
X81552438Y-71654761D01*
X81552438Y-71654761D02*
X81600057Y-71607142D01*
X81600057Y-71607142D02*
X81695295Y-71559523D01*
X81695295Y-71559523D02*
X81885771Y-71511904D01*
X81885771Y-71511904D02*
X82123866Y-71511904D01*
X82123866Y-71511904D02*
X82314342Y-71559523D01*
X82314342Y-71559523D02*
X82409580Y-71607142D01*
X82409580Y-71607142D02*
X82457200Y-71654761D01*
X82457200Y-71654761D02*
X82504819Y-71749999D01*
X82504819Y-71749999D02*
X82504819Y-71845237D01*
X82504819Y-71845237D02*
X82457200Y-71940475D01*
X82457200Y-71940475D02*
X82409580Y-71988094D01*
X82409580Y-71988094D02*
X82314342Y-72035713D01*
X82314342Y-72035713D02*
X82123866Y-72083332D01*
X82123866Y-72083332D02*
X81885771Y-72083332D01*
X81885771Y-72083332D02*
X81695295Y-72035713D01*
X81695295Y-72035713D02*
X81600057Y-71988094D01*
X81600057Y-71988094D02*
X81552438Y-71940475D01*
X81552438Y-71940475D02*
X81504819Y-71845237D01*
X81504819Y-70892856D02*
X81504819Y-70797618D01*
X81504819Y-70797618D02*
X81552438Y-70702380D01*
X81552438Y-70702380D02*
X81600057Y-70654761D01*
X81600057Y-70654761D02*
X81695295Y-70607142D01*
X81695295Y-70607142D02*
X81885771Y-70559523D01*
X81885771Y-70559523D02*
X82123866Y-70559523D01*
X82123866Y-70559523D02*
X82314342Y-70607142D01*
X82314342Y-70607142D02*
X82409580Y-70654761D01*
X82409580Y-70654761D02*
X82457200Y-70702380D01*
X82457200Y-70702380D02*
X82504819Y-70797618D01*
X82504819Y-70797618D02*
X82504819Y-70892856D01*
X82504819Y-70892856D02*
X82457200Y-70988094D01*
X82457200Y-70988094D02*
X82409580Y-71035713D01*
X82409580Y-71035713D02*
X82314342Y-71083332D01*
X82314342Y-71083332D02*
X82123866Y-71130951D01*
X82123866Y-71130951D02*
X81885771Y-71130951D01*
X81885771Y-71130951D02*
X81695295Y-71083332D01*
X81695295Y-71083332D02*
X81600057Y-71035713D01*
X81600057Y-71035713D02*
X81552438Y-70988094D01*
X81552438Y-70988094D02*
X81504819Y-70892856D01*
X82504819Y-69369046D02*
X81838152Y-69369046D01*
X81933390Y-69369046D02*
X81885771Y-69321427D01*
X81885771Y-69321427D02*
X81838152Y-69226189D01*
X81838152Y-69226189D02*
X81838152Y-69083332D01*
X81838152Y-69083332D02*
X81885771Y-68988094D01*
X81885771Y-68988094D02*
X81981009Y-68940475D01*
X81981009Y-68940475D02*
X82504819Y-68940475D01*
X81981009Y-68940475D02*
X81885771Y-68892856D01*
X81885771Y-68892856D02*
X81838152Y-68797618D01*
X81838152Y-68797618D02*
X81838152Y-68654761D01*
X81838152Y-68654761D02*
X81885771Y-68559522D01*
X81885771Y-68559522D02*
X81981009Y-68511903D01*
X81981009Y-68511903D02*
X82504819Y-68511903D01*
X82504819Y-68035713D02*
X81838152Y-68035713D01*
X81933390Y-68035713D02*
X81885771Y-67988094D01*
X81885771Y-67988094D02*
X81838152Y-67892856D01*
X81838152Y-67892856D02*
X81838152Y-67749999D01*
X81838152Y-67749999D02*
X81885771Y-67654761D01*
X81885771Y-67654761D02*
X81981009Y-67607142D01*
X81981009Y-67607142D02*
X82504819Y-67607142D01*
X81981009Y-67607142D02*
X81885771Y-67559523D01*
X81885771Y-67559523D02*
X81838152Y-67464285D01*
X81838152Y-67464285D02*
X81838152Y-67321428D01*
X81838152Y-67321428D02*
X81885771Y-67226189D01*
X81885771Y-67226189D02*
X81981009Y-67178570D01*
X81981009Y-67178570D02*
X82504819Y-67178570D01*
D11*
X102500000Y-43500000D02*
X82613580Y-43500000D01*
X102500000Y-100000000D02*
X82613580Y-100000000D01*
X83200000Y-43500000D02*
X83200000Y-100000000D01*
X83200000Y-43500000D02*
X83200000Y-100000000D01*
X83200000Y-43500000D02*
X83786421Y-44626504D01*
X83200000Y-43500000D02*
X82613579Y-44626504D01*
X83200000Y-100000000D02*
X82613579Y-98873496D01*
X83200000Y-100000000D02*
X83786421Y-98873496D01*
D10*
X128404762Y-36154820D02*
X127928572Y-36154820D01*
X127928572Y-36154820D02*
X127880953Y-36631010D01*
X127880953Y-36631010D02*
X127928572Y-36583391D01*
X127928572Y-36583391D02*
X128023810Y-36535772D01*
X128023810Y-36535772D02*
X128261905Y-36535772D01*
X128261905Y-36535772D02*
X128357143Y-36583391D01*
X128357143Y-36583391D02*
X128404762Y-36631010D01*
X128404762Y-36631010D02*
X128452381Y-36726248D01*
X128452381Y-36726248D02*
X128452381Y-36964343D01*
X128452381Y-36964343D02*
X128404762Y-37059581D01*
X128404762Y-37059581D02*
X128357143Y-37107201D01*
X128357143Y-37107201D02*
X128261905Y-37154820D01*
X128261905Y-37154820D02*
X128023810Y-37154820D01*
X128023810Y-37154820D02*
X127928572Y-37107201D01*
X127928572Y-37107201D02*
X127880953Y-37059581D01*
X129023810Y-36583391D02*
X128928572Y-36535772D01*
X128928572Y-36535772D02*
X128880953Y-36488153D01*
X128880953Y-36488153D02*
X128833334Y-36392915D01*
X128833334Y-36392915D02*
X128833334Y-36345296D01*
X128833334Y-36345296D02*
X128880953Y-36250058D01*
X128880953Y-36250058D02*
X128928572Y-36202439D01*
X128928572Y-36202439D02*
X129023810Y-36154820D01*
X129023810Y-36154820D02*
X129214286Y-36154820D01*
X129214286Y-36154820D02*
X129309524Y-36202439D01*
X129309524Y-36202439D02*
X129357143Y-36250058D01*
X129357143Y-36250058D02*
X129404762Y-36345296D01*
X129404762Y-36345296D02*
X129404762Y-36392915D01*
X129404762Y-36392915D02*
X129357143Y-36488153D01*
X129357143Y-36488153D02*
X129309524Y-36535772D01*
X129309524Y-36535772D02*
X129214286Y-36583391D01*
X129214286Y-36583391D02*
X129023810Y-36583391D01*
X129023810Y-36583391D02*
X128928572Y-36631010D01*
X128928572Y-36631010D02*
X128880953Y-36678629D01*
X128880953Y-36678629D02*
X128833334Y-36773867D01*
X128833334Y-36773867D02*
X128833334Y-36964343D01*
X128833334Y-36964343D02*
X128880953Y-37059581D01*
X128880953Y-37059581D02*
X128928572Y-37107201D01*
X128928572Y-37107201D02*
X129023810Y-37154820D01*
X129023810Y-37154820D02*
X129214286Y-37154820D01*
X129214286Y-37154820D02*
X129309524Y-37107201D01*
X129309524Y-37107201D02*
X129357143Y-37059581D01*
X129357143Y-37059581D02*
X129404762Y-36964343D01*
X129404762Y-36964343D02*
X129404762Y-36773867D01*
X129404762Y-36773867D02*
X129357143Y-36678629D01*
X129357143Y-36678629D02*
X129309524Y-36631010D01*
X129309524Y-36631010D02*
X129214286Y-36583391D01*
X129880953Y-37107201D02*
X129880953Y-37154820D01*
X129880953Y-37154820D02*
X129833334Y-37250058D01*
X129833334Y-37250058D02*
X129785715Y-37297677D01*
X130500000Y-36154820D02*
X130595238Y-36154820D01*
X130595238Y-36154820D02*
X130690476Y-36202439D01*
X130690476Y-36202439D02*
X130738095Y-36250058D01*
X130738095Y-36250058D02*
X130785714Y-36345296D01*
X130785714Y-36345296D02*
X130833333Y-36535772D01*
X130833333Y-36535772D02*
X130833333Y-36773867D01*
X130833333Y-36773867D02*
X130785714Y-36964343D01*
X130785714Y-36964343D02*
X130738095Y-37059581D01*
X130738095Y-37059581D02*
X130690476Y-37107201D01*
X130690476Y-37107201D02*
X130595238Y-37154820D01*
X130595238Y-37154820D02*
X130500000Y-37154820D01*
X130500000Y-37154820D02*
X130404762Y-37107201D01*
X130404762Y-37107201D02*
X130357143Y-37059581D01*
X130357143Y-37059581D02*
X130309524Y-36964343D01*
X130309524Y-36964343D02*
X130261905Y-36773867D01*
X130261905Y-36773867D02*
X130261905Y-36535772D01*
X130261905Y-36535772D02*
X130309524Y-36345296D01*
X130309524Y-36345296D02*
X130357143Y-36250058D01*
X130357143Y-36250058D02*
X130404762Y-36202439D01*
X130404762Y-36202439D02*
X130500000Y-36154820D01*
X131452381Y-36154820D02*
X131547619Y-36154820D01*
X131547619Y-36154820D02*
X131642857Y-36202439D01*
X131642857Y-36202439D02*
X131690476Y-36250058D01*
X131690476Y-36250058D02*
X131738095Y-36345296D01*
X131738095Y-36345296D02*
X131785714Y-36535772D01*
X131785714Y-36535772D02*
X131785714Y-36773867D01*
X131785714Y-36773867D02*
X131738095Y-36964343D01*
X131738095Y-36964343D02*
X131690476Y-37059581D01*
X131690476Y-37059581D02*
X131642857Y-37107201D01*
X131642857Y-37107201D02*
X131547619Y-37154820D01*
X131547619Y-37154820D02*
X131452381Y-37154820D01*
X131452381Y-37154820D02*
X131357143Y-37107201D01*
X131357143Y-37107201D02*
X131309524Y-37059581D01*
X131309524Y-37059581D02*
X131261905Y-36964343D01*
X131261905Y-36964343D02*
X131214286Y-36773867D01*
X131214286Y-36773867D02*
X131214286Y-36535772D01*
X131214286Y-36535772D02*
X131261905Y-36345296D01*
X131261905Y-36345296D02*
X131309524Y-36250058D01*
X131309524Y-36250058D02*
X131357143Y-36202439D01*
X131357143Y-36202439D02*
X131452381Y-36154820D01*
X132404762Y-36154820D02*
X132500000Y-36154820D01*
X132500000Y-36154820D02*
X132595238Y-36202439D01*
X132595238Y-36202439D02*
X132642857Y-36250058D01*
X132642857Y-36250058D02*
X132690476Y-36345296D01*
X132690476Y-36345296D02*
X132738095Y-36535772D01*
X132738095Y-36535772D02*
X132738095Y-36773867D01*
X132738095Y-36773867D02*
X132690476Y-36964343D01*
X132690476Y-36964343D02*
X132642857Y-37059581D01*
X132642857Y-37059581D02*
X132595238Y-37107201D01*
X132595238Y-37107201D02*
X132500000Y-37154820D01*
X132500000Y-37154820D02*
X132404762Y-37154820D01*
X132404762Y-37154820D02*
X132309524Y-37107201D01*
X132309524Y-37107201D02*
X132261905Y-37059581D01*
X132261905Y-37059581D02*
X132214286Y-36964343D01*
X132214286Y-36964343D02*
X132166667Y-36773867D01*
X132166667Y-36773867D02*
X132166667Y-36535772D01*
X132166667Y-36535772D02*
X132214286Y-36345296D01*
X132214286Y-36345296D02*
X132261905Y-36250058D01*
X132261905Y-36250058D02*
X132309524Y-36202439D01*
X132309524Y-36202439D02*
X132404762Y-36154820D01*
X133357143Y-36154820D02*
X133452381Y-36154820D01*
X133452381Y-36154820D02*
X133547619Y-36202439D01*
X133547619Y-36202439D02*
X133595238Y-36250058D01*
X133595238Y-36250058D02*
X133642857Y-36345296D01*
X133642857Y-36345296D02*
X133690476Y-36535772D01*
X133690476Y-36535772D02*
X133690476Y-36773867D01*
X133690476Y-36773867D02*
X133642857Y-36964343D01*
X133642857Y-36964343D02*
X133595238Y-37059581D01*
X133595238Y-37059581D02*
X133547619Y-37107201D01*
X133547619Y-37107201D02*
X133452381Y-37154820D01*
X133452381Y-37154820D02*
X133357143Y-37154820D01*
X133357143Y-37154820D02*
X133261905Y-37107201D01*
X133261905Y-37107201D02*
X133214286Y-37059581D01*
X133214286Y-37059581D02*
X133166667Y-36964343D01*
X133166667Y-36964343D02*
X133119048Y-36773867D01*
X133119048Y-36773867D02*
X133119048Y-36535772D01*
X133119048Y-36535772D02*
X133166667Y-36345296D01*
X133166667Y-36345296D02*
X133214286Y-36250058D01*
X133214286Y-36250058D02*
X133261905Y-36202439D01*
X133261905Y-36202439D02*
X133357143Y-36154820D01*
X134880953Y-37154820D02*
X134880953Y-36488153D01*
X134880953Y-36583391D02*
X134928572Y-36535772D01*
X134928572Y-36535772D02*
X135023810Y-36488153D01*
X135023810Y-36488153D02*
X135166667Y-36488153D01*
X135166667Y-36488153D02*
X135261905Y-36535772D01*
X135261905Y-36535772D02*
X135309524Y-36631010D01*
X135309524Y-36631010D02*
X135309524Y-37154820D01*
X135309524Y-36631010D02*
X135357143Y-36535772D01*
X135357143Y-36535772D02*
X135452381Y-36488153D01*
X135452381Y-36488153D02*
X135595238Y-36488153D01*
X135595238Y-36488153D02*
X135690477Y-36535772D01*
X135690477Y-36535772D02*
X135738096Y-36631010D01*
X135738096Y-36631010D02*
X135738096Y-37154820D01*
X136214286Y-37154820D02*
X136214286Y-36488153D01*
X136214286Y-36583391D02*
X136261905Y-36535772D01*
X136261905Y-36535772D02*
X136357143Y-36488153D01*
X136357143Y-36488153D02*
X136500000Y-36488153D01*
X136500000Y-36488153D02*
X136595238Y-36535772D01*
X136595238Y-36535772D02*
X136642857Y-36631010D01*
X136642857Y-36631010D02*
X136642857Y-37154820D01*
X136642857Y-36631010D02*
X136690476Y-36535772D01*
X136690476Y-36535772D02*
X136785714Y-36488153D01*
X136785714Y-36488153D02*
X136928571Y-36488153D01*
X136928571Y-36488153D02*
X137023810Y-36535772D01*
X137023810Y-36535772D02*
X137071429Y-36631010D01*
X137071429Y-36631010D02*
X137071429Y-37154820D01*
D11*
X161500000Y-47000000D02*
X161500000Y-37263581D01*
X103500000Y-47000000D02*
X103500000Y-37263581D01*
X161500000Y-37850001D02*
X103500000Y-37850001D01*
X161500000Y-37850001D02*
X103500000Y-37850001D01*
X161500000Y-37850001D02*
X160373496Y-38436422D01*
X161500000Y-37850001D02*
X160373496Y-37263580D01*
X103500000Y-37850001D02*
X104626504Y-37263580D01*
X103500000Y-37850001D02*
X104626504Y-38436422D01*
D10*
X128357143Y-30254819D02*
X128166667Y-30254819D01*
X128166667Y-30254819D02*
X128071429Y-30302438D01*
X128071429Y-30302438D02*
X128023810Y-30350057D01*
X128023810Y-30350057D02*
X127928572Y-30492914D01*
X127928572Y-30492914D02*
X127880953Y-30683390D01*
X127880953Y-30683390D02*
X127880953Y-31064342D01*
X127880953Y-31064342D02*
X127928572Y-31159580D01*
X127928572Y-31159580D02*
X127976191Y-31207200D01*
X127976191Y-31207200D02*
X128071429Y-31254819D01*
X128071429Y-31254819D02*
X128261905Y-31254819D01*
X128261905Y-31254819D02*
X128357143Y-31207200D01*
X128357143Y-31207200D02*
X128404762Y-31159580D01*
X128404762Y-31159580D02*
X128452381Y-31064342D01*
X128452381Y-31064342D02*
X128452381Y-30826247D01*
X128452381Y-30826247D02*
X128404762Y-30731009D01*
X128404762Y-30731009D02*
X128357143Y-30683390D01*
X128357143Y-30683390D02*
X128261905Y-30635771D01*
X128261905Y-30635771D02*
X128071429Y-30635771D01*
X128071429Y-30635771D02*
X127976191Y-30683390D01*
X127976191Y-30683390D02*
X127928572Y-30731009D01*
X127928572Y-30731009D02*
X127880953Y-30826247D01*
X129357143Y-30254819D02*
X128880953Y-30254819D01*
X128880953Y-30254819D02*
X128833334Y-30731009D01*
X128833334Y-30731009D02*
X128880953Y-30683390D01*
X128880953Y-30683390D02*
X128976191Y-30635771D01*
X128976191Y-30635771D02*
X129214286Y-30635771D01*
X129214286Y-30635771D02*
X129309524Y-30683390D01*
X129309524Y-30683390D02*
X129357143Y-30731009D01*
X129357143Y-30731009D02*
X129404762Y-30826247D01*
X129404762Y-30826247D02*
X129404762Y-31064342D01*
X129404762Y-31064342D02*
X129357143Y-31159580D01*
X129357143Y-31159580D02*
X129309524Y-31207200D01*
X129309524Y-31207200D02*
X129214286Y-31254819D01*
X129214286Y-31254819D02*
X128976191Y-31254819D01*
X128976191Y-31254819D02*
X128880953Y-31207200D01*
X128880953Y-31207200D02*
X128833334Y-31159580D01*
X129880953Y-31207200D02*
X129880953Y-31254819D01*
X129880953Y-31254819D02*
X129833334Y-31350057D01*
X129833334Y-31350057D02*
X129785715Y-31397676D01*
X130500000Y-30254819D02*
X130595238Y-30254819D01*
X130595238Y-30254819D02*
X130690476Y-30302438D01*
X130690476Y-30302438D02*
X130738095Y-30350057D01*
X130738095Y-30350057D02*
X130785714Y-30445295D01*
X130785714Y-30445295D02*
X130833333Y-30635771D01*
X130833333Y-30635771D02*
X130833333Y-30873866D01*
X130833333Y-30873866D02*
X130785714Y-31064342D01*
X130785714Y-31064342D02*
X130738095Y-31159580D01*
X130738095Y-31159580D02*
X130690476Y-31207200D01*
X130690476Y-31207200D02*
X130595238Y-31254819D01*
X130595238Y-31254819D02*
X130500000Y-31254819D01*
X130500000Y-31254819D02*
X130404762Y-31207200D01*
X130404762Y-31207200D02*
X130357143Y-31159580D01*
X130357143Y-31159580D02*
X130309524Y-31064342D01*
X130309524Y-31064342D02*
X130261905Y-30873866D01*
X130261905Y-30873866D02*
X130261905Y-30635771D01*
X130261905Y-30635771D02*
X130309524Y-30445295D01*
X130309524Y-30445295D02*
X130357143Y-30350057D01*
X130357143Y-30350057D02*
X130404762Y-30302438D01*
X130404762Y-30302438D02*
X130500000Y-30254819D01*
X131452381Y-30254819D02*
X131547619Y-30254819D01*
X131547619Y-30254819D02*
X131642857Y-30302438D01*
X131642857Y-30302438D02*
X131690476Y-30350057D01*
X131690476Y-30350057D02*
X131738095Y-30445295D01*
X131738095Y-30445295D02*
X131785714Y-30635771D01*
X131785714Y-30635771D02*
X131785714Y-30873866D01*
X131785714Y-30873866D02*
X131738095Y-31064342D01*
X131738095Y-31064342D02*
X131690476Y-31159580D01*
X131690476Y-31159580D02*
X131642857Y-31207200D01*
X131642857Y-31207200D02*
X131547619Y-31254819D01*
X131547619Y-31254819D02*
X131452381Y-31254819D01*
X131452381Y-31254819D02*
X131357143Y-31207200D01*
X131357143Y-31207200D02*
X131309524Y-31159580D01*
X131309524Y-31159580D02*
X131261905Y-31064342D01*
X131261905Y-31064342D02*
X131214286Y-30873866D01*
X131214286Y-30873866D02*
X131214286Y-30635771D01*
X131214286Y-30635771D02*
X131261905Y-30445295D01*
X131261905Y-30445295D02*
X131309524Y-30350057D01*
X131309524Y-30350057D02*
X131357143Y-30302438D01*
X131357143Y-30302438D02*
X131452381Y-30254819D01*
X132404762Y-30254819D02*
X132500000Y-30254819D01*
X132500000Y-30254819D02*
X132595238Y-30302438D01*
X132595238Y-30302438D02*
X132642857Y-30350057D01*
X132642857Y-30350057D02*
X132690476Y-30445295D01*
X132690476Y-30445295D02*
X132738095Y-30635771D01*
X132738095Y-30635771D02*
X132738095Y-30873866D01*
X132738095Y-30873866D02*
X132690476Y-31064342D01*
X132690476Y-31064342D02*
X132642857Y-31159580D01*
X132642857Y-31159580D02*
X132595238Y-31207200D01*
X132595238Y-31207200D02*
X132500000Y-31254819D01*
X132500000Y-31254819D02*
X132404762Y-31254819D01*
X132404762Y-31254819D02*
X132309524Y-31207200D01*
X132309524Y-31207200D02*
X132261905Y-31159580D01*
X132261905Y-31159580D02*
X132214286Y-31064342D01*
X132214286Y-31064342D02*
X132166667Y-30873866D01*
X132166667Y-30873866D02*
X132166667Y-30635771D01*
X132166667Y-30635771D02*
X132214286Y-30445295D01*
X132214286Y-30445295D02*
X132261905Y-30350057D01*
X132261905Y-30350057D02*
X132309524Y-30302438D01*
X132309524Y-30302438D02*
X132404762Y-30254819D01*
X133357143Y-30254819D02*
X133452381Y-30254819D01*
X133452381Y-30254819D02*
X133547619Y-30302438D01*
X133547619Y-30302438D02*
X133595238Y-30350057D01*
X133595238Y-30350057D02*
X133642857Y-30445295D01*
X133642857Y-30445295D02*
X133690476Y-30635771D01*
X133690476Y-30635771D02*
X133690476Y-30873866D01*
X133690476Y-30873866D02*
X133642857Y-31064342D01*
X133642857Y-31064342D02*
X133595238Y-31159580D01*
X133595238Y-31159580D02*
X133547619Y-31207200D01*
X133547619Y-31207200D02*
X133452381Y-31254819D01*
X133452381Y-31254819D02*
X133357143Y-31254819D01*
X133357143Y-31254819D02*
X133261905Y-31207200D01*
X133261905Y-31207200D02*
X133214286Y-31159580D01*
X133214286Y-31159580D02*
X133166667Y-31064342D01*
X133166667Y-31064342D02*
X133119048Y-30873866D01*
X133119048Y-30873866D02*
X133119048Y-30635771D01*
X133119048Y-30635771D02*
X133166667Y-30445295D01*
X133166667Y-30445295D02*
X133214286Y-30350057D01*
X133214286Y-30350057D02*
X133261905Y-30302438D01*
X133261905Y-30302438D02*
X133357143Y-30254819D01*
X134880953Y-31254819D02*
X134880953Y-30588152D01*
X134880953Y-30683390D02*
X134928572Y-30635771D01*
X134928572Y-30635771D02*
X135023810Y-30588152D01*
X135023810Y-30588152D02*
X135166667Y-30588152D01*
X135166667Y-30588152D02*
X135261905Y-30635771D01*
X135261905Y-30635771D02*
X135309524Y-30731009D01*
X135309524Y-30731009D02*
X135309524Y-31254819D01*
X135309524Y-30731009D02*
X135357143Y-30635771D01*
X135357143Y-30635771D02*
X135452381Y-30588152D01*
X135452381Y-30588152D02*
X135595238Y-30588152D01*
X135595238Y-30588152D02*
X135690477Y-30635771D01*
X135690477Y-30635771D02*
X135738096Y-30731009D01*
X135738096Y-30731009D02*
X135738096Y-31254819D01*
X136214286Y-31254819D02*
X136214286Y-30588152D01*
X136214286Y-30683390D02*
X136261905Y-30635771D01*
X136261905Y-30635771D02*
X136357143Y-30588152D01*
X136357143Y-30588152D02*
X136500000Y-30588152D01*
X136500000Y-30588152D02*
X136595238Y-30635771D01*
X136595238Y-30635771D02*
X136642857Y-30731009D01*
X136642857Y-30731009D02*
X136642857Y-31254819D01*
X136642857Y-30731009D02*
X136690476Y-30635771D01*
X136690476Y-30635771D02*
X136785714Y-30588152D01*
X136785714Y-30588152D02*
X136928571Y-30588152D01*
X136928571Y-30588152D02*
X137023810Y-30635771D01*
X137023810Y-30635771D02*
X137071429Y-30731009D01*
X137071429Y-30731009D02*
X137071429Y-31254819D01*
D11*
X100000000Y-46000000D02*
X100000000Y-31363580D01*
X165000000Y-46000000D02*
X165000000Y-31363580D01*
X100000000Y-31950000D02*
X165000000Y-31950000D01*
X100000000Y-31950000D02*
X165000000Y-31950000D01*
X100000000Y-31950000D02*
X101126504Y-31363579D01*
X100000000Y-31950000D02*
X101126504Y-32536421D01*
X165000000Y-31950000D02*
X163873496Y-32536421D01*
X165000000Y-31950000D02*
X163873496Y-31363579D01*
M02*
